<svg xmlns="http://www.w3.org/2000/svg" viewBox="0 0 35 39.73"><defs><style>.cls-1{fill:#fff;}</style></defs><title>united-cheer-sports-mobile-menu-contact</title><g id="Ebene_2" data-name="Ebene 2"><g id="Ebene_1-2" data-name="Ebene 1"><path class="cls-1" d="M34.45,31.22H29.74a.47.47,0,0,0-.31.11,18.27,18.27,0,0,1-5.23,3.06,16.49,16.49,0,0,1-5.79,1A13.64,13.64,0,0,1,8.27,31.34c-2.64-2.71-4-6.45-4-11.09,0-4.83,1.38-8.74,4.09-11.61A13.64,13.64,0,0,1,18.72,4.32,11.61,11.61,0,0,1,27.4,7.7a12.25,12.25,0,0,1,3.31,8.91,13.54,13.54,0,0,1-1.13,5.72A10.27,10.27,0,0,1,27,26a4.31,4.31,0,0,1-2.62,1.18c-.24,0-.34,0-.34-.39a5.8,5.8,0,0,1,.08-.7L26.92,8.3a.5.5,0,0,0-.11-.39.48.48,0,0,0-.37-.17H22a.48.48,0,0,0-.48.42l-.19,1.32A6.76,6.76,0,0,0,19.63,8a5.87,5.87,0,0,0-3.17-.88c-2.86,0-5.3,1.54-7.26,4.58A18.57,18.57,0,0,0,6.3,21.89a11.63,11.63,0,0,0,2.12,7.25,7,7,0,0,0,5.75,2.79,6.21,6.21,0,0,0,2.88-.63,10.29,10.29,0,0,0,2.19-1.61A3.71,3.71,0,0,0,23,31.9c2.7,0,5.41-1.38,8.05-4.1s4-6.49,4-11.19a16.73,16.73,0,0,0-2.24-8.94A16.74,16.74,0,0,0,27.21,2a16.39,16.39,0,0,0-8.58-2C12.81,0,8.19,2,4.91,6A22,22,0,0,0,0,20.45c0,5.74,1.78,10.44,5.29,14a17.85,17.85,0,0,0,13.14,5.31,22,22,0,0,0,9-1.95A19.15,19.15,0,0,0,34.83,32a.48.48,0,0,0,.05-.51A.48.48,0,0,0,34.45,31.22ZM19.83,15.56a25.91,25.91,0,0,1-.93,6.66A11,11,0,0,1,17,26.71a3,3,0,0,1-2.22,1,2.23,2.23,0,0,1-2-1.22,6.24,6.24,0,0,1-.83-3.32,22.47,22.47,0,0,1,1.45-8.09c.91-2.38,2.15-3.53,3.76-3.53a2.19,2.19,0,0,1,1.91,1A5.22,5.22,0,0,1,19.83,15.56Z"/></g></g></svg>