<svg xmlns="http://www.w3.org/2000/svg" viewBox="0 0 682.35 107.92"><defs><style>.cls-1{fill:#fff;}</style></defs><title>united-cheer-sports-schriftzug</title><g id="Ebene_2" data-name="Ebene 2"><g id="Ebene_1-2" data-name="Ebene 1"><path class="cls-1" d="M36.51,43.21q5.48,19,10.94,38.08a66.39,66.39,0,0,1,2.18,9.23,12.76,12.76,0,0,1-1,6.12,14,14,0,0,1-4.38,5.83,23,23,0,0,1-7.74,3.88,25.14,25.14,0,0,1-9.7,1.17,14.77,14.77,0,0,1-7.35-2.46,12.64,12.64,0,0,1-4.17-4.91Q14,97.29,10.84,87.75L0,54.38q8-2.58,15.93-5Q22.47,70.58,29,91.82a17,17,0,0,0,1.88,4.62,1.71,1.71,0,0,0,2,.51,1.83,1.83,0,0,0,1.51-1.71,21.16,21.16,0,0,0-1.21-5.5q-6.34-20.91-12.7-41.8Q28.51,45.51,36.51,43.21Z"/><path class="cls-1" d="M78.66,32q7.07,28.79,14.12,57.58Q86.09,91.22,79.4,93q-7.35-12-14.89-24l7,26q-6.36,1.71-12.71,3.49-8-28.53-16-57.08,6.7-1.87,13.43-3.68,8,11.68,15.71,23.47L65.17,35.39Q71.91,33.64,78.66,32Z"/><path class="cls-1" d="M101.33,26.68q6.47,28.93,12.92,57.86-7.68,1.71-15.33,3.54Q92,59.25,85.14,30.42,93.23,28.49,101.33,26.68Z"/><path class="cls-1" d="M140.6,18.65q1.08,5.84,2.17,11.67-4.78.88-9.57,1.82l9.06,46.55q-7.69,1.5-15.39,3.12Q122,58.61,117.11,35.4c-3.17.66-6.33,1.34-9.5,2q-1.26-5.79-2.54-11.59Q122.79,22,140.6,18.65Z"/><path class="cls-1" d="M144.32,18q13.59-2.47,27.24-4.61l1.83,11.72q-5.4.86-10.79,1.75.92,5.54,1.84,11.09c3.34-.56,6.67-1.1,10-1.62q.87,5.56,1.75,11.14-4.95.78-9.9,1.6,1.06,6.43,2.14,12.86,5.75-1,11.49-1.85.91,5.87,1.82,11.73-13.42,2.09-26.81,4.52Z"/><path class="cls-1" d="M177.35,12.47q6.12-.93,12.25-1.78c7.92-1.11,13.33-1.44,16.2-1.11a12.45,12.45,0,0,1,6.77,2.57A10.28,10.28,0,0,1,215.89,17a73.17,73.17,0,0,1,1.85,11.16q1.2,10.32,2.39,20.63.92,7.92.47,10.69A8,8,0,0,1,218.44,64a11.32,11.32,0,0,1-4.4,2.68,44.91,44.91,0,0,1-8.27,1.67q-9.79,1.29-19.56,2.76Q181.77,41.78,177.35,12.47Zm17.75,7.7,5.25,38.65c2.26-.31,3.59-.93,4-1.89s.36-3.39-.16-7.31q-1.5-11.41-3-22.84a29.15,29.15,0,0,0-.94-5.08,2.46,2.46,0,0,0-1.45-1.49A8.44,8.44,0,0,0,195.1,20.17Z"/><path class="cls-1" d="M275.62,27.93q-8,.51-16.09,1.13c-.27-3.43-.53-6.85-.8-10.27q-.35-4.48-1-5.56a2.29,2.29,0,0,0-2.39-.93c-1.35.11-2.17.63-2.45,1.56a19.31,19.31,0,0,0-.06,5.89q1.14,13.72,2.27,27.44a19,19,0,0,0,1,5.58,2.73,2.73,0,0,0,4.66-.38c.29-.9.31-3,.06-6.22l-.57-7.43q8-.63,16-1.12c0,.77.09,1.54.14,2.3.39,6.13.21,10.5-.51,13.12s-2.53,5-5.4,7.12a20.51,20.51,0,0,1-10.88,3.72,23.91,23.91,0,0,1-11.5-1.48,12.12,12.12,0,0,1-6.54-6.21q-1.87-4.19-2.73-12.85T237.12,26.1a73.93,73.93,0,0,1-.47-9.62,12.94,12.94,0,0,1,2.18-6.4,15.33,15.33,0,0,1,6-5.25,24.51,24.51,0,0,1,9.34-2.5c4.86-.39,8.94.2,12.21,1.73s5.49,3.58,6.64,6.14,1.9,6.59,2.24,12.11C275.39,24.19,275.51,26.06,275.62,27.93Z"/><path class="cls-1" d="M317.86.29l1.36,59.28q-7.82.18-15.62.47l-.94-24.88-4.79.19,1.05,24.88q-7.8.33-15.61.77-1.69-29.59-3.38-59.19,8.24-.47,16.49-.82l.9,21.19,4.84-.2q-.41-10.59-.8-21.19Q309.61.49,317.86.29Z"/><path class="cls-1" d="M324.49.16Q338.26-.08,352,0l-.09,11.87c-3.64,0-7.27,0-10.91,0l0,11.24q5,0,10.1,0,0,5.64-.08,11.27c-3.33,0-6.67,0-10,0l0,13c3.87,0,7.73,0,11.6,0,0,4-.07,7.91-.1,11.86q-13.56-.12-27.1.11Q325,29.8,324.49.16Z"/><path class="cls-1" d="M357.86.09q13.77.18,27.52.71-.21,5.93-.44,11.85c-3.64-.14-7.27-.25-10.9-.36-.11,3.75-.21,7.5-.32,11.24q5.05.15,10.1.33l-.42,11.27q-5-.18-10-.32l-.36,13c3.86.11,7.73.24,11.59.39q-.22,5.93-.46,11.85-13.55-.53-27.09-.7Q357.48,29.74,357.86.09Z"/><path class="cls-1" d="M391.22,1q5.85.25,11.68.57c7.78.42,13,1,15.75,1.8a10.84,10.84,0,0,1,6.41,4.77q2.32,3.64,1.74,11.2c-.35,4.6-1.19,7.65-2.5,9.14s-3.74,2.27-7.27,2.34c3.13,1,5.19,2.15,6.18,3.49A8.83,8.83,0,0,1,425,38a52,52,0,0,1-.27,8.78q-.6,7.79-1.19,15.59-7.25-.56-14.49-1l1.23-19.66q.3-4.76-.41-5.93t-4-1.38q-.76,13.34-1.54,26.69-7.82-.47-15.62-.79Zm15.91,11q-.37,6.58-.76,13.16a7.44,7.44,0,0,0,3.86-.48c.75-.43,1.22-2,1.38-4.56.07-1.08.14-2.16.2-3.25.12-1.88-.16-3.13-.83-3.76S409,12.1,407.13,12Z"/><path class="cls-1" d="M481.09,26.66q-7.5-1-15-1.8c.17-1.46.33-2.92.5-4.37.23-2,.18-3.36-.14-4a2.21,2.21,0,0,0-1.85-1.05,2.51,2.51,0,0,0-2.35.88,6.26,6.26,0,0,0-1.12,3.34,9.43,9.43,0,0,0,.36,4.54c.43,1.06,1.82,2.42,4.17,4.11,6.71,4.86,10.77,8.74,12.29,11.57s1.9,7.12,1.16,12.88q-.81,6.29-2.69,9.07c-1.26,1.86-3.4,3.28-6.42,4.28a23.83,23.83,0,0,1-10.2.86,23.33,23.33,0,0,1-10.42-3.47c-2.79-1.85-4.54-4-5.22-6.51a30.21,30.21,0,0,1-.42-10.38c.13-1.29.25-2.57.37-3.86q7.38.69,14.75,1.49l-.78,7.17c-.23,2.21-.18,3.66.16,4.33A2.41,2.41,0,0,0,460.3,57a2.62,2.62,0,0,0,2.47-.94,6.79,6.79,0,0,0,1.17-3.48c.39-3.47.17-5.79-.69-7a45.34,45.34,0,0,0-6.86-6.16,80.16,80.16,0,0,1-7.34-6.31,13,13,0,0,1-2.77-5.05,20.23,20.23,0,0,1-.56-7.85q.64-6.78,2.78-9.74A12.1,12.1,0,0,1,455,6.15a25,25,0,0,1,10.19-.71,27.16,27.16,0,0,1,10.69,3.19c2.84,1.64,4.63,3.51,5.35,5.58s.79,5.45.19,10.12C481.28,25.11,481.19,25.88,481.09,26.66Z"/><path class="cls-1" d="M489.86,9.7q8.25,1.1,16.5,2.32a40.25,40.25,0,0,1,10.13,2.55,11.6,11.6,0,0,1,4.93,3.69,9.45,9.45,0,0,1,1.7,4.86,37.42,37.42,0,0,1-.71,8.21l-.84,5.1c-.62,3.73-1.48,6.39-2.56,8a8.29,8.29,0,0,1-5.08,3.22,22.14,22.14,0,0,1-8.62.06L501.05,47q-1.74,11.82-3.5,23.62c-5.16-.76-10.34-1.49-15.51-2.18Q485.94,39.09,489.86,9.7ZM504.76,22Q503.65,29.5,502.55,37q.68.15,1.17.21a3.84,3.84,0,0,0,3.21-.57c.68-.6,1.18-2,1.52-4.15.24-1.61.49-3.21.73-4.82.31-2,.18-3.36-.4-4.06S506.86,22.35,504.76,22Z"/><path class="cls-1" d="M560.07,56.76a123,123,0,0,1-3,12.3,14.07,14.07,0,0,1-4,6.12,14.66,14.66,0,0,1-6.92,3.44,23.21,23.21,0,0,1-9.09-.07,23.81,23.81,0,0,1-8.28-3.1,14.51,14.51,0,0,1-5.31-5.68,13.82,13.82,0,0,1-1.63-7.15,118.68,118.68,0,0,1,1.7-12.71c.56-3.34,1.13-6.67,1.69-10a121.71,121.71,0,0,1,2.56-12.39,13.57,13.57,0,0,1,3.92-6.22,14.89,14.89,0,0,1,7.14-3.55,24.48,24.48,0,0,1,9.6.09,25,25,0,0,1,8.74,3.26A14.77,14.77,0,0,1,562.71,27a13.41,13.41,0,0,1,1.52,7.22,115.46,115.46,0,0,1-2.12,12.65ZM547.94,34.5a17,17,0,0,0,.51-5.29,2,2,0,0,0-1.76-1.51,2.28,2.28,0,0,0-2.11.56c-.57.53-1.12,2.29-1.68,5.29l-5,27.23a26,26,0,0,0-.73,6.34,1.89,1.89,0,0,0,1.75,1.56,1.94,1.94,0,0,0,2.29-1,28.22,28.22,0,0,0,1.68-6.42Q545.4,47.88,547.94,34.5Z"/><path class="cls-1" d="M573.11,24q5.76,1.21,11.49,2.5c7.65,1.7,12.75,3.2,15.32,4.38a10.9,10.9,0,0,1,5.58,5.77q1.72,4-.1,11.35-1.67,6.72-4,8.59c-1.55,1.26-4.08,1.62-7.6,1.11,3,1.48,4.8,3,5.57,4.47a8.88,8.88,0,0,1,1.15,3.88,52.33,52.33,0,0,1-1.7,8.61l-3.75,15.19q-7.1-1.76-14.21-3.4,2.22-9.6,4.45-19.2,1.08-4.64.57-5.92c-.34-.85-1.6-1.53-3.76-2q-3,13-5.92,26.07-7.66-1.74-15.36-3.37Q567,53,573.11,24Zm14,13.45q-1.46,6.43-2.92,12.86a7.59,7.59,0,0,0,3.91.16q1.23-.45,2.12-4.26c.24-1.06.49-2.12.73-3.18.43-1.83.36-3.11-.21-3.85S588.94,37.88,587.09,37.46Z"/><path class="cls-1" d="M647.91,42.55q-1.62,5.72-3.25,11.42-4.71-1.35-9.43-2.65-6.3,22.86-12.59,45.73Q615,95,607.41,93l11.91-45.9c-3.14-.82-6.29-1.62-9.43-2.4q1.43-5.76,2.87-11.51Q630.4,37.56,647.91,42.55Z"/><path class="cls-1" d="M679.86,71q-7.26-2.36-14.55-4.6l1.29-4.2c.6-2,.8-3.27.59-3.92a2.24,2.24,0,0,0-1.63-1.38,2.55,2.55,0,0,0-2.5.43,6.25,6.25,0,0,0-1.73,3.07,9.24,9.24,0,0,0-.47,4.53c.23,1.12,1.35,2.72,3.37,4.82,5.76,6,9.08,10.63,10.06,13.69s.57,7.36-1.22,12.88q-2,6-4.34,8.41c-1.59,1.59-4,2.58-7.16,3a24.3,24.3,0,0,1-10.28-1.08,23.61,23.61,0,0,1-9.69-5.37,11.8,11.8,0,0,1-4-7.38,29.89,29.89,0,0,1,1.51-10.27c.36-1.25.71-2.49,1.07-3.73q7.18,2.07,14.35,4.24c-.7,2.3-1.39,4.6-2.09,6.9-.65,2.13-.86,3.55-.65,4.28a2.47,2.47,0,0,0,1.84,1.56,2.64,2.64,0,0,0,2.62-.46,6.79,6.79,0,0,0,1.8-3.2c1-3.34,1.24-5.66.6-7s-2.53-3.79-5.66-7.35a80.47,80.47,0,0,1-6.12-7.58,13,13,0,0,1-1.81-5.48A19.94,19.94,0,0,1,646,58q1.88-6.55,4.54-9.06a12.32,12.32,0,0,1,7.21-3A25.47,25.47,0,0,1,668,47.17a27.79,27.79,0,0,1,10,5.14q3.78,3.24,4.28,6.5c.34,2.18-.22,5.5-1.67,10Z"/></g></g></svg>