<svg xmlns="http://www.w3.org/2000/svg" viewBox="0 0 113.24 58.18"><defs><style>.cls-1{fill:#010101;}.cls-2{fill:#262626;}.cls-3{fill:#020101;}.cls-4{fill:#aea603;}.cls-5{fill:#b40200;}.cls-6{fill:#f9f111;}.cls-7{fill:#1a1a1a;}.cls-8{fill:#f71916;}.cls-9{fill:#fc0701;}.cls-10{fill:#fbf30d;}.cls-11{fill:#af0502;}.cls-12{fill:#da0502;}.cls-13{fill:#fdf209;}.cls-14{fill:#faf215;}.cls-15{fill:#fbf103;}.cls-16{fill:#fd2120;}.cls-17{fill:#fcf420;}.cls-18{fill:#030202;}.cls-19{fill:#bab301;}.cls-20{fill:#afa802;}.cls-21{fill:#f61814;}.cls-22{fill:#fcf202;}.cls-23{fill:#9c0302;}.cls-24{fill:#9b9302;}.cls-25{fill:#c3ba00;}.cls-26{fill:#dcd300;}.cls-27{fill:#fcf306;}.cls-28{fill:#fcf321;}.cls-29{fill:#b5ae04;}.cls-30{fill:#b1aa04;}.cls-31{fill:#252525;}.cls-32{fill:#a49e01;}.cls-33{fill:#b3ac06;}.cls-34{fill:#fd0f09;}.cls-35{fill:#f7ee04;}.cls-36{fill:#fbf215;}.cls-37{fill:#fe0c07;}.cls-38{fill:#e8de01;}.cls-39{fill:#d1c903;}.cls-40{fill:#b2ab05;}.cls-41{fill:#cac201;}.cls-42{fill:#faf119;}.cls-43{fill:#f8f004;}.cls-44{fill:#ad0402;}.cls-45{fill:#f70905;}.cls-46{fill:#c1b802;}.cls-47{fill:#aba300;}.cls-48{fill:#aaa300;}.cls-49{fill:#fcf41e;}.cls-50{fill:#e8dd06;}.cls-51{fill:#fa0905;}.cls-52{fill:#db0703;}.cls-53{fill:#f8ee00;}.cls-54{fill:#313131;}.cls-55{fill:#c10;}.cls-56{fill:#fb1411;}.cls-57{fill:#fa2416;}.cls-58{fill:#c4bc02;}.cls-59{fill:#ded502;}.cls-60{fill:#fbf91b;}.cls-61{fill:#f71815;}.cls-62{fill:#dc0401;}.cls-63{fill:#222;}.cls-64{fill:#131313;}.cls-65{fill:#cb0200;}.cls-66{fill:#9f9801;}.cls-67{fill:#f7fa05;}.cls-68{fill:#fd1c1b;}.cls-69{fill:#fc1d1a;}.cls-70{fill:#1f2020;}.cls-71{fill:#c9c100;}.cls-72{fill:#a90504;}.cls-73{fill:#d40603;}.cls-74{fill:#a69b04;}.cls-75{fill:#fcf307;}.cls-76{fill:#fb0f01;}.cls-77{fill:#fe0b05;}.cls-78{fill:#af0400;}.cls-79{fill:#b8b003;}.cls-80{fill:#c5bc00;}.cls-81{fill:#f9f217;}.cls-82{fill:#e91005;}.cls-83{fill:#d7ce01;}.cls-84{fill:#9e9804;}.cls-85{fill:#e8df15;}.cls-86{fill:#f2e800;}.cls-87{fill:#c30200;}.cls-88{fill:#b2ab00;}.cls-89{fill:#060606;}.cls-90{fill:#f7ed08;}.cls-91{fill:#242424;}.cls-92{fill:#807a09;}.cls-93{fill:#888201;}.cls-94{fill:#e9e40d;}.cls-95{fill:#0f2525;}.cls-96{fill:#7b7605;}.cls-97{fill:#d4cc01;}.cls-98{fill:#ac0a08;}.cls-99{fill:#bdb507;}.cls-100{fill:#2d2d2d;}.cls-101{fill:#999202;}.cls-102{fill:#8f8703;}.cls-103{fill:#a3a181;}.cls-104{fill:#b9b200;}.cls-105{fill:#777656;}.cls-106{fill:#aca400;}.cls-107{fill:#e9e200;}.cls-108{fill:#a7a008;}.cls-109{fill:#f5ee00;}.cls-110{fill:#f6f504;}.cls-111{fill:#b0ab06;}.cls-112{fill:#f0e600;}.cls-113{fill:#b6b378;}.cls-114{fill:#282828;}.cls-115{fill:#85811a;}.cls-116{fill:#dad422;}.cls-117{fill:#f21916;}.cls-118{fill:#aaa418;}.cls-119{fill:#979105;}.cls-120{fill:#021c1c;}.cls-121{fill:#938d0e;}.cls-122{fill:#f80d04;}.cls-123{fill:#cfc93c;}.cls-124{fill:#878543;}.cls-125{fill:#f92414;}.cls-126{fill:#9a987d;}.cls-127{fill:#f0eb13;}.cls-128{fill:#e6e011;}.cls-129{fill:#e0db28;}.cls-130{fill:#aaa30a;}.cls-131{fill:#8f8a28;}.cls-132{fill:#bdb93b;}.cls-133{fill:#1b1b1b;}.cls-134{fill:#f9f112;}.cls-135{fill:#1e1e1e;}.cls-136{fill:#0d0d0d;}.cls-137{fill:#b0a900;}.cls-138{fill:#f72523;}.cls-139{fill:#c6c900;}.cls-140{fill:#f1e803;}.cls-141{fill:#a69f00;}.cls-142{fill:#fbf21c;}.cls-143{fill:#afa700;}.cls-144{fill:#fefe22;}.cls-145{fill:#afb600;}.cls-146{fill:#d7d800;}.cls-147{fill:#dfe100;}.cls-148{fill:#c70b00;}.cls-149{fill:#cf0200;}.cls-150{fill:#a7a000;}.cls-151{fill:#b9b103;}.cls-152{fill:#c4bc00;}.cls-153{fill:#cdc400;}.cls-154{fill:#c50200;}.cls-155{fill:#fe0d08;}.cls-156{fill:#b0a903;}.cls-157{fill:#fe0e0a;}.cls-158{fill:#ba0301;}.cls-159{fill:#b80200;}.cls-160{fill:#fbf100;}.cls-161{fill:#c5bd00;}</style></defs><title>united-cheer-sports-dortmund-ccvd-mitglied</title><g id="Ebene_2" data-name="Ebene 2"><g id="Ebene_1-2" data-name="Ebene 1"><path class="cls-1" d="M69.9,9.5c-14.67,1.58-29.17,3.9-42.77,10a34.31,34.31,0,0,0-8.47,5.57c-2.1-.16-4.22.6-6.3-.15a1,1,0,0,1-.3-.62c.28-1.26,1.52-1.61,2.29-2.4a46.83,46.83,0,0,1,9.16-5.14c1.55-.59,3.11-1.18,4.68-1.73.57-.18,1.12-.4,1.67-.61a152.06,152.06,0,0,1,30.2-5.82c4.8-.48,9.59-1,14.42-1.13a1,1,0,0,1,1,.3.9.9,0,0,1-.28,1A3.69,3.69,0,0,1,74,9.46a2.63,2.63,0,0,1-.69.12A6.75,6.75,0,0,0,69.9,9.5Z"/><path class="cls-2" d="M75.08,7.72C68.32,8.1,61.61,8.94,54.9,9.78A202.76,202.76,0,0,0,29.53,15c-.48.06-1,0-1.36.45l-4.55,1.8c-.11-.11-.25-.25-.37-.22-3.38,1-6.64,2.13-8.73,5.24-.5.91-1.5,1.22-2.24,1.83a11.47,11.47,0,0,1-8.14,0,37.14,37.14,0,0,1,11.82-7A87.15,87.15,0,0,1,25.28,14c3-.68,5.92-2,9-2.21.77-.43,1.73.18,2.45-.46a15.22,15.22,0,0,1,4.57-.82c.45.36,1,.09,1.5.25-.22-.17-.56,0-.7-.34a2.85,2.85,0,0,1,1.94-.35,4.4,4.4,0,0,0,2,.16c-.17.17-.47,0-.77-.27a2.74,2.74,0,0,1,2-.34,4.35,4.35,0,0,0,2,.15c-.16.17-.46,0-.76-.27C53.61,8.42,58.82,8.22,64,7.75c3.61-.33,7.23-.54,10.85-.8A.66.66,0,0,1,75.08,7.72Z"/><path class="cls-3" d="M105.32,24.61a8.1,8.1,0,0,0-6.14-2.2c-2,0-4,.32-6-.17-.45-.61,0-1.08.23-1.59a6,6,0,0,1,2.91-2,17.76,17.76,0,0,1,7.29.38c1.62.93,3.05.85,4.16-.84a9.45,9.45,0,0,1,4.89,6.14C110.24,25.21,107.77,24.61,105.32,24.61Z"/><path class="cls-4" d="M51.6,54.58a106.66,106.66,0,0,1-16.16-2.79,1.45,1.45,0,0,0-.77-.73c-.51-.23-1.24-.31-1.18-1.07s.83-.88,1.48-1c5.09,1,10.11,2.36,15.22,3.26,4.75.83,9.49,1.63,14.28,2.14a3.44,3.44,0,0,1,2.28.83.69.69,0,0,1,.1.74,3.75,3.75,0,0,1-1.56.16A9.82,9.82,0,0,1,62.53,56l-.7,0c-1.19-.63-2.54.1-3.74-.43a9,9,0,0,1-4-.51C53.33,54.5,52.39,55,51.6,54.58Z"/><path class="cls-3" d="M75.78,16.86a58.77,58.77,0,0,1,2.12,7.61c-1,1-2.27.59-3.43.74-1.07,0-2.18.14-3.11-.58-1-2.58-2.15-5.08-2.39-7.88a.65.65,0,0,1,.65,0c1.88,1.41,3.74,2.3,5.58-.08C75.31,16.54,75.62,16.66,75.78,16.86Z"/><path class="cls-1" d="M67.26,16.9c1.27,1.63.42,3.48.46,5.22,0,.76-.94.53-1.49.52a8.55,8.55,0,0,0-6.42,2.08,4.35,4.35,0,0,1-3.73.07c-.6-.51-.45-1.09-.17-1.68a7.72,7.72,0,0,1,5-3.63A15.73,15.73,0,0,0,67.26,16.9Z"/><path class="cls-1" d="M49.53,16.82c1.17,1.75.39,3.68.39,5.51,0,.67-1,.39-1.55.38-2.31,0-4.47.37-6.22,2.05a5.39,5.39,0,0,1-3.67.16,1.05,1.05,0,0,1-.51-.51c-.19-.81.31-1.35.77-1.9a10.54,10.54,0,0,1,4-2.86A13.29,13.29,0,0,0,49.53,16.82Z"/><path class="cls-5" d="M16.35,28.21a13.79,13.79,0,0,0-.91,5,3.62,3.62,0,0,0-2.27-.45c-1.71.21-3.59.68-5.19-.58a2.33,2.33,0,0,1-.31-1.41,2.67,2.67,0,0,1,.15-.68c1.09-1.47,1.46-3.51,3.36-4.36C13,26.28,15.15,26.3,16.35,28.21Z"/><path class="cls-6" d="M66.8,55.47c-5.84-.91-11.7-1.72-17.51-2.78-4.94-.9-9.82-2.09-14.73-3.15-.31-.53-1.67.3-1.34-1a1.59,1.59,0,0,1,.65-.32c2.81.06,5.35,1.3,8.05,1.82s5.36,1.29,8.06,1.83c2.08,0,4,1,6.1.89.68.07,1.4-.61,2,.12s1.56.2,2.33.41c.85.46,1.84-.12,2.69.37l0,0c.87.58,1.92,0,2.8.41a10.25,10.25,0,0,1,4,.54c.9.5,2-.1,2.85.4l.79.06c.91.49,2-.1,2.86.39.5-.18.79.17,1.11.45a5.1,5.1,0,0,1,3,0l.69,0,.2.31a1,1,0,0,1-.51.5c-1.08.32-2.18,0-3.27.08-.84,0-1.68,0-2.51,0a16.4,16.4,0,0,0-2.41-.41,7.42,7.42,0,0,1-1-.08,9.53,9.53,0,0,0-2.82-.22A3.5,3.5,0,0,1,66.8,55.47Z"/><path class="cls-2" d="M67.26,16.9a6.11,6.11,0,0,1-4.88,2.76c-2.5.13-4.44,1.63-6,3.53-1.33.1-1.85-.82-2.3-1.83a9,9,0,0,1,6.29-4.12c1.36-.54,2.86.24,4.2-.44C65.46,16.46,66.35,16.89,67.26,16.9Z"/><path class="cls-7" d="M82.27,24.53l2.16-7.75c1.79-.38,3.61-.07,5.41-.18.59,0,.84.28.58.82a4.81,4.81,0,0,1-1.76,1.68,4.78,4.78,0,0,0-2.11,3c-.47,2.31,2,.87,2.49,2l-.1.54a6.16,6.16,0,0,1-3.56.56C84.3,25.19,83.17,25.38,82.27,24.53Z"/><path class="cls-8" d="M82.27,24.53l3.14,0c.2.22.43.5.37.78-.58,2.82-.77,5.76-2.65,8.15A3.49,3.49,0,0,1,80,33.36a1,1,0,0,1,0-1.48Z"/><path class="cls-9" d="M71.36,24.63l3.17,0a2.27,2.27,0,0,1,1.34,1.68A48,48,0,0,1,77.42,33a.87.87,0,0,1-.47.54,2.75,2.75,0,0,1-2.85-.35A52.23,52.23,0,0,1,71.36,24.63Z"/><path class="cls-10" d="M33.62,48.64l-.53,0c-2.13,1-3.79-.64-5.68-1A6.17,6.17,0,0,1,26,46.78a8.77,8.77,0,0,0-2.54-1.36c-1-.41-1.67-1-1.09-2.22s1.32-.53,2-.2a1.41,1.41,0,0,0,1.05.26l9.2,4c-.09.2-.24.44-.43.45C33.5,47.73,33.36,48.05,33.62,48.64Z"/><path class="cls-11" d="M83.24,33.23q1.1-4.35,2.17-8.68l3.53.09-2.8,8.71A2.53,2.53,0,0,1,83.24,33.23Z"/><path class="cls-12" d="M77.29,33.22c-1.38-2.73-1.23-5.94-2.76-8.62l3.36-.13c1.23,2.32.67,5.15,2.11,7.41,0,.44,0,.87-.07,1.31A1.88,1.88,0,0,1,77.29,33.22Z"/><path class="cls-13" d="M99.54,35.24l.08.09c.31,1-.26,1.7-.77,2.43-1.44.42-3.11.37-4,2a3.47,3.47,0,0,1-1.31.89c-.29,0-.66.18-.67-.35l0-6.94a1,1,0,0,1,.75-.59,4.14,4.14,0,0,1,2,.09,1.61,1.61,0,0,1,.74.57c.28.52.08,1.14.33,1.67.19.36.45.54.86.36s.93-.72,1.57-.63A.69.69,0,0,1,99.54,35.24Z"/><path class="cls-14" d="M33.62,48.64c-1.34-1.65.59-1,1-1.41,4.39.42,8.39,2.34,12.64,3.34,1.2.28,2.42.52,3.63.78.31.9-.7.52-.91.93A118.76,118.76,0,0,1,36,49.07,6.31,6.31,0,0,0,33.62,48.64Z"/><path class="cls-15" d="M76.64,40.9a43.54,43.54,0,0,1-2.45-7.22c.93-.52,1.93-.13,2.9-.26h2.13a.72.72,0,0,1,.52.36c0,1.13-.43,2.44,1.18,2.92a.7.7,0,0,1,.06.6c-1,.65-2.26,1-2.82,2.26a6.15,6.15,0,0,1-.73,1A5.74,5.74,0,0,1,76.64,40.9Z"/><path class="cls-16" d="M8.19,30c0,.15,0,.3,0,.44-.29.57-.36,1.38-1.33,1.15C5.44,30.89,4.15,30,2.75,29.37c-.69-.32-1.3-.72-1.31-1.6a9.37,9.37,0,0,1,2-2.78h.37C7.32,24.72,8.48,26.06,8.19,30Z"/><path class="cls-17" d="M80,4.5C81.61,3.26,83.2,2,84.91.83c.44-.29,1.29-1.66,1.87,0a34.63,34.63,0,0,1-4.64,6.8c-.84.58-1.18,2-2.6,1.62A2.13,2.13,0,0,1,78.4,7.33,5.57,5.57,0,0,1,80,4.5Z"/><path class="cls-18" d="M89,24.1h-.23c-1-.19-2.85.58-3-.48a4.43,4.43,0,0,1,1.67-4.39c1-.73,2-1.53,3-2.3.22-.42.5-.35.81-.09A44.25,44.25,0,0,1,89,24.1Z"/><path class="cls-19" d="M20.81,47.78a8.63,8.63,0,0,1-4-1.46c-.41-.71-1.41-.81-1.72-1.63a2.6,2.6,0,0,1,.68-2.53c1.26-.66,2.24.17,3.29.6,1,.69,2.33.81,2.88,2.07-.2.51.29.75.45,1.12C23,47.38,22.57,47.85,20.81,47.78Z"/><path class="cls-20" d="M79.55,33.69l-2.32-.15.06-.31h0l2.64,0,3.31,0,2.9.12c-.84,2.48-1.67,4.95-2.51,7.42-.34-.12-.75,0-1.06-.27a2.66,2.66,0,0,1-.23-.52C82,39,81,38.32,80.81,37.22a2.67,2.67,0,0,0,0-.4c-.16-1,1.37-1.23,1-2.3C81.14,34,80.14,34.35,79.55,33.69Z"/><path class="cls-21" d="M6.8,31.37c.7.08.89-.61,1.34-.91,0,.46,0,.92,0,1.37a2.62,2.62,0,0,1-1.79,2.28c-2,.15-3.95.5-5.87-.3-1-1.68-.31-3.19.43-4.71C2.76,30.2,5,30.29,6.8,31.37Z"/><path class="cls-22" d="M19.07,43.23c-1.12-.14-2-1.09-3.16-1a3.9,3.9,0,0,1-2.19-2.29c.23-1.72,1.53-2.66,2.71-3.67L20,39.61C20,40.9,18.57,41.81,19.07,43.23Z"/><path class="cls-23" d="M16.35,28.21l-5-2.28c-2.55-.49-5.15-.46-7.7-.91L3.56,25l-.11,0L4,24.56a31.14,31.14,0,0,1,8.24,0c1.44.55,2.9-.14,4.35.09.69.11,1.49-.26,2.05.45Z"/><path class="cls-24" d="M109.58,37.38c-1.33,2.31-3.54,2.92-6,3.1.18-.29.15-.61,0-.7-1-.45-2.19-.35-2.79-1.47a1,1,0,0,1,.44-.45c.69-.3,1.5-.16,2.17-.56,1.5-.63,2.75-1.8,4.41-2.11C108.83,35.57,109.79,36,109.58,37.38Z"/><path class="cls-25" d="M14.07,40c.34,1,1.86.93,1.84,2.19a8.36,8.36,0,0,0-.47,2.8c-1,.62-1.84-.25-2.75-.44L11.8,44c-1.59-1.72-1.54-2.76.24-5.13C13,38.72,13.51,39.44,14.07,40Z"/><path class="cls-26" d="M.5,33.81l6.3-.16a11.94,11.94,0,0,1,8.76,0,1.41,1.41,0,0,1,.35,1.42c-1,1.44-3.1,1.52-4,3.13a1,1,0,0,1-.64.09,3,3,0,0,1-1.36-1.51c-.18-.82-1.33-1.62-.06-2.48,1.53,0,3.06-.07,3.93,0-1.36.12-3.42-.31-5.42.36-1,0-1.94,0-2.91,0a8.27,8.27,0,0,1-1.72.15,11.12,11.12,0,0,0-2.88-.18Z"/><path class="cls-27" d="M19.07,43.23c-1.47-1.67.19-2.53.95-3.62l5.4,3.65c-.51.59-1,.09-1.4-.1s-1.07-.56-1.36.41.15,1.09.76,1.31c1.06.37,2.19.59,2.9,1.58-1.87.65-3.22-.26-4.48-1.47Z"/><path class="cls-28" d="M98.64,37.75a6.47,6.47,0,0,1,1-2.42,22.25,22.25,0,0,0,4.87-1.73c1.11.13,2.77-.71,3.12.78.27,1.11-1.36,1.53-2.26,2.16-1.83,1.27-4,1.2-6,1.43A1.06,1.06,0,0,1,98.64,37.75Z"/><path class="cls-29" d="M21.84,45c1.53.36,2.87,1.34,4.48,1.47l1,.78c.36.89,2.23,1.3.86,2.73a33.86,33.86,0,0,1-7.36-2.19c1.7-.12,1.9-.94.86-2.09C21.21,45.19,21.16,45.09,21.84,45Z"/><path class="cls-30" d="M28.17,50c.58-1.18-1.25-1.61-.86-2.73,2,.19,3.72,1.51,5.78,1.45l1.47.85c-.66.67-.63.61.23,1.1.35.2,1.89,0,.65,1.15A36.51,36.51,0,0,1,28.17,50Z"/><path class="cls-31" d="M49.53,16.82c-1.47,2.79-4.15,3-6.81,3.2a1.81,1.81,0,0,1-1.37-2.23A17.66,17.66,0,0,1,49.53,16.82Z"/><path class="cls-32" d="M98.64,37.75a.81.81,0,0,0,.41,0c.64,0,1.32-.19,1.84.4.76.78,1.91.86,2.8,1.17,2.32.79-.65.77-.09,1.14l-.89.36c-2-.78-4.19-.16-6.28-.4-.72-.08-1.78.41-1.93-.92C95.43,37.89,96.67,37,98.64,37.75Z"/><path class="cls-33" d="M82.74,14.26q-1.2,3.93-2.4,7.9a1.22,1.22,0,0,1-.78-1.35,65.11,65.11,0,0,1-.22-8.38,3.23,3.23,0,0,1,.46-1.86A5.31,5.31,0,0,1,82.74,14.26Z"/><path class="cls-34" d="M96,33.36l-2.37-.17c-.92-1.82-.27-3.75-.42-5.61.08-.45.39-1.11.78-.79,2,1.64,3.22,0,4.64-.91.1-.12.2-.12.31,0a.77.77,0,0,1,.32.85,4.59,4.59,0,0,1-.84,1.41c-1.74,1.23-1.28,3.28-1.85,5A.74.74,0,0,1,96,33.36Z"/><path class="cls-35" d="M84.53,7.88c2,1.51,4.31,2.62,5.92,4.62a.33.33,0,0,1-.23.48,5.52,5.52,0,0,1-1.94-.21,45.58,45.58,0,0,0-4.74-1.32,2.68,2.68,0,0,1-1.91-1.33c-.35-1.45,1.05-1.53,1.71-2.18C83.73,7.77,84.12,7.42,84.53,7.88Z"/><path class="cls-36" d="M44.14,35l1.63,0c1.08.5,2.26.13,3.37.37a1.31,1.31,0,0,1,.29.59,2.11,2.11,0,0,1-.58,1.59,3.31,3.31,0,0,1-2.51,1.17,5.68,5.68,0,0,1-1.42-.16c-.89-.32-2-.2-2.6-1.14C42,35.14,42.17,34.85,44.14,35Z"/><path class="cls-37" d="M51.75,27.58l.07-.73c1.09,1,2.41-.37,3.53.35a12,12,0,0,1,.28,3.33c-.36,3-1.33,3.67-3.5,2.26-.64-.65-.31-1.47-.38-2.23A5.68,5.68,0,0,1,51.75,27.58Z"/><path class="cls-38" d="M37.65,38.16a9.63,9.63,0,0,1-2.94-4.44c.77-.92,1.84-.6,2.81-.67a3.28,3.28,0,0,1,1.41.3,4.78,4.78,0,0,1,1.65,2.87C39.77,37.11,39.26,38.46,37.65,38.16Z"/><path class="cls-39" d="M9.53,34.55l.91,2.28c-1.95,1-2.9,2.7-3.67,4.6A9.51,9.51,0,0,1,4,39.12a19.39,19.39,0,0,1,4.28-4.71A1.4,1.4,0,0,1,9.53,34.55Z"/><path class="cls-27" d="M80,4.5a4.91,4.91,0,0,1-1.36,2.79.64.64,0,0,1-.63.06C76.21,5.83,75.27,3.63,73.69,2a1,1,0,0,1,0-1.56C76.13,1.26,77.79,3.26,80,4.5Z"/><path class="cls-2" d="M41.35,17.79,42.72,20l-3.66,2.71c-1.91-.23-2-1.35-1.39-2.82A4.92,4.92,0,0,1,41.35,17.79Z"/><path class="cls-40" d="M84.53,7.88l-.93.34c-.95.38-1.95.82-1.8-.93,1.82-2,3-4.58,5-6.44C86.85,3.45,85.71,5.68,84.53,7.88Z"/><path class="cls-41" d="M6.77,41.43c.12-2.63,1.62-4.52,3.67-4.6l.91,1.36c-.28,1.43-1.33,2.51-1.73,3.9-.17.57-.72.41-1.16.25A2.75,2.75,0,0,1,6.77,41.43Z"/><path class="cls-42" d="M61.81,34.62l5.29.58c.31,1.77-1.09,2.42-2.17,3.28a2.35,2.35,0,0,1-1.59,0,3,3,0,0,1-.56-.3,1.22,1.22,0,0,0-.19-.12C59.7,37,59.66,36.82,61.81,34.62Z"/><path class="cls-43" d="M80,12.28c-.21,2.84.57,5.73-.43,8.53a27.72,27.72,0,0,1-1.87-6,2,2,0,0,1,.61-2.61C78.89,11.69,79.48,11.47,80,12.28Z"/><path class="cls-26" d="M8.17,34.56C7,36.28,5.88,38.06,4,39.12A5,5,0,0,1,2,36.86c.52-1.47,2-1.74,3.09-2.5.92,0,1.84,0,2.75,0Z"/><path class="cls-44" d="M38.17,24.49l4,.27c-1.45,1.85-1.36,4-1.26,6.18-1-.06-.87-.91-1-1.55.24-2-1.77-.73-2.3-1.6a2.61,2.61,0,0,1-.39-1.49c-.39-1.43-2-.27-2.62-1.22,0-.34.17-.47.43-.57A2.61,2.61,0,0,1,38.17,24.49Z"/><path class="cls-45" d="M37.73,25.91l0,1.82c.15.82.29,1.65.49,2.46a10.19,10.19,0,0,1,.2,2.7.88.88,0,0,1-.87.52c-1-.1-2,.23-2.94-.22a10.13,10.13,0,0,1-.43-6.8c1.27.4.85,1.5,1,2.36.11.6-.24,1.6.66,1.58.66,0,.33-1,.43-1.54C36.44,27.68,36.14,26.3,37.73,25.91Z"/><path class="cls-46" d="M37.65,38.16c1.2-.15,1.42-1.84,2.77-1.75,1-.25,1.62.36,2.28.93.61.73,1.72.07,2.33.82a20.87,20.87,0,0,0-3.24,2.26C40.07,40.29,38.88,39.18,37.65,38.16Z"/><path class="cls-47" d="M41.79,40.42C42.37,39,43.17,37.8,45,38.16l1.31.06c1.25.21,2.47.48,2.94,1.9a1.12,1.12,0,0,1-.1.7c-.65.54-1.38.3-2.1.2-1.62-.32-3.29-.21-4.92-.52l-.2,0Z"/><path class="cls-48" d="M63.21,38.16H65c1.5.23,2.56.74,1.67,2.54-1.06.44-2.11-.2-3.17,0a11.83,11.83,0,0,1-3.25-.19l-.13.06L60,40.46C59.8,37.84,60.53,37.32,63.21,38.16Z"/><path class="cls-49" d="M74.8,8.56l.47-.46a2.28,2.28,0,0,1,3,.66c.06,1.78-1.72,1.68-2.59,2.52-1.86.75-3.59,1.91-5.73,1.8a.88.88,0,0,1-.48-.45l3.14-2.54c.07-.57.6-.67,1-.93A.48.48,0,0,1,74,9.07c.36-.31.77.19,1.14-.05A.69.69,0,0,1,74.8,8.56Z"/><path class="cls-50" d="M73.72.39c.23,2.14,2.37,3,3.13,4.85a14.39,14.39,0,0,0,1.31,2A2.09,2.09,0,0,1,75,6.76c-.66-2-1.34-3.91-2-5.87C72.72.07,72.85-.37,73.72.39Z"/><path class="cls-51" d="M106.38,27.3c-.12-.6-.65-1.09-.5-1.76-.29-.45-.26-.88.23-1.1a3,3,0,0,1,4.28,2.17,11.09,11.09,0,0,1,.17,3.15,2.3,2.3,0,0,1-.35,1,.67.67,0,0,1-.61.23.94.94,0,0,1-.48-.71c0-2.06-1.1-1.73-2.36-1.15C106.35,28.61,106.82,27.86,106.38,27.3Z"/><path class="cls-52" d="M55,30.46V26.82c-.07-.45.12-.58.53-.45.42,1.35.77,2.77,2.67,2.61.37.44,0,1.09.4,1.53a2.6,2.6,0,0,1,.49,1.81,5.48,5.48,0,0,1-1,.85c-1.64.93-2.68.4-2.84-1.45C55.18,31.29,55.33,30.83,55,30.46Z"/><path class="cls-53" d="M11.79,38.2c.36-2.39,2.7-2.12,4.12-3.09l.52,1.14c-.1,1.68-2.24,2.09-2.36,3.77-.79,0-1.18-.66-1.79-.94C11.94,38.89,11.55,38.72,11.79,38.2Z"/><path class="cls-54" d="M75.78,16.86l-.22.05c-1.45.19-1.3,2.88-3.12,2.18A17.62,17.62,0,0,1,69,16.75,17.73,17.73,0,0,1,75.78,16.86Z"/><path class="cls-55" d="M15.56,33.69l-8.76,0,1.36-1.82a7.64,7.64,0,0,0,5.45.29c1.48-.37,1.3.65,1.83,1.09Z"/><path class="cls-56" d="M34.53,29.09c-.13-.89.32-1.88-.38-2.7a1.53,1.53,0,0,1,.4-1.31c.94,0,1.87-.1,2.81-.08.73,0,.49.5.37.91a4.41,4.41,0,0,0-.93,3.18A3,3,0,0,1,34.53,29.09Z"/><path class="cls-57" d="M106.38,27.3c.63.46.37,1.16.47,1.76,3,1.2,3.07,1.47,2,4.16a1.57,1.57,0,0,1-.61.38c-1.12,0-2.29.36-3.31-.4C106.48,31.51,106.34,29.38,106.38,27.3Z"/><path class="cls-58" d="M11.79,38.2l.49.88c-.79,1.59-1.7,3.17-.48,5a5.56,5.56,0,0,1-3.33-1.7c1.46-1,1.25-3.23,2.88-4.15Z"/><path class="cls-59" d="M56.76,39.16c-1-.61-2-1.14-2.4-2.3-.5-1.61,0-2.65,1.72-3a2.92,2.92,0,0,1,2.25,2.43A14.78,14.78,0,0,1,56.76,39.16Z"/><path class="cls-22" d="M42.7,37.34a5.51,5.51,0,0,1-2.28-.93c-.43-.91-1.29-1.6-1.34-2.7,1.07-1,2.19-.75,3.33-.13L44.14,35C42.39,35,42.39,36.07,42.7,37.34Z"/><path class="cls-60" d="M104.89,33.2l3.77.11a1,1,0,0,1,.18.85,1.77,1.77,0,0,1-1.2,1.26,17.67,17.67,0,0,1-4,2.32c-.71.52-1.62-.07-2.33.42l-.2,0-.2,0c-.62-.12-1.32.14-1.84-.4.8-.87,1.84-.42,2.78-.47a8.3,8.3,0,0,0,5.69-2.83c-1-.8-2.29.15-3-.87Z"/><path class="cls-61" d="M55.44,26.37l-.45.45c-1.29,1.89-1.9,1.89-3.17,0A2.22,2.22,0,0,1,52.25,25a3.39,3.39,0,0,1,3.24-.4,1.52,1.52,0,0,1,.55.49A1.2,1.2,0,0,1,55.44,26.37Z"/><path class="cls-62" d="M110,26.83c-1-2.57-2.59-3.08-4.1-1.29-.18-.31-.37-.62-.56-.93,2.42-.76,4.89-.26,7.33-.3a2.92,2.92,0,0,1,.14.38.54.54,0,0,1-.05.21C113.68,28.19,111,26.3,110,26.83Z"/><path class="cls-63" d="M37.67,19.91c-.05,1.19.15,2.26,1.39,2.82l-.9,1.37a4.8,4.8,0,0,1-3.11,0A6.14,6.14,0,0,1,37.67,19.91Z"/><path class="cls-64" d="M107.76,18.17c-.27,2.65-.81,2.86-3.69,1.39-.11-.72-.24-1.43-.28-2.15a1,1,0,0,1,.28-.54C105.25,17.45,106.66,17.36,107.76,18.17Z"/><path class="cls-65" d="M110,26.83c.38-.52,1.08-1,1.51-.81,1.63.84,1.16-.41,1.25-1.12.56.5.41,1.2.5,1.84s-.09,1.56-.13,2.34a1,1,0,0,1-1,.1c-1.11-.74-1.25.16-1.53.85a.42.42,0,0,1-.55,0Z"/><path class="cls-66" d="M81.8,10c.62.29,1,1,1.81,1,.35.56,0,1.14,0,1.71a2.89,2.89,0,0,1-.14.58,2.33,2.33,0,0,1-.37.46l-.41.58c-.15-.33-.25-.91-.45-.95-1.62-.3-1.81-1.69-2.3-2.85-.21-.51.05-.83.45-1.09C81.1,9.1,81.47,9.49,81.8,10Z"/><path class="cls-67" d="M56.34,34.1a2.64,2.64,0,0,0-2,2.76,6.89,6.89,0,0,1-1.89-3.12c2.5-.93,5.08-.26,7.62-.41l.78.83c0,.73-.56.67-1,.7C58.66,34.64,57.39,34.86,56.34,34.1Z"/><path class="cls-68" d="M98.62,25.88a1.9,1.9,0,0,1-.21.4c-2.21,2.6-2.21,2.6-4.79.55a.66.66,0,0,1,0-.93A19,19,0,0,1,98.62,25.88Z"/><path class="cls-69" d="M6.8,31.37c-1.17-.17-2.35-.32-3.53-.51A2.88,2.88,0,0,1,.93,29.1a1.93,1.93,0,0,1,.51-1.33C2.92,29.43,5.48,29.47,6.8,31.37Z"/><path class="cls-70" d="M54,21.36l2.3,1.83-.46,1.27-.25.27a11.14,11.14,0,0,1-3.31-.12A6.84,6.84,0,0,1,54,21.36Z"/><path class="cls-71" d="M66.83,40.44c-.17-1.13-1-1.69-1.87-2.27.65-1,1.88-1.65,2.14-3,1.5,1.56.5,3.42.62,5.15C67.46,40.76,67.15,40.68,66.83,40.44Z"/><path class="cls-72" d="M55.9,25.47,55.84,25c-.13-.09-.17-.17-.12-.25s.1-.11.14-.11l0-.19,3.94.25c-1.25,1.76-1.32,3.76-1.23,5.8-.47-.37-.42-.91-.47-1.42-.7-.76-.29-2.48-2.14-2.32C55.57,26.81,55.59,26,55.9,25.47Z"/><path class="cls-73" d="M38.17,32.74A4.69,4.69,0,0,1,37.71,30a4,4,0,0,1,2.68-.89c.12.62-.14,1.34.5,1.82l.18.41C40.53,32.7,39.68,33.4,38.17,32.74Z"/><path class="cls-74" d="M108.6,34.09l.06-.78v-.19a2.7,2.7,0,0,1,.59-.35,6.22,6.22,0,0,1,3.37.07,5.21,5.21,0,0,1-1.37,3.07C109.57,36.45,109.28,35,108.6,34.09Z"/><path class="cls-75" d="M60,34.55l.89-.39.94.46c0,.07.09.15.07.2-.89,2-.89,2,1.26,3a6.37,6.37,0,0,1-3.49-.11,2.24,2.24,0,0,1-.79-.71C58.38,35.78,58.1,34.66,60,34.55Z"/><path class="cls-76" d="M60.09,33.33c-2.51.64-5.1-.07-7.62.41-.12-.31-.23-.63-.34-1,2.44.58,2.77.31,2.86-2.33.41.29.37.74.46,1.17.35,1.71,1.15,2,2.52.89.44-.36.68-.41,1.11-.2Z"/><path class="cls-77" d="M93.62,25.9v7.29l-.69.14c0-2.07-.07-4.15-.07-6.22C92.86,26.59,92.6,25.81,93.62,25.9Z"/><path class="cls-78" d="M112.61,32.84a6.2,6.2,0,0,1-3.49.29c-.53-.86.25-1.47.42-2.2l.41,0c.78-.57,1.54-.14,2.3.05a1.34,1.34,0,0,1,.53.44Z"/><path class="cls-79" d="M59.55,37.26a10.43,10.43,0,0,0,3.59.54c0,.12,0,.24.07.36-1.82-.27-3,.35-3.25,2.3a2.55,2.55,0,0,1-2.3-.89C58.37,38.86,58.21,37.45,59.55,37.26Z"/><path class="cls-80" d="M59.55,37.26c-.79.64-.23,2.38-1.89,2.31-.36,0-.73,0-.9-.41a2.56,2.56,0,0,1,1.41-2.8c.51-.28.64.21.9.44Z"/><path class="cls-81" d="M50,52.28l.91-.93,5.47,1c.25.17.23.4.19.65C54.26,53.67,52.19,52.37,50,52.28Z"/><path class="cls-82" d="M38.17,32.74a5.55,5.55,0,0,0,2.9-1.39l1.34,2.23-3.33.13-1.36-.17c-.15-.08-.2-.16-.16-.23s.1-.12.15-.12Z"/><path class="cls-83" d="M80.46,9.56l-.47.9v1.82c-2-.29-2.22,1-2.3,2.48l-.47-1a1.36,1.36,0,0,1-.25-.53c.14-1,1.08-1.88.61-3a2.64,2.64,0,0,1,2-.91C79.86,9.34,80.21,9.29,80.46,9.56Z"/><path class="cls-84" d="M108.6,34.09c1.24.09,1.3,1.88,2.64,1.82-.33.74-.7,1.44-1.66,1.47a4.73,4.73,0,0,0-1.93-2Z"/><path class="cls-85" d="M75,6.76c1,.73,2.12.48,3.21.52h.45c.31.6.62,1.2.92,1.8l-.23.2c-.41.13-.81.21-1.13-.19a5.32,5.32,0,0,0-2.9-1,.52.52,0,0,0-.19-.39c-.08-.25-.15-.51-.22-.77l0-.12Z"/><path class="cls-86" d="M5,34.55A10,10,0,0,1,2,36.86a1.7,1.7,0,0,1-.82-1.35,1.64,1.64,0,0,1,2.39-1L5,34.11c.16.1.22.2.16.3S5,34.55,5,34.55Z"/><path class="cls-87" d="M112.78,31.39l-.52,0c-.48-.63-1.36-.72-1.82-1.36,0-3,1.66-1,2.67-.93.15.62-.64,1.28.1,1.87Z"/><path class="cls-88" d="M94.5,39.52c2,1,4.12.23,6.17.49.75.1,1.75-.39,2,.83h-.89c-2.72-.5-5.49.23-8.2-.38Z"/><path class="cls-89" d="M93.62,20.91l-.45,1.33a10.82,10.82,0,0,1-.07-5.45.47.47,0,0,1,.69.06,2.22,2.22,0,0,1,.4,1.09A4.29,4.29,0,0,1,93.62,20.91Z"/><path class="cls-90" d="M91,56.79c.75,0,1.55-.33,2.15.41a.45.45,0,0,1-.09.68,11.74,11.74,0,0,1-3.55-.08l-1.36-.11a.66.66,0,0,1,.11-1A6.84,6.84,0,0,1,91,56.79Z"/><path class="cls-91" d="M93.53,16.9a1,1,0,0,1-.43-.11,29.22,29.22,0,0,1,9.74,0c-.64.81-1.59.62-2.44.75C98.11,17.36,95.74,18.06,93.53,16.9Z"/><path class="cls-92" d="M93.62,40.46c2.72.24,5.5-.5,8.2.38-2.54,0-5.07.11-7.61.1-.48,0-1.29.36-1.31-.67Z"/><path class="cls-93" d="M77.18,13.24l0,.51c-2.52,0-5,0-7.56-.05-.34,0-.86.11-.9-.35,0-.23.47-.48.73-.72a.28.28,0,0,0,.05.26c1.22.29,2.37-.3,3.55-.32C74.48,12.55,76,12.15,77.18,13.24Z"/><path class="cls-94" d="M91,56.79l-2.86.07c-.61.67-1.64.16-2.26.81a1.83,1.83,0,0,1-1.82-.46c0-1,.81-.73,1.38-.84A18.22,18.22,0,0,1,91,56.79Z"/><path class="cls-95" d="M12.26,24.56H4l.12-.46h8.14C12.27,24.26,12.26,24.41,12.26,24.56Z"/><path class="cls-96" d="M83.15,13.68v-.52c1.43-1,3-.55,4.53-.48a9.63,9.63,0,0,0,1.08.07c.54,0,1.08.45,1.64,0a.32.32,0,0,0,0-.27c.91,1.15.06,1.14-.75,1.14Z"/><path class="cls-97" d="M93.18,57.63c0-.14,0-.28,0-.43l1.31,0a6.78,6.78,0,0,1,3.35,0c.9.09,1.9-.4,2.66.47l-4.61.11A3.43,3.43,0,0,1,93.18,57.63Z"/><path class="cls-98" d="M99.05,26.8l-.12-.92c.89-.07.7.61.69,1.08,0,2.11-.05,4.21-.09,6.32a.62.62,0,0,1-.72-.29A9.15,9.15,0,0,1,99.05,26.8Z"/><path class="cls-99" d="M12.69,44.57l2.75.44c.61.27,1.83-.08,1.37,1.31A11.75,11.75,0,0,1,12.69,44.57Z"/><path class="cls-100" d="M91.31,16.84l-.81.09-6.07-.15A13.71,13.71,0,0,1,91.31,16.84Z"/><path class="cls-101" d="M66.83,40.44l.89-.09c-1.13,1.75-2.71.46-4.08.6-.16-.1-.22-.21-.17-.32s.1-.16.15-.16Z"/><path class="cls-102" d="M82.71,40.45l.92.32a25.18,25.18,0,0,1-7,.13l.52-.51A6.16,6.16,0,0,1,82.71,40.45Z"/><path class="cls-103" d="M93.18,57.63l2.7.18c0,.1,0,.21,0,.31-2.13,0-4.27.29-6.36-.32Z"/><path class="cls-104" d="M49.08,40.51V40c0-.11,0-.22,0-.32-.35-1.27.33-2.51.11-3.77,0-.14,0-.27,0-.41.23-.35.49-.3.77-.05l0,5A.6.6,0,0,1,49.08,40.51Z"/><path class="cls-105" d="M49.08,40.51l.9-.09c.14.66-.14,1-.8.93-1.46-.08-2.94.18-4.36-.36a3,3,0,0,1,2.42-.13C47.87,40.85,48.57,41.15,49.08,40.51Z"/><path class="cls-106" d="M75,56.34l2.66.07a.51.51,0,0,1,.12.82l-1.45,0c-1-.43-2.16.11-3.19-.34H73C73.38,55.7,74.22,56.18,75,56.34Z"/><path class="cls-107" d="M77.76,57.23l-.12-.82,3.71,0a.51.51,0,0,1,0,.59,3.08,3.08,0,0,1-1.91.29Z"/><path class="cls-108" d="M47.24,40.86,44.82,41c-.9-.09-1.86.14-2.66-.49C43.85,40.63,45.6,40,47.24,40.86Z"/><path class="cls-109" d="M81.35,56.8v-.42h0a8.53,8.53,0,0,1,4.11,0h0l-1.38.84-.91.13C82.55,57.2,81.82,57.45,81.35,56.8Z"/><path class="cls-106" d="M71.79,55.9l.89,0a.8.8,0,0,1,.18.92l-1,0c-1-.5-2.1,0-3.12-.3a.57.57,0,0,1-.14-.65,1.35,1.35,0,0,1,.71-.16C70.1,55.79,71,55.49,71.79,55.9Z"/><path class="cls-110" d="M3.61,34.55c-1-.19-1.61.61-2.39,1a.78.78,0,0,1-.37-.79A1.87,1.87,0,0,1,3.61,34.55Z"/><path class="cls-111" d="M99.08,33.16l.45.12c0,.65,0,1.3,0,1.95l-.44-.3c-.72-.83-2-.51-2.74-1.27l-.37-.3a1.18,1.18,0,0,1,.41-.19,2.11,2.11,0,0,1,2.06-.39A3,3,0,0,1,99.08,33.16Z"/><path class="cls-112" d="M85.9,57.67c.35-1.39,1.47-.65,2.26-.81,0,.28,0,.55,0,.83Z"/><path class="cls-106" d="M81.35,56.8c.62.15,1.37-.17,1.82.54-.19.47-.57.38-.94.31-.88-.37-1.84.08-2.71-.3l-.13-.09C79.93,56.64,80.68,56.89,81.35,56.8Z"/><path class="cls-113" d="M50,35.47l-.77.05c-1.14-.12-2.36.26-3.41-.51C47.16,35.16,48.64,34.56,50,35.47Z"/><path class="cls-114" d="M64.53,16.8c-1.31.95-2.8.3-4.2.44A9,9,0,0,1,64.53,16.8Z"/><path class="cls-115" d="M68.6,56.3c1.05.27,2.24-.33,3.21.51a11,11,0,0,1-4.24-.39A.76.76,0,0,1,68.6,56.3Z"/><path class="cls-116" d="M85.45,56.36H81.34a1.31,1.31,0,0,0-.07-.44A9.57,9.57,0,0,1,85.45,56.36Z"/><path class="cls-117" d="M55.86,24.65a1.45,1.45,0,0,1,0,.36H52.25a.35.35,0,0,1,.07-.41Z"/><path class="cls-118" d="M58.09,55.5c1.25.08,2.58-.47,3.74.43A8.35,8.35,0,0,1,58.09,55.5Z"/><path class="cls-64" d="M100.53,16.89l2.31-.13,1.23.11v.41C102.8,18,101.54,18.58,100.53,16.89Z"/><path class="cls-119" d="M68.6,56.3l-1,.12-2.17-.14c-.13-.09-.16-.17-.11-.25s.09-.11.13-.11H66.8a1.7,1.7,0,0,1,1.79,0C68.6,56.06,68.6,56.18,68.6,56.3Z"/><path class="cls-120" d="M35.05,24.1h3.11c0,.13,0,.26,0,.39l-3.19,0A.65.65,0,0,1,35.05,24.1Z"/><path class="cls-121" d="M63.62,40.47c0,.16,0,.32,0,.48a6.5,6.5,0,0,1-3.43-.46Z"/><path class="cls-122" d="M37.71,33.19c0,.12,0,.23,0,.35l-3,.18c0-.17-.09-.35-.13-.53Z"/><path class="cls-123" d="M97.83,57.23l-3.35,0C95.59,56.5,96.71,56.83,97.83,57.23Z"/><path class="cls-124" d="M73.12,56.87c1.08,0,2.19-.38,3.19.34A5.71,5.71,0,0,1,73.12,56.87Z"/><path class="cls-125" d="M77.29,33.23c0,.1,0,.21-.06.31l-3,.14-.09-.5Z"/><path class="cls-126" d="M79.52,57.35c.92-.06,1.87-.37,2.71.3A4.34,4.34,0,0,1,79.52,57.35Z"/><path class="cls-127" d="M63.14,53.62c-.91-.07-1.88.35-2.69-.37A3.76,3.76,0,0,1,63.14,53.62Z"/><path class="cls-127" d="M66,54.05c-.94-.06-2,.44-2.8-.41A4.58,4.58,0,0,1,66,54.05Z"/><path class="cls-128" d="M72.8,55c-1-.07-2,.35-2.85-.4A4.83,4.83,0,0,1,72.8,55Z"/><path class="cls-128" d="M76.45,55.44c-1-.07-2,.36-2.85-.39A5,5,0,0,1,76.45,55.44Z"/><path class="cls-61" d="M51.75,27.58v3A3.39,3.39,0,0,1,51.75,27.58Z"/><path class="cls-128" d="M72.86,56.86l-.18-.92c.78.05,1.63-.31,2.3.4-.7.06-1.48-.17-2,.53Z"/><path class="cls-129" d="M80.58,55.89h-3C78.57,55,79.58,55.57,80.58,55.89Z"/><path class="cls-130" d="M65.43,55.92a1.45,1.45,0,0,1,0,.36A5.54,5.54,0,0,1,62.53,56Z"/><path class="cls-7" d="M45.31,10l1.43.25c-1.16.32-1.94.49-2.65-.14Z"/><path class="cls-7" d="M48.49,9.49l1.41.26c-1.14.31-1.92.48-2.63-.14Z"/><path class="cls-131" d="M51.6,54.58c.85,0,1.77-.3,2.51.41A3.91,3.91,0,0,1,51.6,54.58Z"/><path class="cls-132" d="M56.55,53c-.06-.21-.13-.43-.19-.65.64,0,1.35-.27,1.76.51A2.3,2.3,0,0,0,56.55,53Z"/><path class="cls-2" d="M36.78,11.32c-.68.87-1.61.38-2.45.46A4.52,4.52,0,0,1,36.78,11.32Z"/><path class="cls-133" d="M42.15,10.41l1.4.23c-1,.35-1.64.45-2.2-.14Z"/><path class="cls-2" d="M14.52,22.28a1.88,1.88,0,0,1,1-2.43c2.37-.78,4.16-2.64,6.55-3.3.47-.13,1.81-1.17,1.56.71A85.68,85.68,0,0,0,14.52,22.28Z"/><path class="cls-2" d="M28.17,15.46c.25-.76.61-1.17,1.36-.45C29.19,15.52,28.67,15.45,28.17,15.46Z"/><path class="cls-134" d="M74.8,8.56c.33.14.9.42.74.67-.49.72-1-.05-1.51-.16Z"/><path class="cls-135" d="M100.53,16.89c1.11.79,2.37.21,3.54.39.33.76.87,1.52,0,2.28a39.2,39.2,0,0,0-8.17-.44c-1.42.62-1.71-.61-2.27-1.39,0-.28-.06-.55-.1-.83Z"/><path class="cls-136" d="M93.63,17.73c.83.34,1.22,1.4,2.27,1.39l-2.28,1.79Z"/><path class="cls-137" d="M68.59,55.94l-1.79,0v-.44l2.23,0c.15,0,.22.13.2.23s-.06.16-.1.16Z"/><path class="cls-138" d="M3.66,25l6.82,0c.62,0,1.33-.09.88.93C9.76,26.87,9.67,29,8.19,30c-.43-.28-.45-.73-.48-1.18-.13-2.07-.69-3.71-3.3-3.42C4.18,25.45,3.91,25.16,3.66,25Z"/><path class="cls-128" d="M69.13,55.89c0-.13-.07-.26-.1-.39.93.07,1.94-.38,2.76.4Z"/><path class="cls-139" d="M96.36,33.66c1,.28,2.61-.83,2.74,1.27l-1.39,1c-.66.41-1,.15-1.11-.55a3,3,0,0,0,.19-.35c.07-.21.37-.26.34-.53a3.31,3.31,0,0,1-.34.52.27.27,0,0,1-.46,0C95.64,34.57,96.19,34.12,96.36,33.66Z"/><path class="cls-140" d="M96.33,35l.47,0h0c0,.61.33.88.91.91C96.47,36.86,96.37,36,96.33,35Z"/><path class="cls-141" d="M80.81,37.22c.86.77,1.81,1.49,1.9,2.79-1.45.47-2.94.13-4.42.19a.53.53,0,0,1-.61-.68C78.34,38.22,79,37,80.81,37.22Z"/><path class="cls-142" d="M82.72,34.1c.18,1.48-1,2-1.91,2.72-2.38,0-2.27-1.15-1.28-2.72A5,5,0,0,1,82.72,34.1Z"/><path class="cls-143" d="M77.68,39.52c1.59,1,3.36.24,5,.49v.44l-5.55-.06C77.33,40.1,77.5,39.81,77.68,39.52Z"/><path class="cls-144" d="M82.72,34.1H79.53c0-.14,0-.27,0-.41C80.62,33.74,81.77,33.15,82.72,34.1Z"/><path class="cls-85" d="M80.46,9.56l-.94,0c-.15-.1-.2-.19-.15-.29s.11-.14.16-.14h0c1.33.11,1.26-1.52,2.27-1.8.13,1.22,1.12.78,1.81.93-.19,1-1.78.58-1.81,1.75Z"/><path class="cls-145" d="M85,33.84a1.28,1.28,0,0,1-1.49.07A1.29,1.29,0,0,1,85,33.84Z"/><path class="cls-32" d="M101.29,38.16c.69-.58,1.53-.39,2.33-.42C103,38.5,102.08,38.11,101.29,38.16Z"/><path class="cls-146" d="M9.53,34.55H8.16C8,34.46,8,34.36,8,34.26s.1-.14.15-.14h6.72v.43Z"/><path class="cls-147" d="M8.16,34.12c0,.14,0,.29,0,.43H5v-.44Z"/><path class="cls-148" d="M98.62,33.16H96.4c-.14-2.05-.44-4.15,1.73-5.46.65-.06.73.39.7.85C98.74,30.09,99.09,31.65,98.62,33.16Z"/><path class="cls-149" d="M98.62,33.16c-.25-1.81.52-3.71-.49-5.45l.92-.91,0,6.36Z"/><path class="cls-150" d="M89.08,13.16h-1c-1.62-.56-3.34.15-5-.41a3,3,0,0,1,.44-1.82c1.78.08,3.32,1,5,1.41C88.91,12.54,89.32,12.66,89.08,13.16Z"/><path class="cls-151" d="M89.08,13.16c-.16-.27-.31-.54-.46-.82l1.79.43C90.1,13.36,89.55,13.14,89.08,13.16Z"/><path class="cls-152" d="M49.07,40l-2.73-1.8a3.32,3.32,0,0,0,2.24-1c1.43.69.52,1.8.5,2.75Z"/><path class="cls-153" d="M49.08,40c-.16-.92.37-2-.5-2.75.19-.44.39-.88.58-1.31A4.57,4.57,0,0,1,49.08,40Z"/><path class="cls-154" d="M40.39,29.12c-.64,1.07-1.69.89-2.68.89-.32-.76-.82-1.51,0-2.28C38.52,28.34,40.71,26.28,40.39,29.12Z"/><path class="cls-155" d="M34.53,29.09a1.91,1.91,0,0,1,2.27,0c-.21.82.59,2.23-1,2.21C34.35,31.28,34.56,30.05,34.53,29.09Z"/><path class="cls-156" d="M77.18,13.24c-2.54-.28-5.12.35-7.64-.35a31.56,31.56,0,0,0,5.89-2c.74-.21,1.38-.88,2.26-.5C79.69,11.75,77.2,12.27,77.18,13.24Z"/><path class="cls-134" d="M77.69,10.43l-2.26.5L78.17,9.1h1.36c0,.14,0,.29,0,.43Z"/><path class="cls-157" d="M109.54,30.93l-.42,2.2h-.47a7.88,7.88,0,0,1,.2-1.29c.34-1.1.36-2-1.18-1.73-1.08.19-.81-.49-.82-1,.47-.69.78-1.64,1.94-1.27s.62,1.32.73,2.05A9.87,9.87,0,0,1,109.54,30.93Z"/><path class="cls-158" d="M110.44,30c1,0,1.75.18,1.82,1.36L110,30.9c0-.3,0-.59,0-.89Z"/><path class="cls-159" d="M55.9,25.47l.12.87c3-.89,1.91,1.44,2.1,2.75-2.68.74-2.68.74-2.68-2.72A.92.92,0,0,1,55.9,25.47Z"/><path class="cls-160" d="M59.07,36.8l-.9-.44L56.34,34.1c1.21.2,2.52-.45,3.64.45A1.56,1.56,0,0,0,59.07,36.8Z"/><path class="cls-151" d="M83.17,12.75c1.65.21,3.37-.49,5,.41h-5C83.17,13,83.17,12.88,83.17,12.75Z"/><path class="cls-161" d="M96.8,35c.1-.88.63-1,1.55-.75L96.8,35Z"/></g></g></svg>