<svg xmlns="http://www.w3.org/2000/svg" viewBox="0 0 1366 697"><defs><style>.cls-1{fill:#fff;opacity:0.07;}</style></defs><title>united-cheer-sports-dortmund-footer-bg</title><g id="Ebene_2" data-name="Ebene 2"><g id="Ebene_1-2" data-name="Ebene 1"><rect width="1366" height="696"/><path d="M870.08,115c3,21.12,5.74,42.32,10.15,63.16,4.75,22.5,17.61,31.06,39.69,26.11,17.68-4,35-9.92,52.14-15.92,77-27,153-57.2,231-80.5,63-18.81,113,8.12,131.87,71.27,15.29,51.07,21.52,105,29.61,158,.51,3.35,1,6.71,1.41,10.07V0H980L927,19.3C869.17,40.33,861.32,53.4,870.08,115Z"/><path d="M0,697H61C40.12,552.88,20.62,408.57,0,264.41Z"/><path d="M148.25,150.62c4,26.36,7.75,50,11.1,73.74Q192.65,460.17,225.88,696H340.12c-3.41-22.84-6.79-45.42-10-68-17.43-121.33-35-242.65-51.87-364.06-2.6-18.72-2.92-37.89-2.74-56.83.57-58.34,32-98.74,82.78-119.65C429.74,58,505.74,28.73,580.91,0H0V206.23c2.9-2.63,7-4.69,12.52-6.57C56.65,184.64,100.26,168.09,148.25,150.62Z"/><path d="M1366,474.85c-11.09,37.57-38.34,64.93-78.51,82.77-39.64,17.61-80.38,32.86-121,48-63.85,23.85-128.06,46.77-192.11,70.08l-26.51,9.65c-6.9-48.21-13.46-94.11-20.43-142.82,9.45-3.43,18.2-6.55,26.91-9.8,72.75-27.12,145.57-54.07,218.21-81.49,26.29-9.93,38.33-29.45,35-57.67-3.64-30.59-6.49-61.32-11.7-91.65-4.43-25.78-22.83-33.94-50.85-23.86-70.86,25.47-141.19,52.5-212.5,76.62-28.15,9.52-58.11,16.47-87.65,18.42-48.32,3.2-105.65-19.3-116.31-94.12q-14.7-103.26-25.76-207c-2.87-26.85-.42-50.93,7-72h-19.9c-8.56,28.63-8.84,58.81-6.64,89.62.39,5.33-6.38,14.39-11.82,16.43-54.14,20.35-108.78,39.38-163.1,59.25-17,6.22-34.16,12.66-50.1,21.16-23.37,12.46-33.4,33.73-30.25,59.64,6.66,54.94,14.16,109.79,22,164.58q16.38,115.1,33.81,230.05c1.76,11.65,5.37,23,8.62,36.58L441,696H500l13.16-5.1c26.82-10.36,37.39-29.24,33.62-61.15-8.63-73-19-145.72-28.9-218.52-9.07-66.56-18.78-133-27.35-199.65-.89-6.85,2.23-19.24,6.67-21,47-18.48,94.69-35.31,145.5-53.81C656.61,234.88,670,328.71,683.1,422.57c9.53,68.07,20.28,136,27.78,204.3,3,27,2.89,49.72-.06,62.13h16c2.21-4.17,4-15.45,5-26.8,3.93-44,1.14-44.22,44.23-59.9l133.25-48.5c6.83,48.65,12.72,90.58,18.66,132.87L902.39,696H1366Z"/><path class="cls-1" d="M702.72,72q11.07,103.72,25.76,207c10.66,74.82,68,97.32,116.31,94.12,29.54-1.95,59.5-8.9,87.65-18.42,71.31-24.12,141.64-51.15,212.5-76.62,28-10.08,46.42-1.92,50.85,23.86,5.21,30.33,8.06,61.06,11.7,91.65,3.35,28.22-8.69,47.74-35,57.67-72.64,27.42-145.46,54.37-218.21,81.49-8.71,3.25-17.46,6.37-26.91,9.8,7,48.71,13.53,94.61,20.43,142.82l26.51-9.65c64.05-23.31,128.26-46.23,192.11-70.08,40.67-15.19,81.41-30.44,121-48,40.17-17.84,67.42-45.2,78.51-82.77V347.25c-.44-3.36-.9-6.72-1.41-10.07-8.09-53-14.32-107-29.61-158-18.92-63.15-68.87-90.08-131.87-71.27-78.07,23.3-154.06,53.54-231,80.5-17.15,6-34.46,12-52.14,15.92-22.08,4.95-34.94-3.61-39.69-26.11-4.41-20.84-7.15-42-10.15-63.16C861.32,53.4,869.17,40.33,927,19.3L980,0H709.77C702.3,21.06,699.85,45.14,702.72,72Z"/><path class="cls-1" d="M710.88,626.87c-7.5-68.29-18.25-136.23-27.78-204.3C670,328.71,656.61,234.88,642.74,136.79c-50.81,18.5-98.48,35.33-145.5,53.81-4.44,1.74-7.56,14.13-6.67,21,8.57,66.62,18.28,133.09,27.35,199.65,9.93,72.8,20.27,145.56,28.9,218.52,3.77,31.91-6.8,50.79-33.62,61.15L500,696H710.82C713.77,676.59,713.84,653.87,710.88,626.87Z"/><path class="cls-1" d="M159.35,224.36c-3.35-23.72-7.12-47.38-11.1-73.74-48,17.47-91.6,34-135.73,49C7,201.54,2.9,203.6,0,206.23v57.18C20.62,407.57,40.12,551.88,61,696H225.88Q192.34,460.21,159.35,224.36Z"/><path class="cls-1" d="M275.48,207.1c-.18,18.94.14,38.11,2.74,56.83C295.11,385.34,312.66,506.66,330.09,628c3.24,22.59,6.62,45.17,10,68H441l51.36-18.69c-3.25-13.57-6.86-24.93-8.62-36.58q-17.28-115-33.81-230C442.12,355.89,434.62,301,428,246.1c-3.15-25.91,6.88-47.18,30.25-59.64,15.94-8.5,33.08-14.94,50.1-21.16,54.32-19.87,109-38.9,163.1-59.25,5.44-2,12.21-11.1,11.82-16.43-2.2-30.81-1.92-61,6.64-89.62h-109C505.74,28.73,429.74,58,358.26,87.45,307.5,108.36,276.05,148.76,275.48,207.1Z"/><path class="cls-1" d="M909.37,553.8,776.12,602.3C733,618,735.82,618.23,731.89,662.2a321,321,0,0,1-5,33.8H902.39L928,686.67C922.09,644.38,916.2,602.45,909.37,553.8Z"/></g></g></svg>