<svg xmlns="http://www.w3.org/2000/svg" viewBox="0 0 35 40.72"><defs><style>.cls-1{fill:#fff;}</style></defs><title>united-cheer-sports-mobile-menu-training</title><g id="Ebene_2" data-name="Ebene 2"><g id="Ebene_1-2" data-name="Ebene 1"><path class="cls-1" d="M11.26,1.7S15.1,8,15.12,8c.24-.62.47-1.24.7-1.86a17.28,17.28,0,0,1,.62-1.7,4.21,4.21,0,0,1,3.11-2.27A3.77,3.77,0,0,1,23.2,3.45a4.22,4.22,0,0,1,1.18,3.07,14.57,14.57,0,0,0,.27,3.36.47.47,0,0,1,0,.12,2.88,2.88,0,0,1-2.4-.62c-.4.22-.79.45-1.19.65a2.34,2.34,0,0,1-2.89-.47c-.26-.26-.5-.54-.76-.8a.26.26,0,0,0-.21-.08,4.08,4.08,0,0,1-1.61.16l.13.22c.34.57.69,1.13,1,1.71a.94.94,0,0,0,.87.48h5a5.11,5.11,0,0,1,.78.05,2.09,2.09,0,0,1,1.08.46c.88.68,7.5,5.14,9.09,6.08l.18.08.11.08.05,0h0a1.29,1.29,0,0,1,.44,1.65,1.32,1.32,0,0,1-1.82.37,1.63,1.63,0,0,1-.29-.23c-1.53-1-6.19-3.56-7.07-4.23l-.23-.17a16.5,16.5,0,0,1-.75,2.8,22.78,22.78,0,0,0-.53,4.94.81.81,0,0,1,0,.15H16.38c0-.5,0-1,0-1.47a21.43,21.43,0,0,0-.56-3.91,15.38,15.38,0,0,0-.51-1.49,3,3,0,0,1,.12-2.3.38.38,0,0,0,0-.29c-1.54-2.54-5.3-8.71-6.85-11.24,0,0-.91-1.36,0-2.27C8.54.34,9.9-1,11.26,1.7Z"/><path class="cls-1" d="M23.71,24.47c-2.41,0-4.81,0-7.22,0a2,2,0,0,0-1.56.52l-.06,0L9.1,28.89,7.43,30l0,0H26.94c-.23-.4-.44-.78-.66-1.15A39.88,39.88,0,0,1,24,24.69.31.31,0,0,0,23.71,24.47Z"/><path class="cls-1" d="M34.24,37.33,27,31.38a.62.62,0,0,0-.41-.14H20.91l.33.28,4.48,3.66c2.08,1.7,4.16,3.41,6.24,5.1a1.77,1.77,0,0,0,1.84.31A1.87,1.87,0,0,0,34.24,37.33Z"/><path class="cls-1" d="M18.28,31.24H5.53a.86.86,0,0,0-.27.05L1.39,32.43a1.7,1.7,0,0,0-.44.18A1.85,1.85,0,0,0,.16,35a1.87,1.87,0,0,0,2.28,1L18,31.45c.14,0,.28-.1.42-.15l0-.05Z"/></g></g></svg>