<svg xmlns="http://www.w3.org/2000/svg" viewBox="0 0 130.32 220.05"><defs><style>.cls-1{fill:#c1ff2e;stroke:#000;stroke-miterlimit:10;stroke-width:4px;}</style></defs><title>united-cheer-sports-dortmund-maps-marker</title><g id="Ebene_2" data-name="Ebene 2"><g id="Ebene_1-2" data-name="Ebene 1"><path class="cls-1" d="M127.36,64.2c0-1.24,0-2.47-.12-3.69l.12-.29h-.14a62.19,62.19,0,0,0-124.12,0H3l.12.29C3,61.73,3,63,3,64.2A61.86,61.86,0,0,0,13.45,98.75a201.89,201.89,0,0,1,19.8,36.68l31.91,79.26,31.91-79.26a201.27,201.27,0,0,1,19.8-36.68A61.86,61.86,0,0,0,127.36,64.2Z"/><path d="M73.24,87.48l2-9.63h2c5.29,0,10.59-.07,15.88-.14a3.41,3.41,0,0,0,3.59-2.87c.48-2,1-4.09,1.38-6.15.32-1.76-.67-2.71-2.7-2.72-5.13,0-10.27.08-15.4,0a23.71,23.71,0,0,1-6-.87c-3.17-.92-6.32-3.7-5.26-8.74q1.47-7,3.18-13.87c1.24-5,4.64-7.65,9.69-7.72,11.57-.16,23.13-.1,34.7-.13,0,0,.09,0,.31.18-.61,2.92-1.2,5.91-1.93,8.86-.08.33-1,.63-1.55.64-8.54,0-17.08,0-25.62,0-4.19,0-5,.66-5.88,4.81-.3,1.43-.62,2.85-.82,4.29A2,2,0,0,0,82.67,56a33,33,0,0,0,3.72.19c5.56.07,11.13-.09,16.68.23,4.48.27,7.05,3.16,6.79,7.65a78.36,78.36,0,0,1-1.79,10.81,51.07,51.07,0,0,1-1.7,6.07c-1.34,4-4.29,6-8.38,6.26-2.95.2-5.92.23-8.88.26-4.65,0-9.3,0-14,0Z"/><path d="M66.49,45.21c-1.4,6.6-2.73,12.93-4.08,19.25-1,4.58-1.87,9.19-3,13.74-1.85,7.58-5.39,9-11.56,9.21-8.64.22-17.28.1-25.92,0a17.93,17.93,0,0,1-4.75-.82c-2.41-.7-3.63-2.21-3.38-4.67a110.56,110.56,0,0,1,1.73-11.47c2.37-11.5,4.9-23,7.29-34.47.25-1.16.68-1.49,1.81-1.47,3.17.07,6.35,0,9.84,0-.36,1.78-.67,3.38-1,5q-3.52,16.6-7,33.21c-.92,4.37-.67,4.87,3.77,5,5,.17,10,0,15.06-.08,2,0,3.08-1,3.58-3.13C50,69.68,51,64.78,52.09,59.88c1-4.48,1.9-9,2.9-13.43.1-.46.59-1.18.92-1.19C59.35,45.17,62.8,45.21,66.49,45.21Z"/><path d="M75.11,35.21s.62-.26.57-.38c-8.51.17-17.77.22-26.27.58a8.49,8.49,0,0,0-8.1,5.73,27,27,0,0,0-1.15,3.71C38.41,53,36.71,61.21,35,69.39c-.48,2.29-.94,4.59-1.42,6.94H44.24c.11-.94.14-1.75.3-2.54q1.58-7.77,3.2-15.53c.78-3.69,1.58-7.38,2.43-11.06a3.82,3.82,0,0,1,3.33-3.12,27,27,0,0,1,3.71-.18c3.94,0,7.89.05,11.83,0a1.46,1.46,0,0,0,1.14-.77C71.07,40,72.29,37.15,75.11,35.21Z"/><path d="M71.94,87.1H56.18A61.81,61.81,0,0,0,60,81c1.27-2.72,1.1-2.8,4.23-2.8h9.67C73.15,81.42,72.55,84.25,71.94,87.1Z"/></g></g></svg>