<svg xmlns="http://www.w3.org/2000/svg" viewBox="0 0 1366 696"><defs><style>.cls-1{fill:#c1ff2e;}.cls-2{opacity:0.4;}.cls-3{fill:#fff;}</style></defs><title>united-cheer-sports-dortmund-instagram-bg_1</title><g id="Ebene_2" data-name="Ebene 2"><g id="Ebene_1-2" data-name="Ebene 1"><polygon points="0 0 0 1 580.91 1 689.87 1 709.77 1 980 1 1366 1 1366 0 0 0"/><path class="cls-1" d="M927,20.3c-57.78,21-65.63,34.1-56.87,95.74,3,21.12,5.74,42.32,10.15,63.16,4.75,22.5,17.61,31.06,39.69,26.11,17.68-4,35-9.92,52.14-15.92,77-27,153-57.2,231-80.5,63-18.81,113,8.12,131.87,71.27,15.29,51.07,21.52,105,29.61,158,.51,3.35,1,6.71,1.41,10.07V1H980Z"/><path class="cls-1" d="M0,264.41V696H60.85C40,552.22,20.57,408.23,0,264.41Z"/><path class="cls-1" d="M148.25,151.62c4,26.36,7.75,50,11.1,73.74Q192.58,460.67,225.73,696H340c-3.37-22.5-6.7-44.75-9.89-67-17.43-121.33-35-242.65-51.87-364.06-2.6-18.72-2.92-37.89-2.74-56.83.57-58.34,32-98.74,82.78-119.65C429.74,59,505.74,29.73,580.91,1H0V207.23c2.9-2.63,7-4.69,12.52-6.57C56.65,185.64,100.26,169.09,148.25,151.62Z"/><path class="cls-1" d="M1287.49,558.62c-39.64,17.61-80.38,32.86-121,48-63.85,23.85-128.06,46.77-192.11,70.08l-26.51,9.65c-6.9-48.21-13.46-94.11-20.43-142.82,9.45-3.43,18.2-6.55,26.91-9.8,72.75-27.12,145.57-54.07,218.21-81.49,26.29-9.93,38.33-29.45,35-57.67-3.64-30.59-6.49-61.32-11.7-91.65-4.43-25.78-22.83-33.94-50.85-23.86-70.86,25.47-141.19,52.5-212.5,76.62-28.15,9.52-58.11,16.47-87.65,18.42-48.32,3.2-105.65-19.3-116.31-94.12q-14.7-103.26-25.76-207c-2.87-26.85-.42-50.93,7-72h-19.9c-8.56,28.63-8.84,58.81-6.64,89.62.39,5.33-6.38,14.39-11.82,16.43-54.14,20.35-108.78,39.38-163.1,59.25-17,6.22-34.16,12.66-50.1,21.16-23.37,12.46-33.4,33.73-30.25,59.64,6.66,54.94,14.16,109.79,22,164.58q16.38,115.1,33.81,230.05c1.76,11.65,5.37,23,8.62,36.58L443.73,696h58.89l10.58-4.1c26.82-10.36,37.39-29.24,33.62-61.15-8.63-73-19-145.72-28.9-218.52-9.07-66.56-18.78-133-27.35-199.65-.89-6.85,2.23-19.24,6.67-21,47-18.48,94.69-35.31,145.5-53.81C656.61,235.88,670,329.71,683.1,423.57c9.53,68.07,20.28,136,27.78,204.3,2.91,26.54,2.89,48.94.08,68.13h16.1a318.1,318.1,0,0,0,4.83-32.8c3.93-44,1.14-44.22,44.23-59.9l133.25-48.5c6.83,48.65,12.72,90.58,18.66,132.87L905.14,696H1366V475.85C1354.91,513.42,1327.66,540.78,1287.49,558.62Z"/><path class="cls-1" d="M1335,180.16c-18.92-63.15-68.87-90.08-131.87-71.27-78.07,23.3-154.06,53.54-231,80.5-17.15,6-34.46,12-52.14,15.92-22.08,4.95-34.94-3.61-39.69-26.11-4.41-20.84-7.15-42-10.15-63.16C861.32,54.4,869.17,41.33,927,20.3L980,1H709.77c-7.47,21.06-9.92,45.14-7,72q11.07,103.72,25.76,207c10.66,74.82,68,97.32,116.31,94.12,29.54-1.95,59.5-8.9,87.65-18.42,71.31-24.12,141.64-51.15,212.5-76.62,28-10.08,46.42-1.92,50.85,23.86,5.21,30.33,8.06,61.06,11.7,91.65,3.35,28.22-8.69,47.74-35,57.67-72.64,27.42-145.46,54.37-218.21,81.49-8.71,3.25-17.46,6.37-26.91,9.8,7,48.71,13.53,94.61,20.43,142.82l26.51-9.65c64.05-23.31,128.26-46.23,192.11-70.08,40.67-15.19,81.41-30.44,121-48,40.17-17.84,67.42-45.2,78.51-82.77V348.25c-.44-3.36-.9-6.72-1.41-10.07C1356.5,285.18,1350.27,231.23,1335,180.16Z"/><path class="cls-1" d="M710.88,627.87c-7.5-68.29-18.25-136.23-27.78-204.3C670,329.71,656.61,235.88,642.74,137.79c-50.81,18.5-98.48,35.33-145.5,53.81-4.44,1.74-7.56,14.13-6.67,21,8.57,66.62,18.28,133.09,27.35,199.65,9.93,72.8,20.27,145.56,28.9,218.52,3.77,31.91-6.8,50.79-33.62,61.15L502.62,696H711C713.77,676.81,713.79,654.41,710.88,627.87Z"/><path class="cls-1" d="M225.73,696q-33.45-235.29-66.38-470.64c-3.35-23.72-7.12-47.38-11.1-73.74-48,17.47-91.6,34-135.73,49C7,202.54,2.9,204.6,0,207.23v57.18C20.57,408.23,40,552.22,60.85,696Z"/><path class="cls-1" d="M275.48,208.1c-.18,18.94.14,38.11,2.74,56.83C295.11,386.34,312.66,507.66,330.09,629c3.19,22.26,6.52,44.51,9.89,67H443.73l48.61-17.69c-3.25-13.57-6.86-24.93-8.62-36.58q-17.28-115-33.81-230C442.12,356.89,434.62,302,428,247.1c-3.15-25.91,6.88-47.18,30.25-59.64,15.94-8.5,33.08-14.94,50.1-21.16,54.32-19.87,109-38.9,163.1-59.25,5.44-2,12.21-11.1,11.82-16.43-2.2-30.81-1.92-61,6.64-89.62h-109C505.74,29.73,429.74,59,358.26,88.45,307.5,109.36,276.05,149.76,275.48,208.1Z"/><path class="cls-1" d="M928,687.67c-5.94-42.29-11.83-84.22-18.66-132.87L776.12,603.3C733,619,735.82,619.23,731.89,663.2a318.1,318.1,0,0,1-4.83,32.8H905.14Z"/><g class="cls-2"><path class="cls-3" d="M1335,180.16c-18.92-63.15-68.87-90.08-131.87-71.27-78.07,23.3-154.06,53.54-231,80.5-17.15,6-34.46,12-52.14,15.92-22.08,4.95-34.94-3.61-39.69-26.11-4.41-20.84-7.15-42-10.15-63.16C861.32,54.4,869.17,41.33,927,20.3L980,1H709.77c-7.47,21.06-9.92,45.14-7,72q11.07,103.72,25.76,207c10.66,74.82,68,97.32,116.31,94.12,29.54-1.95,59.5-8.9,87.65-18.42,71.31-24.12,141.64-51.15,212.5-76.62,28-10.08,46.42-1.92,50.85,23.86,5.21,30.33,8.06,61.06,11.7,91.65,3.35,28.22-8.69,47.74-35,57.67-72.64,27.42-145.46,54.37-218.21,81.49-8.71,3.25-17.46,6.37-26.91,9.8,7,48.71,13.53,94.61,20.43,142.82l26.51-9.65c64.05-23.31,128.26-46.23,192.11-70.08,40.67-15.19,81.41-30.44,121-48,40.17-17.84,67.42-45.2,78.51-82.77V348.25c-.44-3.36-.9-6.72-1.41-10.07C1356.5,285.18,1350.27,231.23,1335,180.16Z"/><path class="cls-3" d="M710.88,627.87c-7.5-68.29-18.25-136.23-27.78-204.3C670,329.71,656.61,235.88,642.74,137.79c-50.81,18.5-98.48,35.33-145.5,53.81-4.44,1.74-7.56,14.13-6.67,21,8.57,66.62,18.28,133.09,27.35,199.65,9.93,72.8,20.27,145.56,28.9,218.52,3.77,31.91-6.8,50.79-33.62,61.15L502.62,696H711C713.77,676.81,713.79,654.41,710.88,627.87Z"/><path class="cls-3" d="M225.73,696q-33.45-235.29-66.38-470.64c-3.35-23.72-7.12-47.38-11.1-73.74-48,17.47-91.6,34-135.73,49C7,202.54,2.9,204.6,0,207.23v57.18C20.57,408.23,40,552.22,60.85,696Z"/><path class="cls-3" d="M275.48,208.1c-.18,18.94.14,38.11,2.74,56.83C295.11,386.34,312.66,507.66,330.09,629c3.19,22.26,6.52,44.51,9.89,67H443.73l48.61-17.69c-3.25-13.57-6.86-24.93-8.62-36.58q-17.28-115-33.81-230C442.12,356.89,434.62,302,428,247.1c-3.15-25.91,6.88-47.18,30.25-59.64,15.94-8.5,33.08-14.94,50.1-21.16,54.32-19.87,109-38.9,163.1-59.25,5.44-2,12.21-11.1,11.82-16.43-2.2-30.81-1.92-61,6.64-89.62h-109C505.74,29.73,429.74,59,358.26,88.45,307.5,109.36,276.05,149.76,275.48,208.1Z"/><path class="cls-3" d="M928,687.67c-5.94-42.29-11.83-84.22-18.66-132.87L776.12,603.3C733,619,735.82,619.23,731.89,663.2a318.1,318.1,0,0,1-4.83,32.8H905.14Z"/></g></g></g></svg>