<svg xmlns="http://www.w3.org/2000/svg" viewBox="0 0 35 27.96"><defs><style>.cls-1{fill:#fff;}</style></defs><title>united-cheer-sports-mobile-menu-news</title><g id="Ebene_2" data-name="Ebene 2"><g id="Ebene_1-2" data-name="Ebene 1"><path class="cls-1" d="M32.48,0h-30A2.51,2.51,0,0,0,0,2.5v17A2.51,2.51,0,0,0,2.52,22H7.81v3.49a2.5,2.5,0,0,0,1.57,2.32,2.61,2.61,0,0,0,.94.18,2.52,2.52,0,0,0,1.82-.77L17.19,22H32.48A2.51,2.51,0,0,0,35,19.47V2.5A2.51,2.51,0,0,0,32.48,0ZM19.64,14.23H7.81a1.25,1.25,0,1,1,0-2.5H19.64a1.25,1.25,0,1,1,0,2.5Zm5-5H7.81a1.25,1.25,0,1,1,0-2.5H24.68a1.25,1.25,0,1,1,0,2.5Z"/></g></g></svg>