<svg xmlns="http://www.w3.org/2000/svg" viewBox="0 0 331.75 520.03"><defs><style>.cls-1{fill:#141414;}.cls-2{fill:#070707;}.cls-3{fill:#090909;}.cls-4{fill:#060606;}.cls-5{fill:#111;}.cls-6{fill:#0a0a0a;}.cls-7{fill:#0d0d0d;}.cls-8{fill:#0c0c0c;}.cls-9{fill:#151515;}.cls-10{fill:#0e0e0e;}.cls-11{fill:#080808;}.cls-12{fill:#0b0b0b;}.cls-13{fill:#101010;}.cls-14{fill:#131313;}.cls-15{fill:#0f0f0f;}.cls-16{fill:#030303;}.cls-17{fill:#121212;}.cls-18{fill:#040404;}.cls-19{fill:#020202;}.cls-20{fill:#fdfdfd;}.cls-21{fill:#161616;}.cls-22{fill:#010101;}.cls-23{fill:#696969;}.cls-24{fill:#a7a7a7;}.cls-25{fill:#f5f5f5;}.cls-26{fill:#fff;stroke:#000;stroke-linejoin:round;stroke-width:2.97px;}</style></defs><title>PageNotFound_1</title><g id="Ebene_2" data-name="Ebene 2"><g id="Ebene_1-2" data-name="Ebene 1"><path class="cls-1" d="M36.93,314.5a4,4,0,0,1,1.31-2.24,12,12,0,0,0,3.46-5c2.89-2.46,0-4.74-.24-7.09.64-2.28,1.47-4.18,4.25-4.8s0-1.95,0-3c1.72-6.38-1.27-11.91-3.42-17.49a28.4,28.4,0,0,1-1.61-14.66c1.32-9-.88-17.28-3.94-25.52l-2.63-7.31c.6-2.3,1.23-4.6.63-7a9,9,0,0,1-.67-6.56c1-4.39.62-8.9,1.74-13.23A54.58,54.58,0,0,0,33.2,182c-1.93-2.49-2.28-5.65-2.5-8.48-.43-5.59-4.17-9.6-5.89-14.52-.79-3.83-2.82-7.19-4.07-10.84a19.47,19.47,0,0,1-1.46-5.86c1-1.85-1.23-3.6-.07-5.61.61-1.07.65-2.45,2.11-2.87,1.78,1.1,1.87,2.83,1.63,4.63s.86-.05,1.08.44c1.85,3.51,4,6.83,5.11,10.7A1.81,1.81,0,0,0,30.47,151l5,4.33a2.72,2.72,0,0,0,2.14,2c2.7-.39,3.37-1.71,2-4.1.19-1.5,2.24-1.27,2.61-2.76.31-.17-.44-.67-.15-.29.11.14.09.24,0,.3-2.77,1.15-3.84.74-3.77-1.8.1-4-.61-8,.6-12,1.89-6.24,5.26-7.59,12.3-6.22.71.13,1.33.4,2,0,5.07,3.1,6.8,8.19,5,14.88a14.58,14.58,0,0,0-.84,5.71c-.08,1.19-1.1,1.83-1.82,2.45-1.86,1.59-1.82,3-.18,4.66,1.86.9,2.93-.34,4-1.49,4.11-1.21,6.34-4.1,7.88-8,1-2.55,2.84-4.77,4.3-7.14,2.48-1.34,2-4,2.79-6.13,1.11-1.64,2.83-2.9,3.24-5l4.82-7.86c.83-.49,1.36-1.12.86-2.15l.55-.72c1.52-1,2.85-2.13,2.27-4.26.61-1.78.57-4.19,3.2-4.24,1.45,0,3.74-.07,4.12,1.23.43,1.51,1,3.71-.94,5.14-.81.59-1.07,1.81-2.24,2-2.84-.49-3,1.78-3.43,3.51-.92,4-1.87,8-3,12s-3.8,7-5.77,10.43c-.8,2.86-2.73,5.32-3,8.39a15,15,0,0,1-2.7,5c-2.32-.23-.75,2.42-2.14,2.88l-.66.66a33.43,33.43,0,0,0-3.54,6.1c-1.77,2.47-.81,5.9-2.89,8.26-1.85,1.74-1.41,4.15-1.63,6.26-.33,3.08-.74,6.23.23,9.31l0-.07c.83,3.16,1.48,6.4,4.25,8.6,5.07,3.55,4.22,9.44,5.63,14.42.26.91-.78,1-1.36,1.35-2.84,2.57-3.64,6.47-6.13,9.33-1.61,1.86-3.27,3.95-3.53,6.66a52,52,0,0,0,.09,16.75,19,19,0,0,1,.06,6.34c-3,5.57-3.37,5.8-8.67,4.85-.14,0,.06.07.08.08a.72.72,0,0,1,.26.9c-.51,0-.7.32-.83.74-1,1.73.12,3.43.16,5.14a100.73,100.73,0,0,1-1,14,11.51,11.51,0,0,0,.56,5.85,25.13,25.13,0,0,1,3.41,11.21,3.15,3.15,0,0,1-.12,2c-2.12,3.5-.94,6.48,1.18,9.51,1,1.45,2,2.9,3.15,4.27l0,0c5.6,7.7,7.62,16.74,9.67,25.77a3,3,0,0,0,.58.88c1.58,4.91,2.86,9.87,2.55,15.11,0,.88-.16,1.91.89,2.46l0,0c-3,4.35-2.83,9.52-3.44,14.39a191.72,191.72,0,0,1-4.3,21.17c-1.14,4.75-.93,9.6-1.32,14.4,0,.46.31.56.63.68l-.09-.08c.6,3.86,2.43,7.36,3.1,11.22a84.66,84.66,0,0,1,1.16,21.1c-.65,8.49.18,17.06-.28,25.57-.42,7.82,1,15.48,1.09,23.22a18.13,18.13,0,0,0,1.29,4c1.09,2.23,1.74,4.59.82,7.16-.53,1.45-.71,3,.93,4.1,1.85,1.28-1.09,3,.32,4.44l1.31,2.9c.18,1,1,1.55,1.61,2.27s1.63.92,1.26,1.9-1.53,1.3-2.62,1.49c-2.07.36-3.86-1-5.89-.84-2.25-.66-4-2.69-6.78-2.06-1.28.29-1.61-1-1.73-2.09a6.1,6.1,0,0,0-.39-5.54l.1.11c-.79-1.74-3.4.35-4-1.89a11.57,11.57,0,0,0-.2-2.46C51,493.17,53,481.82,51.09,471c-.42-2.47,1.63-5.14-.68-7.41-1.73-2.9-2.28-6.15-2.76-9.43-.16-1.09.16-2.5-1.55-2.73-2.13,3.25-1.92,7.17-3.06,10.72-1.85,5.76-2.11,11.77-2.25,17.76,0,.72-.5,1.69.6,2.14l-.09-.08c1.85,6.88,3.24,13.76.13,20.69a4.71,4.71,0,0,0-.24,3.13c1.14,4.16-.22,7.59-2.85,10.7l0-.05a19.65,19.65,0,0,0-2.28,2.8c-.36.45-.76.81-1.4.62-.63-.5-1.36-.21-2.06-.27-2.83-.24-4.9-1.14-5.32-4.51s0-6.57-.19-9.71c-.29-4.21-.15-8.53-1.05-12.72-.54-8.51.22-17,.3-25.51.06-5.54.55-11-1.08-16.55s-1-11.26-1.32-16.92c-.06-1.19.73-2.58-.58-3.59,1.67-8,2.51-16.11,5.47-23.77.56-.18.63-.68.63-1.12,0-5.82,1.13-11.48,2.28-17.14a8.35,8.35,0,0,0-.24-3.51C30,378.09,29.92,371.43,28.29,365c-.56-2.2,0-4.49-.69-6.67-.51-4.85.88-9.46,1.73-14.14C31.85,337.72,32.6,330.8,34,324c.43-2.07,1.34-4,1.73-6.09C36,316.76,37.23,315.89,36.93,314.5Z"/><path class="cls-2" d="M69,491.39c-1-5.4-.77-10.89-1.21-16.33-.49-6.11-.11-12.21-.2-18.31-.09-6.85.1-13.68.6-20.53a55.84,55.84,0,0,0-3.48-22.93,6.39,6.39,0,0,1-.51-4.15c4.67,10,5.54,20.52,4.94,31.36-.36,6.5-.31,13-.44,19.54-.21,10.45.58,20.87,1.27,31.28A.59.59,0,0,1,69,491.39Z"/><path class="cls-3" d="M36.78,234.74c.27-.15.37-1.67.72-.44,2.35,8.35,5.44,16.52,3.81,25.59-1.26,7,.54,13.86,3.53,20.24a17.7,17.7,0,0,1,1.3,12.95c.81,2.21-1.09,2.43-2.33,3-.74.34-1.69.32-1.34-1,0-2.25,3.69-2.16,3.07-4.81a8,8,0,0,0,0-4.26c-2-6.12-5.84-12.1-5.54-18.41C40.53,256.35,40.11,245.46,36.78,234.74Z"/><path class="cls-4" d="M23.4,430.05l1.33-2c0,5,0,9.4,0,13.82a28.73,28.73,0,0,0,.59,6.32c2.66,12.13,1.7,24.37.92,36.61-.17,2.66-.67,5.44.62,8-.37.37-.56,1.06-1.31.71-.77-8.87,0-17.72.32-26.57.22-5.55.28-11-1.07-16.5C23.18,443.81,23.16,436.91,23.4,430.05Z"/><path class="cls-5" d="M53.25,130.52c-1.19,1.85-2.31.25-3.56.06-5.66-.87-10.46,3.36-10.68,9.29-.1,2.61.11,5.23-.06,7.83-.11,1.6.37,2.63,1.91,2.63,2,0-.94-2,1-2.22,1.9,2.71.61,4.21-2.19,5.16-1.19.12-2.22-.16-2.1-1.58.42-5.17-.86-10.4.63-15.54s2.82-6.33,8.37-6.52a6.08,6.08,0,0,1,3.93.05Z"/><path class="cls-2" d="M28.29,358c-.2,4.41,1.66,8.59,1.87,12.82.42,8.2,4.07,16.34.78,24.67-1.38,3.47.35,7.36-1.28,10.84,0,.08-.16.22-.2.2a5.05,5.05,0,0,1-.59-.26,64.06,64.06,0,0,1,2-16.13,15.44,15.44,0,0,0,0-6.35c-1.14-6.62-2.23-13.25-3.31-19.88a9.89,9.89,0,0,1,0-4.23C27.3,358.91,26.83,358,28.29,358Z"/><path class="cls-6" d="M64.25,409.22c-2-2.87-1.23-6.18-.77-9.11,1.15-7.21,3-14.29,4.37-21.47.82-4.39,1.25-8.85,1.81-13.29.32-2.57.5-5.19,3-6.77,1,.6.84,1.35.07,1.91A4,4,0,0,0,71,363.72c-.67,1.41.16,3-.56,4.4-.61,11.61-5,22.57-5.88,34.13-.52,1.28,0,2.7-.52,4C64.1,407.23,64.18,408.23,64.25,409.22Z"/><path class="cls-3" d="M50.41,463.56c1.49-.51,1.83.64,1.67,1.53-1.09,5.94.39,11.79.59,17.68.19,5.26,0,10.67,1.5,15.79.83,2.83,2.3,5.46,1.94,8.55.25.13.33.26.25.39s-.16.2-.25.2a1.69,1.69,0,0,1-1.42-1.32c-2.84-10.89-3.37-22-3.67-33.2a18.51,18.51,0,0,1,0-6.88Z"/><path class="cls-7" d="M38.34,516.46c0-2.06,2.4-3.1,2.28-5.26,0-.41.51-.87.46-1.26-1.09-9.11,3.68-18.19.14-27.31-.07-.19.05-.46.08-.69,2.14,4.69,3.72,9.68,2.38,14.71a54.55,54.55,0,0,0-1.8,14.18C41.88,513.34,40.4,515.14,38.34,516.46Z"/><path class="cls-6" d="M41.39,482c-1.47-.68-.84-2-1-3.12-1.16-9.66,3-18.5,4.38-27.78.19-1.33.9-.12,1.3.28C44,461.52,40.85,471.49,41.39,482Z"/><path class="cls-8" d="M77.52,145.41c4.83-6.2,7.14-13.42,8.53-21a27.72,27.72,0,0,1,1.19-4.06c.64-1.84,1.69-2.14,3.1-.69-2,.62-2.46,2.21-2.85,4-1.62,7.73-3.1,15.54-8.61,21.74A.9.9,0,0,1,77.52,145.41Z"/><path class="cls-9" d="M4.76,114.67c-.77-.08-1.14-.64-1.48-1.24-.47-1.93-2.1-4.44.53-5.5,2.13-.86,3.13,1.66,4.1,3.32a2.5,2.5,0,0,0,1.17,1.23l1.21,1.57c.67,2.41,3.62,4.65.55,7.35-3.1-.45-1.91-3.76-3.5-5.22C6.49,115.66,6.13,114.31,4.76,114.67Z"/><path class="cls-4" d="M25.55,493.54l1.31-.71a56,56,0,0,0,.83,11.62c.5,2.57-.57,5.15-.19,7.85.68,4.82,1.13,7,6.72,6.72.14,0,.32.53.48.81-5.9.68-7.36-.13-8.21-5.71-.42-2.75,0-5.76-.08-8.49C26.36,501.7,26.9,497.47,25.55,493.54Z"/><path class="cls-7" d="M59.07,314.43c-5.33-3.78-6.29-7.8-5.09-14,.57-2.94.82-6.67-1.54-9.52a4.88,4.88,0,0,1-1.32-2.81c.27-.39.57-.41.89-.07,3.7,3,2.1,7.91,4.12,11.52a.37.37,0,0,1,0,.34c-4.35,5.45,0,9.14,2.63,13.2A4.45,4.45,0,0,1,59.07,314.43Z"/><path class="cls-8" d="M36.14,317.33c.59,3.41-1.68,6.18-2.06,9.45-.63,5.49-2.06,10.88-3.22,16.31-.06.28-.74.43-1.14.65-.51-.34-.24-1-.61-1.42,2.86-6.64,2.77-14,4.86-20.8.55-1.78.8-3.65,2.06-5.13A.54.54,0,0,1,36.14,317.33Z"/><path class="cls-10" d="M69,340.89c-2.23-3.81-2.53-8.27-4-12.35s-2.6-8.34-5.47-11.8a3,3,0,0,1-.48-2.35,22.9,22.9,0,0,1,6.4,10.75c1,3.13,1.62,6.36,2.69,9.45a12.68,12.68,0,0,1,.88,5.46.51.51,0,0,1,.17.57C69.09,340.8,69,340.89,69,340.89Z"/><path class="cls-5" d="M9.08,112.48c-1.11.82-1.77.2-1.77-.84,0-1.82-2.17-1.57-2.56-3-.21-.74-.62-.33-1,0s-1,.79-.58,1.43c.69,1.13.25,2.23.07,3.35-.76-1.49-3.75-1-3.22-3.68.8-4.09,1.69-4.55,6.14-2.91.21.85.35,1.75,1.28,2.19Z"/><path class="cls-10" d="M7.59,115.46c1.84,1.49.61,4.92,3.58,5.7l.25.38a26.9,26.9,0,0,0,.82,4c.13.27.24.55.37.82a40.79,40.79,0,0,1,2,3.63,41.44,41.44,0,0,0,2.14,4.64,4.23,4.23,0,0,1,.42.82,2.71,2.71,0,0,1-.38,1.76,1.48,1.48,0,0,1-.67.59c-2.54-2.53-3.41-6-4.7-9.11-1.44-3.55-2.57-7.23-3.84-10.85A2.3,2.3,0,0,1,7.59,115.46Z"/><path class="cls-11" d="M60.38,256.69c-.33-6.37-.55-12.75-1.06-19.11-.18-2.14,1.32-3.8,1.08-5.84a.47.47,0,0,1,.81,0c-.29,6.56-1.09,13.1.52,19.65.49,2,.73,4.49-1.22,6.27A.61.61,0,0,1,60.38,256.69Z"/><path class="cls-12" d="M52,288l-.89.07c-1-3.71-.74-7.38-.29-11.17.5-4.27.93-8.65-.32-12.9-.4-1.35.76-1.11,1.21-1.59,1.52,5.89.74,11.81-.06,17.66A20.5,20.5,0,0,0,52,288Z"/><path class="cls-8" d="M36.14,200.34c-.76,4.1-.34,8.29-1.23,12.42a11.23,11.23,0,0,0,.51,7.56c-.3.29-.38.78-.82,1-2.24-2.84-1.54-6.1-.89-9.12.9-4.15.38-8.48,1.83-12.52C36.11,199.56,36.52,199.61,36.14,200.34Z"/><path class="cls-13" d="M61.21,231.76l-.81,0c1.34-5.22,5.78-8.64,7.87-13.46.43-1,.49-2,.83-3,.93.08.91,1,1.29,1.5C68.28,222.35,64.65,227,61.21,231.76Z"/><path class="cls-14" d="M69,491.39l1-.07c1.66,3.45,3.59,6.84,1.83,10.88-.2.45-.11,1.43.2,1.63,2.72,1.82,1.39,4,.63,6.1-.38-3.31-3.43-5.95-1.66-9.94C72.19,497.14,69.61,494.29,69,491.39Z"/><path class="cls-8" d="M69,340.89c0-.28,0-.56,0-.84,2.9,4,3,8.69,3.51,13.27.21,1.75.15,3.52.21,5.29-1.73-.41-1.63-1.78-1.63-3.09,0-4.38.21-8.79-2.58-12.63C68.24,342.52,68.78,341.57,69,340.89Z"/><path class="cls-13" d="M24,139l-1.34,2c-1.16-2.31.57-5.05-1.52-7-1.32-1.08-2.6-2.22-3.88-3.36a6.78,6.78,0,0,1-.91-1.75,3.78,3.78,0,0,1-.06-2,1.79,1.79,0,0,1,.61-.8c3.62,3.69,6.46,7.83,7.71,12.93C24.42,139.34,24.21,139.36,24,139Z"/><path class="cls-10" d="M16.91,126.06l0,.79-5-.7h0c-.66-1.61,2.51-3.76-.71-5h0c.53-2.41.48-4.67-1.62-6.41l.74-.7C13.26,117.63,14.82,122,16.91,126.06Z"/><path class="cls-7" d="M68.26,517.65c1.23-1.12,2.42-.16,3.65,0,1.5.24,3,.36,4.29-.84-.52-1.5-3.42-1.6-2.3-4,1.74,1.42,4.95,2.54,3.47,5.25-1.26,2.3-4.23,1.2-6.5.59A23.11,23.11,0,0,1,68.26,517.65Z"/><path class="cls-14" d="M42.47,295c2.08,1,2.83-.57,3.67-1.95.83-.38,1.64-.56,2,.59.23.83.32,2-.67,2.09-2.91.29-4.37,2.18-5.6,4.46a.86.86,0,0,1-1.32,0A8.58,8.58,0,0,1,42.47,295Z"/><path class="cls-11" d="M36.14,200.34l-.6-.7c-.21-6-1.66-11.78-2.34-17.69.6-.66,1.23-.33,1.26.29.36,6,2.51,11.79,1.94,17.88C36.39,200.2,36.23,200.27,36.14,200.34Z"/><path class="cls-15" d="M24,139h.61c2.8,3.6,4.42,7.77,5.85,12-1.64,1-2-1.1-2.06-1.41C27.61,145.79,24.38,143,24,139Z"/><path class="cls-3" d="M29.11,342.32c.2.47.41.94.61,1.42-.54,3.66-1,7.34-1.69,10.95a4.32,4.32,0,0,0,.26,3.32c-.65.37-.72,1-.8,1.68-1.61-5.37.36-10.46,1.21-15.64C28.8,343.47,29,342.89,29.11,342.32Z"/><path class="cls-8" d="M60.38,256.69c0,.33.09.66.13,1-1.87,4.71-3.95,5.76-8,4l-2.38-1.92C55.09,261.43,58.19,260.2,60.38,256.69Z"/><path class="cls-13" d="M21.16,148.26c2.71,2.49,1.82,6.74,4.46,9.29.1.09-.52.92-.81,1.4-1.59-3.26-3.55-6.36-4.32-10A1.26,1.26,0,0,1,21.16,148.26Z"/><path class="cls-8" d="M21.16,148.26l-.67.71c-1.68-3.65-1.84-7.9-4.42-11.2l.11-.94c1.38-.78,1.93.16,2.2,1.21.34,1.32,1.63,2.28,1.36,3.8Q20.46,145,21.16,148.26Z"/><path class="cls-16" d="M61.91,192.48c-1.73-5.2-.83-10.36.29-15.5.11-.5.7-.52,1.11-.07A58.2,58.2,0,0,0,61.91,192.48Z"/><path class="cls-13" d="M74.66,135.43c.49,1.77-1,3.54,0,5.31-1.29-.49-1.84.44-2.45,1.28a.68.68,0,0,1-.3-.14,1.54,1.54,0,0,1-.21-.29,19.39,19.39,0,0,1,3-7C75,134.86,75,135.14,74.66,135.43Z"/><path class="cls-6" d="M66.12,201c-2.76-1-4.29-4.12-4.25-8.6Z"/><path class="cls-5" d="M77.52,145.41h1.36L75.24,154c-1.22-1.05-.57-1.84.08-3A39.1,39.1,0,0,0,77.52,145.41Z"/><path class="cls-17" d="M41.84,307.38c-.05,2.47-1.09,4.22-3.6,4.88a19.9,19.9,0,0,1,3.55-5.74C42.17,306.78,42.19,307.07,41.84,307.38Z"/><path class="cls-4" d="M41.84,307.38l-.05-.86c1.8-2.55-1-4.17-1.27-6.3h1.32C42.3,302.6,45.53,305,41.84,307.38Z"/><path class="cls-8" d="M34.6,221.28l.82-1c-.46,2.36,1.17,5.1-1.27,7.11C33.39,225.31,34.72,223.35,34.6,221.28Z"/><path class="cls-6" d="M74.66,135.43c0-.27,0-.55,0-.83l3.08-4.14c1.14.71,1.09,1.37,0,2.08S76.1,134.92,74.66,135.43Z"/><path class="cls-6" d="M66.2,168.65a8.32,8.32,0,0,1,3.54-6.1A12.08,12.08,0,0,1,66.2,168.65Z"/><path class="cls-3" d="M57.46,151.11c-1.42-2.15-.24-3.92.84-5.71C58.2,147.33,58.71,149.35,57.46,151.11Z"/><path class="cls-18" d="M59.49,156.73c-1.22,2.23-2.6,2.87-4.38,2a.67.67,0,0,1,.09-.32,1.47,1.47,0,0,1,.26-.23Z"/><path class="cls-3" d="M70.4,161.89c-.55-.85,1.47-1.81-.1-2.6-.42-.21-.51-.53-.16-.73a1.68,1.68,0,0,1,2.4.45C72.15,160.21,71.72,161.37,70.4,161.89Z"/><path class="cls-2" d="M86.2,115.47c1.4,2.57,0,3.64-2.27,4.26Z"/><path class="cls-8" d="M83.38,120.45c.4.25,1.76-.38,1,.71-.29.42,0,2.74-1.87,1.44C82.81,121.89,83.1,121.17,83.38,120.45Z"/><path class="cls-19" d="M59.36,508c1.54,1.75,2,3.58.39,5.54Z"/><path class="cls-1" d="M51.06,466.3q0,3.43,0,6.88C50.46,470.88,49.78,468.58,51.06,466.3Z"/><path class="cls-16" d="M7.59,115.46l-.06,2.35c-.91-1.06-1.42-2.47-2.77-3.14C6.15,113.32,6.6,115.37,7.59,115.46Z"/><path class="cls-18" d="M36.1,519.21c-.22-1.73,1.22-2.1,2.28-2.8A3,3,0,0,1,36.1,519.21Z"/><path class="cls-4" d="M56.11,507.7c0-.2,0-.4,0-.59,1.25-.15,2.81-1.35,3.35,1Z"/><path class="cls-18" d="M37.64,157.37c-1.7.38-2.25-.45-2.14-2Z"/><path class="cls-14" d="M45.54,286a3.56,3.56,0,0,1,0,4.26Z"/><path class="cls-1" d="M70.43,368.12c0-1.48-.57-3.05.56-4.4C70.83,365.19,71.28,366.74,70.43,368.12Z"/><path class="cls-1" d="M50.52,129.68l-3.93-.05A3.43,3.43,0,0,1,50.52,129.68Z"/><path class="cls-4" d="M36.14,317.33c0-.31-.08-.62-.11-.94a2.43,2.43,0,0,1,.9-1.89C38,315.82,36.87,316.52,36.14,317.33Z"/><path class="cls-6" d="M64,406.24c.09-1.34-.52-2.77.52-4C64.64,403.61,64.86,405,64,406.24Z"/><path class="cls-9" d="M7.48,109c-1.46-.13-2-.78-1.28-2.19A3.49,3.49,0,0,1,7.48,109Z"/><path class="cls-20" d="M47,310.45c2.78-1.12,1.8,2.38,3.37,2.75,2.38,2.08,2.54,5.2,3.46,7.88s2.19,5.42,2.47,8.36a8.15,8.15,0,0,0,1.94,3.68c.37.3.78.67.8,1.12.12,4.87,1.42,9.62,1.49,14.49-.24,1,0,2.26-1.67,2.14a1.87,1.87,0,0,1,0-2.13A6.33,6.33,0,0,0,56,343c-1.32-2.34-2.47-4.84-5.52-5.42-3.37-1.56-5.63.63-8,2.39-1.53-1.63,0-4-1.3-5.63-.87-1.47-.33-3-.34-4.57C44,323.68,44.07,316.63,47,310.45Z"/><path class="cls-21" d="M19.74,141.84c-1.15-1.7-1.52-4-3.56-5l.7-1.41c.47,0,0,.43.22,0,.09-.21-.11-.27-.22,0-2-1.35-2.69-3.41-2.86-5.7l.23-.45c1.68-1.27,2.2.85,3.34,1.16,1.55.82,3.39,1.37,3.56,3.57-.64,2.09-3,4-.29,6.39C21.35,140.82,20.36,141.51,19.74,141.84Z"/><path class="cls-10" d="M47,310.45c-1.57,6.48-2.59,13.12-5.66,19.15l-.4-.07a2.36,2.36,0,0,1-.49-1.49c3.55-5.05,3.2-11.32,5.21-16.85C45.9,310.44,46,310.35,47,310.45Z"/><path class="cls-12" d="M56.27,329.44c-2.67-5.16-3.53-11-5.93-16.24,1.7-.83,2.12,1.1,2.3,1.62,1.53,4.52,2.79,9.13,4.09,13.73C56.8,328.78,56.43,329.14,56.27,329.44Z"/><path class="cls-2" d="M60.5,348.73c-1.88-5-1-10.48-2.29-15.61,1.67-.69,1.41.73,1.44,1.47a64.63,64.63,0,0,0,2,14c.08.33.43,1-.41.88C61,349.4,60.76,349,60.5,348.73Z"/><path class="cls-13" d="M42.48,340c1.8-3.36,5.1-4.5,8-2.77.39.29.37.56,0,.81-2.22-.24-4.3-.21-5.9,1.76C44.13,340.26,43.25,341,42.48,340Z"/><path class="cls-6" d="M50.41,338l0-.81c3.41.44,5.25,2.39,5.57,5.8-.72-.11-1.29.12-1.68-1.11C53.78,340.14,52.66,338.36,50.41,338Z"/><path class="cls-22" d="M41.31,329.6c-.05,1.59-.09,3.17-.13,4.76V340h-.74V329.47a.37.37,0,0,1,.63,0Z"/><path class="cls-2" d="M54.66,226c2.69,2.21.63,4.75.49,7.15a.7.7,0,0,1-.32,0,.94.94,0,0,1-.26-.23,2.62,2.62,0,0,1-.7-1.51,12.86,12.86,0,0,1,.18-4.46A4.46,4.46,0,0,1,54.66,226Z"/><path class="cls-10" d="M41.07,329.45l-.63,0c-.65.17-1,1.51-1.54,1-.95-.9.15-2.06.31-3.09.06-.42.7.57,1.21.66A1.32,1.32,0,0,1,41.07,329.45Z"/><path class="cls-16" d="M53.34,233c-1.54-2.21-.65-4.62-.55-7a.52.52,0,0,1,.29-.05,1.26,1.26,0,0,1,.28.19c1,1.43.46,3.06.6,4.6A3.12,3.12,0,0,1,53.34,233Z"/><path class="cls-23" d="M53.37,231.07c0-1.62,0-3.25,0-4.88l1.3-.16-.09.85c-.56,1.29,0,2.67-.34,4A.65.65,0,0,1,53.37,231.07Z"/><path class="cls-16" d="M58.87,348.74l0,2.13c-.39.08-.93.57-1.14,0C57.31,349.83,58.05,349.22,58.87,348.74Z"/><path class="cls-24" d="M53.37,231.07l.48-.12c.47,0,.52.47.75.73l0,1.26-1.23.07Z"/><path class="cls-21" d="M11.89,126.15a3.55,3.55,0,0,1,5,.7V129a.75.75,0,0,1-.92,0c-1.21-1.25-1.63-.45-1.94.7h0C13.09,128.66,12,127.68,11.89,126.15Z"/><path class="cls-9" d="M11.17,121.16c.53-.1.89-1.27,1.29-.7.68,1,1.82,2.06,1.13,3.47a13.71,13.71,0,0,1-1.71,2.22C11,124.58,10.26,123,11.17,121.16Z"/><path class="cls-10" d="M14,129.72c.11-3.65,1.88-.59,2.86-.71a1.45,1.45,0,0,1,.71,1.42c-.67.88-1.15.45-1.52-.26C15.55,129.19,14.83,129.31,14,129.72Z"/><path class="cls-8" d="M16.88,135.42c1.28-1.73,1.42,0,2.15.68-1.11.54-1.45-.62-2.15-.68Z"/><path class="cls-25" d="M54.6,231.68l-.75-.73c.36-1.33-.44-2.88.72-4.07Z"/><path class="cls-1" d="M178.89,314.5a4,4,0,0,0-1.31-2.24,12.1,12.1,0,0,1-3.46-5c-2.89-2.46,0-4.74.24-7.09-.64-2.28-1.47-4.18-4.25-4.8s0-1.95,0-3c-1.72-6.38,1.27-11.91,3.42-17.49a28.4,28.4,0,0,0,1.61-14.66c-1.32-9,.88-17.28,3.94-25.52l2.63-7.31c-.6-2.3-1.23-4.6-.63-7a9,9,0,0,0,.67-6.56c-1-4.39-.62-8.9-1.74-13.23A55.07,55.07,0,0,1,182.62,182c1.93-2.49,2.28-5.65,2.5-8.48.43-5.59,4.17-9.6,5.89-14.52.79-3.83,2.82-7.19,4.07-10.84a19.47,19.47,0,0,0,1.46-5.86c-1-1.85,1.23-3.6.08-5.61-.62-1.07-.65-2.45-2.12-2.87-1.78,1.1-1.87,2.83-1.63,4.63s-.86-.05-1.08.44c-1.85,3.51-4,6.83-5.11,10.7a1.81,1.81,0,0,1-1.33,1.49l-5,4.33a2.72,2.72,0,0,1-2.14,2c-2.7-.39-3.36-1.71-2.05-4.1-.19-1.5-2.24-1.27-2.61-2.76-.31-.17.44-.67.15-.29-.1.14-.09.24,0,.3,2.77,1.15,3.84.74,3.77-1.8-.1-4,.61-8-.6-12-1.89-6.24-5.26-7.59-12.3-6.22-.71.13-1.33.4-2,0-5.07,3.1-6.8,8.19-5,14.88a14.39,14.39,0,0,1,.84,5.71c.08,1.19,1.1,1.83,1.82,2.45,1.86,1.59,1.82,3,.18,4.66-1.86.9-2.93-.34-4-1.49-4.11-1.21-6.34-4.1-7.87-8-1-2.55-2.85-4.77-4.31-7.14-2.47-1.34-2-4-2.79-6.13-1.11-1.64-2.83-2.9-3.24-5l-4.81-7.86c-.84-.49-1.37-1.12-.87-2.15l-.55-.72c-1.52-1-2.85-2.13-2.27-4.26-.61-1.78-.57-4.19-3.2-4.24-1.45,0-3.74-.07-4.11,1.23-.44,1.51-1,3.71.93,5.14.81.59,1.07,1.81,2.24,2,2.84-.49,3,1.78,3.43,3.51.92,4,1.87,8,3,12s3.8,7,5.77,10.43c.8,2.86,2.73,5.32,3,8.39a15,15,0,0,0,2.7,5c2.32-.23.75,2.42,2.14,2.88l.66.66a33.43,33.43,0,0,1,3.54,6.1c1.77,2.47.81,5.9,2.89,8.26,1.85,1.74,1.41,4.15,1.63,6.26.33,3.08.74,6.23-.23,9.31l0-.07c-.83,3.16-1.48,6.4-4.25,8.6-5.07,3.55-4.22,9.44-5.63,14.42-.26.91.78,1,1.36,1.35,2.84,2.57,3.64,6.47,6.13,9.33,1.61,1.86,3.27,3.95,3.53,6.66a51.73,51.73,0,0,1-.09,16.75,19,19,0,0,0-.06,6.34c2.95,5.57,3.37,5.8,8.67,4.85.14,0-.06.07-.08.08a.72.72,0,0,0-.26.9c.51,0,.7.32.83.74,1,1.73-.12,3.43-.16,5.14a102.29,102.29,0,0,0,1,14,11.51,11.51,0,0,1-.56,5.85A25.13,25.13,0,0,0,161,298.63a3.15,3.15,0,0,0,.12,2c2.13,3.5.95,6.48-1.18,9.51-1,1.45-2,2.9-3.15,4.27l0,0c-5.6,7.7-7.62,16.74-9.67,25.77a3,3,0,0,1-.58.88c-1.58,4.91-2.86,9.87-2.55,15.11,0,.88.16,1.91-.89,2.46l0,0c3,4.35,2.83,9.52,3.45,14.39a189.4,189.4,0,0,0,4.29,21.17c1.14,4.75.93,9.6,1.32,14.4,0,.46-.31.56-.63.68l.09-.08c-.6,3.86-2.43,7.36-3.1,11.22a84.66,84.66,0,0,0-1.16,21.1c.65,8.49-.18,17.06.28,25.57.42,7.82-1,15.48-1.09,23.22a18.13,18.13,0,0,1-1.29,4c-1.09,2.23-1.74,4.59-.82,7.16.53,1.45.71,3-.93,4.1-1.85,1.28,1.09,3-.32,4.44-.43,1-.87,1.93-1.31,2.9-.18,1-1,1.55-1.61,2.27s-1.63.92-1.26,1.9,1.53,1.3,2.62,1.49c2.07.36,3.86-1,5.89-.84,2.25-.66,4-2.69,6.78-2.06,1.28.29,1.61-1,1.73-2.09a6.1,6.1,0,0,1,.39-5.54l-.1.11c.79-1.74,3.4.35,4-1.89a11.57,11.57,0,0,1,.2-2.46c4.33-10.55,2.35-21.9,4.21-32.75.43-2.47-1.63-5.14.68-7.41,1.73-2.9,2.28-6.15,2.76-9.43.16-1.09-.16-2.5,1.55-2.73,2.13,3.25,1.92,7.17,3.06,10.72,1.85,5.76,2.11,11.77,2.25,17.76,0,.72.5,1.69-.6,2.14l.09-.08c-1.85,6.88-3.24,13.76-.13,20.69a4.71,4.71,0,0,1,.24,3.13c-1.14,4.16.22,7.59,2.85,10.7l0-.05a19.65,19.65,0,0,1,2.28,2.8c.36.45.76.81,1.4.62.63-.5,1.36-.21,2.06-.27,2.83-.24,4.9-1.14,5.32-4.51s0-6.57.19-9.71c.29-4.21.15-8.53,1.05-12.72.54-8.51-.22-17-.3-25.51-.06-5.54-.55-11,1.08-16.55s1-11.26,1.32-16.92c.06-1.19-.73-2.58.58-3.59-1.67-8-2.51-16.11-5.47-23.77-.56-.18-.63-.68-.63-1.12,0-5.82-1.13-11.48-2.28-17.14a8.35,8.35,0,0,1,.24-3.51c1.52-6.42,1.62-13.08,3.25-19.48.56-2.2,0-4.49.69-6.67.51-4.85-.88-9.46-1.73-14.14-2.52-6.5-3.27-13.42-4.68-20.18-.43-2.07-1.34-4-1.73-6.09C179.78,316.76,178.59,315.89,178.89,314.5Z"/><path class="cls-2" d="M146.86,491.39c1-5.4.77-10.89,1.21-16.33.49-6.11.11-12.21.2-18.31.09-6.85-.1-13.68-.6-20.53a55.84,55.84,0,0,1,3.48-22.93,6.39,6.39,0,0,0,.51-4.15c-4.67,10-5.54,20.52-4.94,31.36.36,6.5.31,13,.44,19.54.21,10.45-.58,20.87-1.27,31.28A.59.59,0,0,0,146.86,491.39Z"/><path class="cls-3" d="M179,234.74c-.27-.15-.37-1.67-.72-.44-2.35,8.35-5.44,16.52-3.81,25.59,1.26,7-.54,13.86-3.53,20.24a17.7,17.7,0,0,0-1.3,12.95c-.81,2.21,1.09,2.43,2.33,3,.74.34,1.69.32,1.34-1,0-2.25-3.69-2.16-3.07-4.81a8.1,8.1,0,0,1,0-4.26c2-6.12,5.84-12.1,5.54-18.41C175.29,256.35,175.71,245.46,179,234.74Z"/><path class="cls-4" d="M192.42,430.05l-1.32-2c0,5,0,9.4,0,13.82a28.73,28.73,0,0,1-.59,6.32c-2.66,12.13-1.7,24.37-.92,36.61.17,2.66.67,5.44-.62,8,.37.37.56,1.06,1.31.71.77-8.87,0-17.72-.31-26.57-.23-5.55-.29-11,1.06-16.5C192.64,443.81,192.66,436.91,192.42,430.05Z"/><path class="cls-5" d="M162.57,130.52c1.19,1.85,2.31.25,3.56.06,5.66-.87,10.46,3.36,10.68,9.29.1,2.61-.11,5.23.06,7.83.11,1.6-.37,2.63-1.91,2.63-2,0,.94-2-1-2.22-1.9,2.71-.61,4.21,2.19,5.16,1.19.12,2.22-.16,2.11-1.58-.43-5.17.85-10.4-.64-15.54s-2.82-6.33-8.37-6.52a6.08,6.08,0,0,0-3.93.05Z"/><path class="cls-2" d="M187.53,358c.2,4.41-1.66,8.59-1.87,12.82-.42,8.2-4.07,16.34-.78,24.67,1.38,3.47-.35,7.36,1.28,10.84,0,.08.16.22.2.2a5.05,5.05,0,0,0,.59-.26,63.6,63.6,0,0,0-2-16.13,15.44,15.44,0,0,1,0-6.35c1.14-6.62,2.23-13.25,3.31-19.88a9.74,9.74,0,0,0,0-4.23C188.52,358.91,189,358,187.53,358Z"/><path class="cls-6" d="M151.57,409.22c2.05-2.87,1.23-6.18.77-9.11-1.15-7.21-3-14.29-4.37-21.47-.82-4.39-1.25-8.85-1.81-13.29-.32-2.57-.5-5.19-3-6.77-1,.6-.84,1.35-.07,1.91a4,4,0,0,1,1.76,3.23c.67,1.41-.16,3,.56,4.4.61,11.61,5,22.57,5.88,34.13.52,1.28,0,2.7.52,4C151.72,407.23,151.64,408.23,151.57,409.22Z"/><path class="cls-3" d="M165.41,463.56c-1.49-.51-1.83.64-1.67,1.53,1.09,5.94-.39,11.79-.59,17.68-.19,5.26,0,10.67-1.5,15.79-.83,2.83-2.3,5.46-1.94,8.55-.25.13-.33.26-.25.39s.16.2.25.2a1.69,1.69,0,0,0,1.42-1.32c2.84-10.89,3.38-22,3.67-33.2a18.51,18.51,0,0,0,0-6.88Z"/><path class="cls-7" d="M177.48,516.46c0-2.06-2.4-3.1-2.28-5.26,0-.41-.51-.87-.46-1.26,1.1-9.11-3.68-18.19-.14-27.31.08-.19,0-.46-.08-.69-2.14,4.69-3.72,9.68-2.38,14.71a54.55,54.55,0,0,1,1.8,14.18C173.94,513.34,175.42,515.14,177.48,516.46Z"/><path class="cls-6" d="M174.43,482c1.47-.68.84-2,1-3.12,1.16-9.66-3-18.5-4.38-27.78-.19-1.33-.9-.12-1.3.28C171.83,461.52,175,471.49,174.43,482Z"/><path class="cls-8" d="M138.3,145.41c-4.83-6.2-7.14-13.42-8.53-21a27.72,27.72,0,0,0-1.19-4.06c-.64-1.84-1.69-2.14-3.1-.69,2,.62,2.46,2.21,2.85,4,1.62,7.73,3.1,15.54,8.61,21.74A.9.9,0,0,0,138.3,145.41Z"/><path class="cls-9" d="M211.06,114.67c.77-.08,1.14-.64,1.48-1.24.47-1.93,2.1-4.44-.53-5.5-2.13-.86-3.13,1.66-4.1,3.32a2.5,2.5,0,0,1-1.17,1.23l-1.21,1.57c-.67,2.41-3.62,4.65-.55,7.35,3.1-.45,1.91-3.76,3.5-5.22C209.33,115.66,209.69,114.31,211.06,114.67Z"/><path class="cls-4" d="M190.27,493.54l-1.31-.71a55.27,55.27,0,0,1-.83,11.62c-.5,2.57.57,5.15.19,7.85-.68,4.82-1.13,7-6.72,6.72-.14,0-.32.53-.48.81,5.9.68,7.36-.13,8.21-5.71.42-2.75,0-5.76.08-8.49C189.46,501.7,188.92,497.47,190.27,493.54Z"/><path class="cls-7" d="M156.75,314.43c5.33-3.78,6.29-7.8,5.09-14-.57-2.94-.82-6.67,1.54-9.52a4.88,4.88,0,0,0,1.32-2.81c-.27-.39-.57-.41-.89-.07-3.7,3-2.1,7.91-4.12,11.52a.37.37,0,0,0,0,.34c4.35,5.45,0,9.14-2.63,13.2A4.45,4.45,0,0,0,156.75,314.43Z"/><path class="cls-8" d="M179.68,317.33c-.58,3.41,1.68,6.18,2.06,9.45.64,5.49,2.06,10.88,3.22,16.31.06.28.74.43,1.14.65.51-.34.24-1,.61-1.42-2.86-6.64-2.77-14-4.86-20.8-.55-1.78-.8-3.65-2.06-5.13A.54.54,0,0,0,179.68,317.33Z"/><path class="cls-10" d="M146.88,340.89c2.22-3.81,2.52-8.27,4-12.35s2.6-8.34,5.47-11.8a3,3,0,0,0,.48-2.35,22.9,22.9,0,0,0-6.4,10.75c-1,3.13-1.62,6.36-2.69,9.45a12.68,12.68,0,0,0-.88,5.46.51.51,0,0,0-.17.57C146.73,340.8,146.81,340.89,146.88,340.89Z"/><path class="cls-5" d="M206.74,112.48c1.11.82,1.77.2,1.77-.84,0-1.82,2.17-1.57,2.56-3,.21-.74.62-.33,1,0s1,.79.58,1.43c-.69,1.13-.25,2.23-.07,3.35.76-1.49,3.75-1,3.22-3.68-.79-4.09-1.69-4.55-6.14-2.91-.21.85-.35,1.75-1.28,2.19Z"/><path class="cls-10" d="M208.23,115.46c-1.84,1.49-.61,4.92-3.58,5.7l-.25.38a25.67,25.67,0,0,1-.82,4c-.13.27-.24.55-.36.82a38.45,38.45,0,0,0-2,3.63,41.44,41.44,0,0,1-2.14,4.64,4.23,4.23,0,0,0-.42.82,2.71,2.71,0,0,0,.38,1.76,1.48,1.48,0,0,0,.67.59c2.54-2.53,3.41-6,4.7-9.11,1.44-3.55,2.57-7.23,3.84-10.85A2.3,2.3,0,0,0,208.23,115.46Z"/><path class="cls-11" d="M155.44,256.69c.33-6.37.55-12.75,1.06-19.11.18-2.14-1.32-3.8-1.07-5.84a.48.48,0,0,0-.82,0c.29,6.56,1.09,13.1-.52,19.65-.49,2-.73,4.49,1.22,6.27A.61.61,0,0,0,155.44,256.69Z"/><path class="cls-12" d="M163.81,288l.89.07c1-3.71.74-7.38.29-11.17-.5-4.27-.93-8.65.32-12.9.4-1.35-.76-1.11-1.21-1.59-1.52,5.89-.74,11.81.06,17.66A20.5,20.5,0,0,1,163.81,288Z"/><path class="cls-8" d="M179.68,200.34c.76,4.1.34,8.29,1.23,12.42a11.23,11.23,0,0,1-.51,7.56c.3.29.38.78.82,1,2.24-2.84,1.54-6.1.89-9.12-.89-4.15-.38-8.48-1.83-12.52C179.71,199.56,179.3,199.61,179.68,200.34Z"/><path class="cls-13" d="M154.61,231.76l.82,0c-1.35-5.22-5.79-8.64-7.88-13.46-.43-1-.49-2-.83-3-.93.08-.91,1-1.29,1.5C147.54,222.35,151.17,227,154.61,231.76Z"/><path class="cls-14" d="M146.86,491.39l-1-.07c-1.66,3.45-3.59,6.84-1.83,10.88.2.45.11,1.43-.2,1.63-2.72,1.82-1.39,4-.63,6.1.38-3.31,3.43-5.95,1.66-9.94C143.63,497.14,146.21,494.29,146.86,491.39Z"/><path class="cls-8" d="M146.88,340.89l-.06-.84c-2.9,4-3,8.69-3.51,13.27-.21,1.75-.15,3.52-.21,5.29,1.73-.41,1.63-1.78,1.63-3.09,0-4.38-.21-8.79,2.58-12.63C147.58,342.52,147,341.57,146.88,340.89Z"/><path class="cls-13" d="M191.82,139l1.33,2c1.16-2.31-.57-5.05,1.52-7,1.32-1.08,2.6-2.22,3.88-3.36a6.78,6.78,0,0,0,.91-1.75,3.69,3.69,0,0,0,.06-2,1.79,1.79,0,0,0-.61-.8c-3.62,3.69-6.46,7.83-7.71,12.93C191.4,139.34,191.61,139.36,191.82,139Z"/><path class="cls-10" d="M198.91,126.06l0,.79,5-.7h0c.66-1.61-2.51-3.76.71-5h0c-.53-2.41-.48-4.67,1.62-6.41l-.74-.7C202.56,117.63,201,122,198.91,126.06Z"/><path class="cls-7" d="M147.56,517.65c-1.23-1.12-2.42-.16-3.65,0-1.5.24-3,.36-4.29-.84.52-1.5,3.42-1.6,2.3-4-1.73,1.42-4.95,2.54-3.47,5.25,1.26,2.3,4.23,1.2,6.5.59A23.11,23.11,0,0,0,147.56,517.65Z"/><path class="cls-14" d="M173.35,295c-2.07,1-2.83-.57-3.67-1.95-.83-.38-1.64-.56-2,.59-.24.83-.33,2,.66,2.09,2.91.29,4.37,2.18,5.6,4.46a.86.86,0,0,0,1.32,0A8.58,8.58,0,0,0,173.35,295Z"/><path class="cls-11" d="M179.68,200.34l.6-.7c.21-6,1.66-11.78,2.34-17.69-.6-.66-1.23-.33-1.26.29-.36,6-2.51,11.79-1.94,17.88C179.43,200.2,179.59,200.27,179.68,200.34Z"/><path class="cls-15" d="M191.82,139h-.62c-2.8,3.6-4.42,7.77-5.85,12,1.65,1,2-1.1,2.06-1.41C188.21,145.79,191.44,143,191.82,139Z"/><path class="cls-3" d="M186.71,342.32c-.2.47-.41.94-.61,1.42.54,3.66,1,7.34,1.69,10.95a4.32,4.32,0,0,1-.26,3.32c.65.37.72,1,.8,1.68,1.62-5.37-.36-10.46-1.21-15.64C187,343.47,186.85,342.89,186.71,342.32Z"/><path class="cls-8" d="M155.44,256.69c-.05.33-.09.66-.13,1,1.87,4.71,3.95,5.76,8,4l2.38-1.92C160.73,261.43,157.63,260.2,155.44,256.69Z"/><path class="cls-13" d="M194.66,148.26c-2.71,2.49-1.82,6.74-4.46,9.29-.1.09.52.92.81,1.4,1.59-3.26,3.56-6.36,4.32-10A1.26,1.26,0,0,0,194.66,148.26Z"/><path class="cls-8" d="M194.66,148.26l.67.71c1.68-3.65,1.84-7.9,4.42-11.2l-.11-.94c-1.38-.78-1.93.16-2.2,1.21-.34,1.32-1.63,2.28-1.36,3.8Q195.36,145,194.66,148.26Z"/><path class="cls-16" d="M153.91,192.48c1.73-5.2.83-10.36-.29-15.5-.11-.5-.7-.52-1.11-.07A58.2,58.2,0,0,1,153.91,192.48Z"/><path class="cls-13" d="M141.16,135.43c-.48,1.77,1,3.54,0,5.31,1.29-.49,1.84.44,2.45,1.28a.75.75,0,0,0,.31-.14,2.11,2.11,0,0,0,.2-.29,19.39,19.39,0,0,0-3-7C140.83,134.86,140.82,135.14,141.16,135.43Z"/><path class="cls-6" d="M149.7,201c2.76-1,4.29-4.12,4.25-8.6Z"/><path class="cls-5" d="M138.3,145.41h-1.36l3.64,8.55c1.22-1.05.57-1.84-.08-3A39.1,39.1,0,0,1,138.3,145.41Z"/><path class="cls-17" d="M174,307.38c.05,2.47,1.09,4.22,3.6,4.88a19.9,19.9,0,0,0-3.55-5.74C173.65,306.78,173.63,307.07,174,307.38Z"/><path class="cls-4" d="M174,307.38l.05-.86c-1.8-2.55,1-4.17,1.27-6.3H174C173.52,302.6,170.29,305,174,307.38Z"/><path class="cls-8" d="M181.22,221.28l-.82-1c.46,2.36-1.17,5.1,1.27,7.11C182.43,225.31,181.1,223.35,181.22,221.28Z"/><path class="cls-6" d="M141.16,135.43c0-.27,0-.55,0-.83l-3.08-4.14c-1.14.71-1.09,1.37,0,2.08S139.72,134.92,141.16,135.43Z"/><path class="cls-6" d="M149.62,168.65a8.32,8.32,0,0,0-3.54-6.1A12.08,12.08,0,0,0,149.62,168.65Z"/><path class="cls-3" d="M158.36,151.11c1.42-2.15.24-3.92-.84-5.71C157.62,147.33,157.11,149.35,158.36,151.11Z"/><path class="cls-18" d="M156.33,156.73c1.22,2.23,2.6,2.87,4.38,2a.67.67,0,0,0-.09-.32,1.47,1.47,0,0,0-.26-.23Z"/><path class="cls-3" d="M145.42,161.89c.55-.85-1.47-1.81.1-2.6.42-.21.51-.53.16-.73a1.68,1.68,0,0,0-2.4.45C143.67,160.21,144.1,161.37,145.42,161.89Z"/><path class="cls-2" d="M129.62,115.47c-1.4,2.57,0,3.64,2.27,4.26Z"/><path class="cls-8" d="M132.44,120.45c-.4.25-1.76-.38-1,.71.29.42,0,2.74,1.88,1.44Z"/><path class="cls-19" d="M156.46,508c-1.54,1.75-2,3.58-.39,5.54Z"/><path class="cls-1" d="M164.76,466.3q0,3.43,0,6.88C165.36,470.88,166,468.58,164.76,466.3Z"/><path class="cls-16" d="M208.23,115.46l.06,2.35c.91-1.06,1.42-2.47,2.77-3.14C209.67,113.32,209.22,115.37,208.23,115.46Z"/><path class="cls-18" d="M179.72,519.21c.22-1.73-1.22-2.1-2.28-2.8A3,3,0,0,0,179.72,519.21Z"/><path class="cls-4" d="M159.71,507.7v-.59c-1.25-.15-2.81-1.35-3.35,1Z"/><path class="cls-18" d="M178.18,157.37c1.7.38,2.25-.45,2.14-2Z"/><path class="cls-14" d="M170.28,286a3.56,3.56,0,0,0,0,4.26Z"/><path class="cls-1" d="M145.39,368.12c0-1.48.57-3.05-.56-4.4C145,365.19,144.54,366.74,145.39,368.12Z"/><path class="cls-1" d="M165.3,129.68l3.93-.05A3.43,3.43,0,0,0,165.3,129.68Z"/><path class="cls-4" d="M179.68,317.33c0-.31.08-.62.11-.94a2.43,2.43,0,0,0-.9-1.89C177.82,315.82,179,316.52,179.68,317.33Z"/><path class="cls-6" d="M151.79,406.24c-.09-1.34.52-2.77-.52-4C151.18,403.61,151,405,151.79,406.24Z"/><path class="cls-9" d="M208.34,109c1.46-.13,2-.78,1.28-2.19A3.53,3.53,0,0,0,208.34,109Z"/><path class="cls-20" d="M168.85,310.45c-2.78-1.12-1.8,2.38-3.37,2.75-2.38,2.08-2.54,5.2-3.46,7.88s-2.18,5.42-2.46,8.36a8.26,8.26,0,0,1-1.95,3.68c-.37.3-.78.67-.8,1.12-.12,4.87-1.42,9.62-1.49,14.49.24,1,0,2.26,1.67,2.14a1.87,1.87,0,0,0,0-2.13,6.33,6.33,0,0,1,2.86-5.72c1.32-2.34,2.47-4.84,5.52-5.42,3.37-1.56,5.63.63,8,2.39,1.53-1.63,0-4,1.3-5.63.87-1.47.33-3,.34-4.57C171.87,323.68,171.75,316.63,168.85,310.45Z"/><path class="cls-21" d="M196.08,141.84c1.15-1.7,1.52-4,3.56-5-.23-.47-.46-.94-.7-1.41-.47,0,0,.43-.22,0-.09-.21.11-.27.22,0,2.05-1.35,2.69-3.41,2.86-5.7l-.23-.45c-1.68-1.27-2.2.85-3.34,1.16-1.55.82-3.39,1.37-3.56,3.57.64,2.09,3,4,.29,6.39C194.47,140.82,195.46,141.51,196.08,141.84Z"/><path class="cls-10" d="M168.85,310.45c1.57,6.48,2.59,13.12,5.67,19.15l.39-.07a2.36,2.36,0,0,0,.49-1.49c-3.55-5.05-3.19-11.32-5.21-16.85C169.92,310.44,169.86,310.35,168.85,310.45Z"/><path class="cls-12" d="M159.56,329.44c2.66-5.16,3.52-11,5.92-16.24-1.7-.83-2.12,1.1-2.3,1.62-1.53,4.52-2.79,9.13-4.09,13.73C159,328.78,159.39,329.14,159.56,329.44Z"/><path class="cls-2" d="M155.32,348.73c1.88-5,1-10.48,2.29-15.61-1.67-.69-1.41.73-1.44,1.47a64.63,64.63,0,0,1-2,14c-.08.33-.42,1,.41.88C154.84,349.4,155.06,349,155.32,348.73Z"/><path class="cls-13" d="M173.34,340c-1.8-3.36-5.1-4.5-8-2.77q-.57.43,0,.81c2.22-.24,4.3-.21,5.9,1.76C171.69,340.26,172.57,341,173.34,340Z"/><path class="cls-6" d="M165.41,338l0-.81c-3.41.44-5.24,2.39-5.57,5.8.72-.11,1.29.12,1.68-1.11C162,340.14,163.16,338.36,165.41,338Z"/><path class="cls-22" d="M174.52,329.6l.12,4.76V340h.74V329.47a.37.37,0,0,0-.63,0Z"/><path class="cls-2" d="M161.16,226c-2.69,2.21-.63,4.75-.49,7.15a.7.7,0,0,0,.32,0,.94.94,0,0,0,.26-.23,2.62,2.62,0,0,0,.7-1.51,12.86,12.86,0,0,0-.18-4.46A4.46,4.46,0,0,0,161.16,226Z"/><path class="cls-10" d="M174.75,329.45l.63,0c.65.17,1,1.51,1.54,1,1-.9-.15-2.06-.31-3.09-.06-.42-.7.57-1.21.66A1.32,1.32,0,0,0,174.75,329.45Z"/><path class="cls-16" d="M162.48,233c1.54-2.21.65-4.62.55-7a.52.52,0,0,0-.29-.05,1.26,1.26,0,0,0-.28.19c-1,1.43-.46,3.06-.6,4.6A3.12,3.12,0,0,0,162.48,233Z"/><path class="cls-23" d="M162.45,231.07c0-1.62,0-3.25,0-4.88l-1.3-.16.09.85c.56,1.29,0,2.67.34,4A.65.65,0,0,0,162.45,231.07Z"/><path class="cls-16" d="M157,348.74l0,2.13c.39.08.93.57,1.14,0C158.51,349.83,157.78,349.22,157,348.74Z"/><path class="cls-24" d="M162.45,231.07,162,231c-.47,0-.52.47-.75.73l0,1.26,1.23.07Z"/><path class="cls-21" d="M203.93,126.15a3.55,3.55,0,0,0-5,.7V129a.75.75,0,0,0,.92,0c1.21-1.25,1.63-.45,1.94.7h0C202.73,128.66,203.78,127.68,203.93,126.15Z"/><path class="cls-9" d="M204.65,121.16c-.53-.1-.89-1.27-1.29-.7-.68,1-1.82,2.06-1.13,3.47a13.71,13.71,0,0,0,1.71,2.22C204.83,124.58,205.56,123,204.65,121.16Z"/><path class="cls-10" d="M201.8,129.72c-.11-3.65-1.88-.59-2.86-.71a1.45,1.45,0,0,0-.71,1.42c.67.88,1.15.45,1.53-.26C200.27,129.19,201,129.31,201.8,129.72Z"/><path class="cls-8" d="M198.94,135.42c-1.28-1.73-1.42,0-2.15.68,1.11.54,1.45-.62,2.15-.68Z"/><path class="cls-25" d="M161.22,231.68,162,231c-.36-1.33.44-2.88-.72-4.07Z"/><path class="cls-1" d="M294.82,314.5a4,4,0,0,0-1.31-2.24,12,12,0,0,1-3.46-5c-2.89-2.46,0-4.74.24-7.09-.64-2.28-1.48-4.18-4.25-4.8s0-1.95-.05-3c-1.72-6.38,1.28-11.91,3.42-17.49A28.51,28.51,0,0,0,291,260.26c-1.33-9,.88-17.28,3.94-25.52l2.62-7.31c-.59-2.3-1.22-4.6-.62-7a9,9,0,0,0,.67-6.56c-.95-4.39-.62-8.9-1.75-13.23A55.07,55.07,0,0,1,298.54,182c1.94-2.49,2.28-5.65,2.5-8.48.44-5.59,4.18-9.6,5.89-14.52.8-3.83,2.83-7.19,4.08-10.84a19.77,19.77,0,0,0,1.46-5.86c-1-1.85,1.22-3.6.07-5.61-.61-1.07-.65-2.45-2.11-2.87-1.78,1.1-1.88,2.83-1.63,4.63s-.86-.05-1.09.44c-1.84,3.51-4,6.83-5.1,10.7a1.82,1.82,0,0,1-1.33,1.49l-5,4.33a2.71,2.71,0,0,1-2.14,2c-2.7-.39-3.36-1.71-2-4.1-.19-1.5-2.24-1.27-2.62-2.76-.3-.17.45-.67.16-.29-.11.14-.1.24,0,.3,2.76,1.15,3.83.74,3.77-1.8-.11-4,.6-8-.6-12-1.9-6.24-5.26-7.59-12.3-6.22-.71.13-1.34.4-2,0-5.08,3.1-6.8,8.19-5.05,14.88a14.39,14.39,0,0,1,.83,5.71c.08,1.19,1.1,1.83,1.82,2.45,1.86,1.59,1.82,3,.19,4.66-1.86.9-2.93-.34-4-1.49-4.11-1.21-6.33-4.1-7.87-8-1-2.55-2.84-4.77-4.31-7.14-2.47-1.34-1.95-4-2.78-6.13-1.11-1.64-2.84-2.9-3.24-5l-4.82-7.86c-.84-.49-1.36-1.12-.87-2.15l-.54-.72c-1.53-1-2.85-2.13-2.28-4.26-.6-1.78-.57-4.19-3.19-4.24-1.46,0-3.74-.07-4.12,1.23-.44,1.51-1,3.71.94,5.14.8.59,1.07,1.81,2.24,2,2.83-.49,3,1.78,3.43,3.51.91,4,1.87,8,2.95,12s3.79,7,5.77,10.43c.8,2.86,2.73,5.32,2.95,8.39a14.86,14.86,0,0,0,2.7,5c2.31-.23.75,2.42,2.13,2.88l.67.66a33.43,33.43,0,0,1,3.54,6.1c1.76,2.47.8,5.9,2.89,8.26,1.85,1.74,1.4,4.15,1.63,6.26.32,3.08.73,6.23-.23,9.31l0-.07c-.84,3.16-1.48,6.4-4.25,8.6-5.08,3.55-4.22,9.44-5.64,14.42-.26.91.79,1,1.36,1.35,2.85,2.57,3.64,6.47,6.13,9.33,1.62,1.86,3.27,3.95,3.54,6.66a52,52,0,0,1-.1,16.75,18.75,18.75,0,0,0-.05,6.34c2.94,5.57,3.37,5.8,8.67,4.85.14,0-.07.07-.09.08a.7.7,0,0,0-.25.9c.51,0,.7.32.82.74,1,1.73-.11,3.43-.16,5.14a102.3,102.3,0,0,0,1,14,11.73,11.73,0,0,1-.56,5.85,24.88,24.88,0,0,0-3.41,11.21,3.09,3.09,0,0,0,.12,2c2.12,3.5.94,6.48-1.19,9.51-1,1.45-2,2.9-3.15,4.27l.05,0c-5.6,7.7-7.63,16.74-9.67,25.77a3,3,0,0,1-.59.88c-1.58,4.91-2.85,9.87-2.54,15.11.05.88.15,1.91-.89,2.46l0,0c3,4.35,2.83,9.52,3.44,14.39a194,194,0,0,0,4.29,21.17c1.15,4.75.93,9.6,1.32,14.4,0,.46-.31.56-.63.68l.1-.08c-.61,3.86-2.44,7.36-3.1,11.22a84.2,84.2,0,0,0-1.17,21.1c.66,8.49-.18,17.06.28,25.57.43,7.82-1,15.48-1.08,23.22a17.65,17.65,0,0,1-1.3,4c-1.09,2.23-1.73,4.59-.81,7.16.53,1.45.7,3-.93,4.1-1.86,1.28,1.09,3-.32,4.44-.44,1-.88,1.93-1.31,2.9-.18,1-1,1.55-1.61,2.27s-1.63.92-1.26,1.9,1.53,1.3,2.62,1.49c2.07.36,3.86-1,5.88-.84,2.26-.66,4-2.69,6.78-2.06,1.29.29,1.61-1,1.74-2.09a6,6,0,0,1,.39-5.54l-.1.11c.79-1.74,3.4.35,4-1.89a12.27,12.27,0,0,1,.19-2.46c4.34-10.55,2.36-21.9,4.22-32.75.42-2.47-1.63-5.14.67-7.41,1.74-2.9,2.29-6.15,2.77-9.43.16-1.09-.16-2.5,1.55-2.73,2.13,3.25,1.92,7.17,3.06,10.72,1.84,5.76,2.1,11.77,2.24,17.76,0,.72.51,1.69-.6,2.14l.1-.08c-1.85,6.88-3.25,13.76-.13,20.69a4.78,4.78,0,0,1,.24,3.13c-1.14,4.16.21,7.59,2.85,10.7l0-.05a21.12,21.12,0,0,1,2.28,2.8c.35.45.75.81,1.39.62.64-.5,1.37-.21,2.06-.27,2.84-.24,4.91-1.14,5.33-4.51s0-6.57.18-9.71c.29-4.21.15-8.53,1.05-12.72.54-8.51-.21-17-.3-25.51-.05-5.54-.54-11,1.08-16.55s1.05-11.26,1.33-16.92c.06-1.19-.73-2.58.57-3.59-1.67-8-2.5-16.11-5.47-23.77-.55-.18-.62-.68-.62-1.12,0-5.82-1.14-11.48-2.28-17.14a8,8,0,0,1,.24-3.51c1.52-6.42,1.61-13.08,3.25-19.48.56-2.2,0-4.49.68-6.67.52-4.85-.88-9.46-1.73-14.14-2.51-6.5-3.26-13.42-4.68-20.18-.43-2.07-1.34-4-1.73-6.09C295.71,316.76,294.52,315.89,294.82,314.5Z"/><path class="cls-2" d="M262.79,491.39c1-5.4.77-10.89,1.2-16.33.5-6.11.12-12.21.2-18.31.1-6.85-.09-13.68-.6-20.53a56,56,0,0,1,3.48-22.93,6.39,6.39,0,0,0,.52-4.15c-4.68,10-5.55,20.52-4.95,31.36.36,6.5.32,13,.45,19.54.2,10.45-.58,20.87-1.28,31.28A.6.6,0,0,0,262.79,491.39Z"/><path class="cls-3" d="M295,234.74c-.27-.15-.38-1.67-.72-.44-2.35,8.35-5.44,16.52-3.81,25.59,1.26,7-.54,13.86-3.53,20.24a17.7,17.7,0,0,0-1.3,12.95c-.81,2.21,1.08,2.43,2.32,3,.75.34,1.69.32,1.35-1,0-2.25-3.7-2.16-3.07-4.81a8,8,0,0,1,0-4.26c2-6.12,5.84-12.1,5.55-18.41C291.22,256.35,291.64,245.46,295,234.74Z"/><path class="cls-4" d="M308.34,430.05l-1.32-2v13.82a29.35,29.35,0,0,1-.59,6.32c-2.67,12.13-1.7,24.37-.92,36.61.17,2.66.67,5.44-.62,8,.36.37.55,1.06,1.3.71.77-8.87,0-17.72-.31-26.57-.22-5.55-.28-11,1.06-16.5C308.57,443.81,308.59,436.91,308.34,430.05Z"/><path class="cls-5" d="M278.5,130.52c1.18,1.85,2.31.25,3.55.06,5.67-.87,10.46,3.36,10.69,9.29.09,2.61-.12,5.23.06,7.83.11,1.6-.37,2.63-1.91,2.63-2,0,.94-2-1-2.22-1.9,2.71-.61,4.21,2.19,5.16,1.19.12,2.22-.16,2.1-1.58-.42-5.17.86-10.4-.64-15.54s-2.82-6.33-8.37-6.52a6.05,6.05,0,0,0-3.92.05Z"/><path class="cls-2" d="M303.46,358c.2,4.41-1.66,8.59-1.88,12.82-.41,8.2-4.07,16.34-.77,24.67,1.37,3.47-.36,7.36,1.27,10.84,0,.08.16.22.2.2a3.91,3.91,0,0,0,.59-.26,64,64,0,0,0-2-16.13,15.62,15.62,0,0,1,0-6.35c1.15-6.62,2.23-13.25,3.31-19.88a9.59,9.59,0,0,0,0-4.23C304.44,358.91,304.91,358,303.46,358Z"/><path class="cls-6" d="M267.49,409.22c2.06-2.87,1.24-6.18.77-9.11-1.14-7.21-3-14.29-4.36-21.47-.83-4.39-1.25-8.85-1.81-13.29-.32-2.57-.5-5.19-3-6.77-1,.6-.84,1.35-.07,1.91a4,4,0,0,1,1.76,3.23c.66,1.41-.16,3,.55,4.4.62,11.61,5,22.57,5.89,34.13.52,1.28,0,2.7.52,4C267.64,407.23,267.57,408.23,267.49,409.22Z"/><path class="cls-3" d="M281.33,463.56c-1.49-.51-1.82.64-1.66,1.53,1.09,5.94-.39,11.79-.6,17.68-.18,5.26,0,10.67-1.49,15.79-.84,2.83-2.31,5.46-1.95,8.55-.24.13-.33.26-.24.39s.16.2.24.2a1.68,1.68,0,0,0,1.42-1.32c2.85-10.89,3.38-22,3.67-33.2a18.51,18.51,0,0,0,0-6.88Z"/><path class="cls-7" d="M293.41,516.46c0-2.06-2.41-3.1-2.28-5.26,0-.41-.51-.87-.46-1.26,1.09-9.11-3.68-18.19-.14-27.31.07-.19,0-.46-.08-.69-2.15,4.69-3.72,9.68-2.39,14.71a54.12,54.12,0,0,1,1.8,14.18C289.86,513.34,291.34,515.14,293.41,516.46Z"/><path class="cls-6" d="M290.35,482c1.48-.68.84-2,1-3.12,1.17-9.66-3-18.5-4.37-27.78-.19-1.33-.91-.12-1.3.28C287.76,461.52,290.9,471.49,290.35,482Z"/><path class="cls-8" d="M254.23,145.41c-4.83-6.2-7.14-13.42-8.53-21a29,29,0,0,0-1.19-4.06c-.64-1.84-1.7-2.14-3.1-.69,2,.62,2.46,2.21,2.84,4,1.63,7.73,3.1,15.54,8.62,21.74A.9.9,0,0,0,254.23,145.41Z"/><path class="cls-9" d="M327,114.67c.78-.08,1.14-.64,1.49-1.24.47-1.93,2.1-4.44-.53-5.5-2.13-.86-3.13,1.66-4.1,3.32a2.56,2.56,0,0,1-1.18,1.23l-1.2,1.57c-.68,2.41-3.62,4.65-.55,7.35,3.09-.45,1.91-3.76,3.5-5.22C325.26,115.66,325.62,114.31,327,114.67Z"/><path class="cls-4" d="M306.19,493.54l-1.3-.71a56,56,0,0,1-.84,11.62c-.49,2.57.58,5.15.2,7.85-.69,4.82-1.14,7-6.72,6.72-.15,0-.33.53-.49.81,5.9.68,7.37-.13,8.22-5.71.41-2.75,0-5.76.08-8.49C305.38,501.7,304.85,497.47,306.19,493.54Z"/><path class="cls-7" d="M272.67,314.43c5.34-3.78,6.3-7.8,5.1-14-.57-2.94-.83-6.67,1.53-9.52a4.76,4.76,0,0,0,1.32-2.81c-.26-.39-.56-.41-.89-.07-3.7,3-2.09,7.91-4.12,11.52a.37.37,0,0,0,0,.34c4.36,5.45,0,9.14-2.62,13.2A4.46,4.46,0,0,0,272.67,314.43Z"/><path class="cls-8" d="M295.61,317.33c-.59,3.41,1.68,6.18,2.06,9.45.63,5.49,2.06,10.88,3.22,16.31.06.28.74.43,1.13.65.52-.34.24-1,.62-1.42-2.86-6.64-2.77-14-4.87-20.8-.54-1.78-.79-3.65-2-5.13A.54.54,0,0,0,295.61,317.33Z"/><path class="cls-10" d="M262.8,340.89c2.23-3.81,2.53-8.27,4-12.35s2.6-8.34,5.47-11.8a3.1,3.1,0,0,0,.48-2.35,22.9,22.9,0,0,0-6.4,10.75c-1,3.13-1.63,6.36-2.7,9.45a12.82,12.82,0,0,0-.87,5.46.49.49,0,0,0-.17.57C262.66,340.8,262.73,340.89,262.8,340.89Z"/><path class="cls-5" d="M322.66,112.48c1.12.82,1.77.2,1.78-.84,0-1.82,2.17-1.57,2.56-3,.21-.74.62-.33.95,0s1,.79.59,1.43c-.69,1.13-.25,2.23-.07,3.35.76-1.49,3.74-1,3.21-3.68-.79-4.09-1.69-4.55-6.13-2.91-.22.85-.35,1.75-1.28,2.19Z"/><path class="cls-10" d="M324.15,115.46c-1.84,1.49-.6,4.92-3.57,5.7l-.25.38a28.25,28.25,0,0,1-.82,4c-.13.27-.24.55-.37.82a36.2,36.2,0,0,0-1.95,3.63,43.31,43.31,0,0,1-2.14,4.64,3.74,3.74,0,0,0-.42.82,2.71,2.71,0,0,0,.38,1.76,1.48,1.48,0,0,0,.67.59c2.54-2.53,3.41-6,4.69-9.11,1.45-3.55,2.58-7.23,3.85-10.85A2.33,2.33,0,0,0,324.15,115.46Z"/><path class="cls-11" d="M271.36,256.69c.34-6.37.56-12.75,1.07-19.11.17-2.14-1.32-3.8-1.08-5.84a.47.47,0,0,0-.81,0c.29,6.56,1.09,13.1-.52,19.65-.5,2-.74,4.49,1.21,6.27A.61.61,0,0,0,271.36,256.69Z"/><path class="cls-12" d="M279.73,288l.89.07c1-3.71.75-7.38.3-11.17-.5-4.27-.93-8.65.32-12.9.39-1.35-.77-1.11-1.22-1.59-1.52,5.89-.74,11.81.06,17.66A20.12,20.12,0,0,1,279.73,288Z"/><path class="cls-8" d="M295.61,200.34c.76,4.1.34,8.29,1.22,12.42a11.23,11.23,0,0,1-.51,7.56c.31.29.39.78.83,1,2.23-2.84,1.54-6.1.89-9.12-.9-4.15-.38-8.48-1.84-12.52C295.64,199.56,295.23,199.61,295.61,200.34Z"/><path class="cls-13" d="M270.54,231.76l.81,0c-1.35-5.22-5.79-8.64-7.87-13.46-.43-1-.49-2-.84-3-.93.08-.9,1-1.29,1.5C263.46,222.35,267.1,227,270.54,231.76Z"/><path class="cls-14" d="M262.79,491.39l-1-.07c-1.65,3.45-3.58,6.84-1.82,10.88.19.45.11,1.43-.2,1.63-2.72,1.82-1.39,4-.63,6.1.38-3.31,3.43-5.95,1.66-9.94C259.56,497.14,262.13,494.29,262.79,491.39Z"/><path class="cls-8" d="M262.8,340.89c0-.28,0-.56-.05-.84-2.9,4-3,8.69-3.52,13.27-.2,1.75-.14,3.52-.2,5.29,1.72-.41,1.62-1.78,1.62-3.09,0-4.38-.21-8.79,2.59-12.63C263.51,342.52,263,341.57,262.8,340.89Z"/><path class="cls-13" d="M307.74,139c.43.64.86,1.28,1.33,2,1.17-2.31-.56-5.05,1.52-7,1.33-1.08,2.61-2.22,3.89-3.36a6.45,6.45,0,0,0,.9-1.75,3.6,3.6,0,0,0,.06-2,1.72,1.72,0,0,0-.61-.8c-3.61,3.69-6.45,7.83-7.7,12.93C307.33,139.34,307.53,139.36,307.74,139Z"/><path class="cls-10" d="M314.83,126.06l0,.79,5-.7h0c.67-1.61-2.51-3.76.72-5h0c-.53-2.41-.48-4.67,1.61-6.41l-.73-.7C318.48,117.63,316.93,122,314.83,126.06Z"/><path class="cls-7" d="M263.48,517.65c-1.23-1.12-2.41-.16-3.65,0-1.49.24-3,.36-4.28-.84.52-1.5,3.42-1.6,2.3-4-1.74,1.42-5,2.54-3.47,5.25,1.25,2.3,4.23,1.2,6.5.59A23,23,0,0,0,263.48,517.65Z"/><path class="cls-14" d="M289.28,295c-2.08,1-2.84-.57-3.67-1.95-.83-.38-1.64-.56-2,.59-.23.83-.33,2,.67,2.09,2.91.29,4.37,2.18,5.59,4.46a.86.86,0,0,0,1.32,0A8.63,8.63,0,0,0,289.28,295Z"/><path class="cls-11" d="M295.61,200.34l.59-.7c.21-6,1.66-11.78,2.34-17.69-.6-.66-1.22-.33-1.26.29-.35,6-2.51,11.79-1.94,17.88C295.35,200.2,295.52,200.27,295.61,200.34Z"/><path class="cls-15" d="M307.74,139h-.61c-2.8,3.6-4.43,7.77-5.85,12,1.64,1,2-1.1,2.05-1.41C304.13,145.79,307.36,143,307.74,139Z"/><path class="cls-3" d="M302.64,342.32c-.21.47-.41.94-.62,1.42.55,3.66,1,7.34,1.7,10.95a4.41,4.41,0,0,1-.26,3.32c.65.37.71,1,.79,1.68,1.62-5.37-.36-10.46-1.21-15.64C303,343.47,302.77,342.89,302.64,342.32Z"/><path class="cls-8" d="M271.36,256.69c0,.33-.08.66-.13,1,1.88,4.71,4,5.76,8,4l2.37-1.92C276.66,261.43,273.55,260.2,271.36,256.69Z"/><path class="cls-13" d="M310.58,148.26c-2.71,2.49-1.81,6.74-4.46,9.29-.09.09.53.92.81,1.4,1.59-3.26,3.56-6.36,4.33-10A1.28,1.28,0,0,0,310.58,148.26Z"/><path class="cls-8" d="M310.58,148.26l.68.71c1.67-3.65,1.84-7.9,4.42-11.2l-.11-.94c-1.38-.78-1.93.16-2.2,1.21-.34,1.32-1.63,2.28-1.36,3.8C311.53,144,311.06,146.12,310.58,148.26Z"/><path class="cls-16" d="M269.84,192.48c1.72-5.2.82-10.36-.3-15.5-.11-.5-.7-.52-1.1-.07A58.2,58.2,0,0,1,269.84,192.48Z"/><path class="cls-13" d="M257.08,135.43c-.48,1.77,1,3.54,0,5.31,1.3-.49,1.85.44,2.45,1.28a.7.7,0,0,0,.31-.14,1.15,1.15,0,0,0,.2-.29,19.37,19.37,0,0,0-2.94-7C256.76,134.86,256.74,135.14,257.08,135.43Z"/><path class="cls-6" d="M265.63,201c2.75-1,4.28-4.12,4.25-8.6Q267.75,196.72,265.63,201Z"/><path class="cls-5" d="M254.23,145.41h-1.36l3.64,8.55c1.21-1.05.57-1.84-.08-3A39.1,39.1,0,0,1,254.23,145.41Z"/><path class="cls-17" d="M289.9,307.38c.06,2.47,1.1,4.22,3.61,4.88a19.93,19.93,0,0,0-3.56-5.74C289.57,306.78,289.56,307.07,289.9,307.38Z"/><path class="cls-4" d="M289.9,307.38l.05-.86c-1.8-2.55,1-4.17,1.27-6.3H289.9C289.45,302.6,286.21,305,289.9,307.38Z"/><path class="cls-8" d="M297.15,221.28l-.83-1c.47,2.36-1.16,5.1,1.27,7.11C298.36,225.31,297,223.35,297.15,221.28Z"/><path class="cls-6" d="M257.08,135.43c0-.27,0-.55.05-.83l-3.08-4.14c-1.14.71-1.09,1.37,0,2.08S255.65,134.92,257.08,135.43Z"/><path class="cls-6" d="M265.55,168.65a8.32,8.32,0,0,0-3.54-6.1A12,12,0,0,0,265.55,168.65Z"/><path class="cls-3" d="M274.28,151.11c1.43-2.15.25-3.92-.83-5.71C273.55,147.33,273,149.35,274.28,151.11Z"/><path class="cls-18" d="M272.25,156.73c1.23,2.23,2.6,2.87,4.39,2a.67.67,0,0,0-.09-.32,1.47,1.47,0,0,0-.26-.23Z"/><path class="cls-3" d="M261.34,161.89c.56-.85-1.46-1.81.1-2.6.43-.21.51-.53.17-.73a1.68,1.68,0,0,0-2.4.45C259.59,160.21,260,161.37,261.34,161.89Z"/><path class="cls-2" d="M245.54,115.47c-1.4,2.57,0,3.64,2.28,4.26Z"/><path class="cls-8" d="M248.36,120.45c-.39.25-1.76-.38-1,.71.28.42,0,2.74,1.87,1.44Z"/><path class="cls-19" d="M272.39,508c-1.54,1.75-2,3.58-.39,5.54Z"/><path class="cls-1" d="M280.68,466.3q0,3.43,0,6.88C281.29,470.88,282,468.58,280.68,466.3Z"/><path class="cls-16" d="M324.15,115.46l.07,2.35c.91-1.06,1.42-2.47,2.76-3.14C325.59,113.32,325.14,115.37,324.15,115.46Z"/><path class="cls-18" d="M295.65,519.21c.21-1.73-1.23-2.1-2.28-2.8A3,3,0,0,0,295.65,519.21Z"/><path class="cls-4" d="M275.63,507.7v-.59c-1.25-.15-2.8-1.35-3.34,1Z"/><path class="cls-18" d="M294.1,157.37c1.7.38,2.26-.45,2.14-2Z"/><path class="cls-14" d="M286.2,286a3.54,3.54,0,0,0,0,4.26C286.21,288.8,286.2,287.38,286.2,286Z"/><path class="cls-1" d="M261.31,368.12c0-1.48.57-3.05-.55-4.4C260.92,365.19,260.46,366.74,261.31,368.12Z"/><path class="cls-1" d="M281.23,129.68l3.92-.05A3.41,3.41,0,0,0,281.23,129.68Z"/><path class="cls-4" d="M295.61,317.33c0-.31.07-.62.11-.94a2.47,2.47,0,0,0-.9-1.89C293.75,315.82,294.88,316.52,295.61,317.33Z"/><path class="cls-6" d="M267.72,406.24c-.1-1.34.52-2.77-.52-4C267.11,403.61,266.88,405,267.72,406.24Z"/><path class="cls-9" d="M324.27,109c1.46-.13,2-.78,1.28-2.19A3.49,3.49,0,0,0,324.27,109Z"/><path class="cls-20" d="M284.78,310.45c-2.78-1.12-1.8,2.38-3.37,2.75-2.38,2.08-2.54,5.2-3.47,7.88s-2.18,5.42-2.46,8.36a8.26,8.26,0,0,1-2,3.68c-.36.3-.78.67-.79,1.12-.13,4.87-1.42,9.62-1.5,14.49.25,1,0,2.26,1.67,2.14a1.83,1.83,0,0,0,0-2.13,6.34,6.34,0,0,1,2.87-5.72c1.32-2.34,2.47-4.84,5.51-5.42,3.38-1.56,5.64.63,8,2.39,1.52-1.63,0-4,1.3-5.63.86-1.47.33-3,.34-4.57C287.79,323.68,287.67,316.63,284.78,310.45Z"/><path class="cls-21" d="M312,141.84c1.15-1.7,1.51-4,3.56-5l-.7-1.41c-.48,0,0,.43-.22,0-.09-.21.11-.27.22,0,2-1.35,2.69-3.41,2.85-5.7l-.22-.45c-1.69-1.27-2.2.85-3.34,1.16-1.56.82-3.39,1.37-3.57,3.57.65,2.09,3,4,.29,6.39C310.39,140.82,311.39,141.51,312,141.84Z"/><path class="cls-10" d="M284.78,310.45c1.57,6.48,2.59,13.12,5.66,19.15l.39-.07a2.43,2.43,0,0,0,.5-1.49c-3.56-5.05-3.2-11.32-5.21-16.85C285.84,310.44,285.79,310.35,284.78,310.45Z"/><path class="cls-12" d="M275.48,329.44c2.67-5.16,3.53-11,5.93-16.24-1.7-.83-2.13,1.1-2.3,1.62-1.53,4.52-2.8,9.13-4.09,13.73C275,328.78,275.32,329.14,275.48,329.44Z"/><path class="cls-2" d="M271.24,348.73c1.88-5,1.05-10.48,2.29-15.61-1.67-.69-1.4.73-1.43,1.47a65.25,65.25,0,0,1-2,14c-.09.33-.43,1,.41.88C270.76,349.4,271,349,271.24,348.73Z"/><path class="cls-13" d="M289.27,340c-1.81-3.36-5.1-4.5-8-2.77q-.58.43,0,.81c2.21-.24,4.29-.21,5.9,1.76C287.62,340.26,288.49,341,289.27,340Z"/><path class="cls-6" d="M281.34,338l0-.81c-3.41.44-5.25,2.39-5.57,5.8.72-.11,1.29.12,1.67-1.11C278,340.14,279.09,338.36,281.34,338Z"/><path class="cls-22" d="M290.44,329.6c0,1.59.08,3.17.13,4.76V340h.74V329.47a.37.37,0,0,0-.63,0Z"/><path class="cls-2" d="M277.09,226c-2.7,2.21-.64,4.75-.49,7.15a.7.7,0,0,0,.32,0c.1,0,.17-.15.26-.23a2.62,2.62,0,0,0,.7-1.51,13.11,13.11,0,0,0-.18-4.46A4.89,4.89,0,0,0,277.09,226Z"/><path class="cls-10" d="M290.68,329.45l.63,0c.65.17,1,1.51,1.53,1,1-.9-.15-2.06-.3-3.09-.07-.42-.71.57-1.21.66A1.31,1.31,0,0,0,290.68,329.45Z"/><path class="cls-16" d="M278.41,233c1.54-2.21.65-4.62.55-7a.52.52,0,0,0-.29-.05c-.11,0-.19.13-.29.19-1,1.43-.45,3.06-.6,4.6A3.12,3.12,0,0,0,278.41,233Z"/><path class="cls-23" d="M278.38,231.07v-4.88l-1.29-.16.09.85c.56,1.29,0,2.67.33,4A.66.66,0,0,0,278.38,231.07Z"/><path class="cls-16" d="M272.87,348.74l0,2.13c.39.08.94.57,1.14,0C274.43,349.83,273.7,349.22,272.87,348.74Z"/><path class="cls-24" d="M278.38,231.07l-.48-.12c-.48,0-.52.47-.75.73l0,1.26,1.23.07Z"/><path class="cls-21" d="M319.86,126.15a3.55,3.55,0,0,0-5,.7V129a.76.76,0,0,0,.93,0c1.2-1.25,1.62-.45,1.93.7h0C318.65,128.66,319.71,127.68,319.86,126.15Z"/><path class="cls-9" d="M320.58,121.16c-.54-.1-.9-1.27-1.29-.7-.69,1-1.82,2.06-1.13,3.47a13.64,13.64,0,0,0,1.7,2.22C320.75,124.58,321.49,123,320.58,121.16Z"/><path class="cls-10" d="M317.72,129.72c-.11-3.65-1.87-.59-2.86-.71a1.44,1.44,0,0,0-.7,1.42c.67.88,1.15.45,1.52-.26C316.2,129.19,316.92,129.31,317.72,129.72Z"/><path class="cls-8" d="M314.87,135.42c-1.28-1.73-1.42,0-2.16.68,1.12.54,1.46-.62,2.16-.68Z"/><path class="cls-25" d="M277.15,231.68l.75-.73c-.37-1.33.43-2.88-.72-4.07Z"/><polygon class="cls-26" points="4.99 109.98 91.19 112.95 100.11 5.95 10.93 2.97 4.99 109.98"/><polygon class="cls-26" points="329.81 110.18 241.25 113.53 236.08 4.73 323.87 3.17 329.81 110.18"/><polygon class="cls-26" points="211.57 111.47 125.37 114.44 125.37 4.46 211.57 1.49 211.57 111.47"/><path d="M74.47,10.38l-1.5,63,6.84.16-.39,16.42-6.84-.16-.4,17-24-.57.4-16.95L20,88.5l.39-16.42L42.64,9.62ZM48.93,72.76l1-41L38.31,72.5Z"/><path d="M198.27,42.27l.19,32.14q.06,10.95-1.1,16a22,22,0,0,1-4.88,9.38,21.37,21.37,0,0,1-9,6.3,35,35,0,0,1-11.84,2,44.08,44.08,0,0,1-14.35-1.91,19.64,19.64,0,0,1-9.14-6.17,26.53,26.53,0,0,1-4.87-8.87q-1.46-4.65-1.52-14.84l-.19-33.62q-.08-13.28,2.18-19.89a19.62,19.62,0,0,1,9-10.65Q159.57,8,169.27,8a34.66,34.66,0,0,1,14.18,2.69,23.57,23.57,0,0,1,9.38,6.7,22.17,22.17,0,0,1,4.25,9Q198.21,31.33,198.27,42.27Zm-24.09-8q0-7.68-.79-9.61c-.51-1.29-1.67-1.92-3.5-1.91a3.45,3.45,0,0,0-3.53,2.07q-.84,2.05-.8,9.5l.27,47q0,8.4.86,10.11c.54,1.15,1.7,1.72,3.49,1.71s2.95-.69,3.5-2,.81-4.39.78-9.12Z"/><path d="M304.41,8.86l2.78,62.9,6.84-.3.73,16.41-6.84.3.75,16.94-24,1.07-.75-17L255.36,90.5l-.72-16.41,18-63.82Zm-21.23,64-1.82-41-8.8,41.43Z"/></g></g></svg>