<svg xmlns="http://www.w3.org/2000/svg" viewBox="0 0 35 33.54"><defs><style>.cls-1{fill:#fff;}</style></defs><title>united-cheer-sports-dortmund-like-instagram</title><g id="Ebene_2" data-name="Ebene 2"><g id="Ebene_1-2" data-name="Ebene 1"><path class="cls-1" d="M35,9.25c0-.32,0-.5,0-.5h0A9.47,9.47,0,0,0,17.5,4.44,9.47,9.47,0,0,0,0,8.75H0s0,.18,0,.5c0,.08,0,.15,0,.23a9.75,9.75,0,0,0,.19,1.88,19.73,19.73,0,0,0,6.4,12.36L17.5,33.54l10.86-9.77A19.93,19.93,0,0,0,34.8,11.4,9.33,9.33,0,0,0,35,9.48C35,9.4,35,9.33,35,9.25Z"/></g></g></svg>