<svg xmlns="http://www.w3.org/2000/svg" viewBox="0 0 852.61 128.91"><defs><style>.cls-1{fill:#fff;}</style></defs><title>Element 1</title><g id="Ebene_2" data-name="Ebene 2"><g id="Ebene_1-2" data-name="Ebene 1"><path class="cls-1" d="M38.89,56.3l12,40.87a71.25,71.25,0,0,1,2.39,9.9,13.75,13.75,0,0,1-1.06,6.59,15,15,0,0,1-4.68,6.28,24.68,24.68,0,0,1-8.3,4.2,27,27,0,0,1-10.42,1.27,15.67,15.67,0,0,1-7.9-2.64,13.45,13.45,0,0,1-4.48-5.27q-1.42-3.07-4.76-13.33Q5.83,86.25,0,68.32q8.48-2.76,17-5.4,7.09,22.81,14.18,45.62a18.39,18.39,0,0,0,2,5,1.85,1.85,0,0,0,2.15.55A2,2,0,0,0,37,112.21a22.86,22.86,0,0,0-1.32-5.91Q28.74,83.86,21.85,61.41,30.35,58.8,38.89,56.3Z"/><path class="cls-1" d="M83.73,44,99.6,105.68q-7.18,1.84-14.35,3.77-8-12.84-16.21-25.6l7.71,27.92q-6.82,1.89-13.64,3.85Q54.31,85,45.49,54.39q7.14-2.05,14.3-4,8.61,12.49,17,25.09L69.39,47.74Q76.56,45.82,83.73,44Z"/><path class="cls-1" d="M107.84,38q7.39,31,14.77,62-8.22,2-16.43,4Q98.41,73.11,90.63,42.22,99.23,40,107.84,38Z"/><path class="cls-1" d="M149.58,28.73l2.58,12.49q-5.1,1.05-10.19,2.14,5.33,24.92,10.66,49.83-8.25,1.77-16.49,3.64Q130.5,72,124.85,47.13q-5.07,1.15-10.12,2.34l-2.91-12.41Q130.66,32.64,149.58,28.73Z"/><path class="cls-1" d="M153.53,27.92Q168,25,182.47,22.36l2.28,12.55c-3.84.69-7.66,1.4-11.49,2.13l2.25,11.87q5.33-1,10.66-2,1.08,6,2.17,11.92-5.28,1-10.57,2,1.32,6.88,2.62,13.76,6.13-1.17,12.28-2.27,1.14,6.27,2.27,12.55-14.38,2.58-28.73,5.5Q159.88,59.15,153.53,27.92Z"/><path class="cls-1" d="M188.63,21.26q6.51-1.16,13-2.24c8.41-1.4,14.16-1.91,17.24-1.65a13.35,13.35,0,0,1,7.31,2.56,11.11,11.11,0,0,1,3.7,5.12A79.81,79.81,0,0,1,232.24,37q1.62,11,3.23,22.07,1.25,8.49.85,11.47a8.65,8.65,0,0,1-2.17,4.9,12.13,12.13,0,0,1-4.65,3,47.57,47.57,0,0,1-8.84,2Q210.18,82.16,199.71,84,194.16,52.64,188.63,21.26Zm19.16,7.8q3.39,20.67,6.77,41.36c2.41-.39,3.83-1.1,4.23-2.14s.28-3.65-.39-7.85L214.5,36a31.34,31.34,0,0,0-1.16-5.44,2.61,2.61,0,0,0-1.6-1.55A8.92,8.92,0,0,0,207.79,29.06Z"/><path class="cls-1" d="M294.14,34.64q-8.59.87-17.17,1.84-.63-5.5-1.25-11-.56-4.8-1.24-5.93a2.44,2.44,0,0,0-2.6-.91q-2.14.25-2.55,1.77c-.27,1-.22,3.11.16,6.32L273,56.12c.36,3.07.78,5.06,1.27,6a2.42,2.42,0,0,0,2.68,1.11,2.38,2.38,0,0,0,2.3-1.69q.42-1.47-.17-6.69c-.31-2.65-.61-5.31-.91-8q8.52-1,17-1.82c.09.82.17,1.64.25,2.47q1,9.84,0,14.1t-5.51,7.87a22.11,22.11,0,0,1-11.55,4.41Q271,74.72,266,72.71a13,13,0,0,1-7.25-6.44q-2.16-4.41-3.38-13.7T252.9,34.11a78.14,78.14,0,0,1-.85-10.31,14,14,0,0,1,2.1-7A16.34,16.34,0,0,1,260.36,11a25.9,25.9,0,0,1,9.87-3c5.16-.6,9.53-.13,13.08,1.39s6,3.63,7.33,6.33,2.29,7,2.89,12.92Q293.83,31.62,294.14,34.64Z"/><path class="cls-1" d="M338,3.12l4.26,63.57q-8.38.57-16.76,1.23l-2.13-26.67-5.11.41q1.11,13.34,2.23,26.67-8.39.7-16.74,1.51-3.06-31.71-6.11-63.43,8.78-.84,17.54-1.57,1,11.36,1.9,22.71l5.17-.43q-.9-11.35-1.81-22.71Q329.22,3.71,338,3.12Z"/><path class="cls-1" d="M345.05,2.67q14.65-.91,29.31-1.51.27,6.38.52,12.74-5.81.24-11.63.52l.6,12.07q5.38-.27,10.79-.49l.5,12.11q-5.36.22-10.69.49l.69,14q6.21-.3,12.43-.55l.51,12.74q-14.55.59-29.09,1.48Q347,34.46,345.05,2.67Z"/><path class="cls-1" d="M380.59.92Q395.25.38,409.92.16q.09,6.38.19,12.75-5.81.09-11.63.23.13,6,.29,12.08,5.39-.13,10.79-.22.1,6.06.19,12.12-5.34.09-10.7.22.17,7,.34,14,6.21-.15,12.44-.24L412,63.85q-14.55.21-29.11.74Z"/><path class="cls-1" d="M416.15.08Q422.38,0,428.6,0c8.3,0,13.93.34,16.86,1a11.56,11.56,0,0,1,7.11,4.72q2.71,3.76,2.56,11.91Q455,25,453,27.56c-1.31,1.69-3.84,2.67-7.61,3q5.1,1.27,6.82,3.35a9.69,9.69,0,0,1,2.12,3.8c.26,1.14.35,4.29.26,9.43q-.14,8.4-.29,16.8-7.79-.13-15.59-.18l.12-21.17c0-3.41-.25-5.52-.8-6.34s-2-1.23-4.38-1.23q0,14.35-.05,28.72-8.4,0-16.79.08ZM433.72,10.9q0,7.08,0,14.17a8,8,0,0,0,4.09-.76q1.17-.75,1.19-5c0-1.17,0-2.33,0-3.5,0-2-.36-3.35-1.11-4S435.74,10.9,433.72,10.9Z"/><path class="cls-1" d="M513.43,21.73q-8-.48-16.1-.87c.08-1.57.15-3.14.23-4.71.1-2.2,0-3.62-.42-4.24a2.33,2.33,0,0,0-2-1A2.67,2.67,0,0,0,492.67,12a6.71,6.71,0,0,0-1,3.66,10.17,10.17,0,0,0,.69,4.84c.53,1.11,2.1,2.47,4.71,4.12,7.49,4.75,12.1,8.62,13.91,11.53s2.53,7.5,2.15,13.73q-.4,6.81-2.23,9.92c-1.21,2.09-3.39,3.76-6.56,5.05a25.52,25.52,0,0,1-10.86,1.63,24.83,24.83,0,0,1-11.4-3c-3.11-1.8-5.13-4-6-6.64s-1.28-6.32-1.12-11.1c0-1.39.09-2.78.13-4.17q7.94.25,15.86.61c-.12,2.58-.23,5.16-.35,7.74-.1,2.39,0,3.93.46,4.63a2.61,2.61,0,0,0,2.31,1.13,2.78,2.78,0,0,0,2.57-1.18,7.24,7.24,0,0,0,1-3.81c.18-3.75-.22-6.22-1.22-7.43S492.13,40,488,37.15a84.33,84.33,0,0,1-8.26-6.27,14,14,0,0,1-3.28-5.23,21.58,21.58,0,0,1-1.11-8.38q.23-7.32,2.32-10.64a13,13,0,0,1,6.58-5.06A26.53,26.53,0,0,1,495,.11a28.72,28.72,0,0,1,11.57,2.67q4.71,2.34,6.07,5.6t.92,10.84Z"/><path class="cls-1" d="M521.55,2.92q8.85.57,17.69,1.25a42.82,42.82,0,0,1,10.93,2,12.48,12.48,0,0,1,5.52,3.57,10.22,10.22,0,0,1,2.17,5.07,41.58,41.58,0,0,1-.12,8.86l-.51,5.53q-.57,6.07-2.12,8.74A8.9,8.9,0,0,1,550,41.74a23.75,23.75,0,0,1-9.19.73c-1.53-.12-3.06-.25-4.59-.36l-2,25.58q-8.37-.64-16.76-1.19Q519.5,34.7,521.55,2.92ZM538.27,15q-.63,8.09-1.25,16.17l1.26.14a4.09,4.09,0,0,0,3.38-.86c.68-.7,1.11-2.22,1.3-4.57.15-1.74.29-3.48.43-5.22.18-2.17-.07-3.61-.73-4.32S540.53,15.21,538.27,15Z"/><path class="cls-1" d="M599.81,47.79q-1.2,9.52-2.15,13.44a15.3,15.3,0,0,1-3.77,6.89,15.73,15.73,0,0,1-7.1,4.26,24.6,24.6,0,0,1-9.73.67A25.17,25.17,0,0,1,568,70.4a15.46,15.46,0,0,1-6.13-5.66,15,15,0,0,1-2.3-7.54,133,133,0,0,1,.83-13.75c.34-3.62.69-7.24,1-10.86a132,132,0,0,1,1.77-13.49,14.62,14.62,0,0,1,3.68-7,15.88,15.88,0,0,1,7.3-4.37,25.83,25.83,0,0,1,10.18-.7,26.43,26.43,0,0,1,9.53,2.77,15.73,15.73,0,0,1,6.31,5.81,14.44,14.44,0,0,1,2.2,7.6A126.37,126.37,0,0,1,601.16,37ZM585.11,25q.5-4.41.11-5.7a2.07,2.07,0,0,0-2-1.47,2.4,2.4,0,0,0-2.19.77q-.84.92-1.36,5.81-1.6,14.79-3.2,29.58c-.4,3.67-.49,6-.28,6.85a2,2,0,0,0,2,1.53,2.09,2.09,0,0,0,2.37-1.24,31.21,31.21,0,0,0,1.27-7Z"/><path class="cls-1" d="M611,11.6q6.18.81,12.37,1.66c8.24,1.15,13.77,2.29,16.59,3.32a11.57,11.57,0,0,1,6.41,5.67c1.45,2.73,1.74,6.79.88,12.15q-1.15,7.35-3.47,9.57c-1.54,1.49-4.19,2.1-8,1.88,3.25,1.31,5.35,2.74,6.3,4.27a9.66,9.66,0,0,1,1.58,4.06q.15,1.76-1.06,9.37-1.32,8.3-2.63,16.6-7.73-1.23-15.46-2.36,1.53-10.47,3.07-21c.49-3.37.53-5.5.09-6.39s-1.82-1.5-4.17-1.83q-2,14.22-4.06,28.44-8.32-1.19-16.67-2.27Q606.86,43.18,611,11.6Zm15.93,13.17q-1,7-2,14a7.92,7.92,0,0,0,4.16-.18q1.28-.59,1.89-4.75c.17-1.16.33-2.31.5-3.47.3-2,.11-3.36-.55-4.1S628.89,25.06,626.89,24.77Z"/><path class="cls-1" d="M691.72,24.5q-1.19,6.26-2.38,12.52-5.12-1-10.22-1.9Q674.55,60.2,670,85.26q-8.29-1.5-16.6-2.91l8.49-50.25q-5.1-.87-10.2-1.69,1-6.3,2-12.59Q672.74,20.9,691.72,24.5Z"/><path class="cls-1" d="M728.21,51.67q-7.9-1.74-15.84-3.4l1-4.62c.45-2.16.53-3.58.25-4.25a2.36,2.36,0,0,0-1.86-1.31,2.66,2.66,0,0,0-2.59.71,6.73,6.73,0,0,0-1.54,3.47,10,10,0,0,0-.07,4.89c.35,1.17,1.7,2.77,4,4.81,6.69,5.86,10.65,10.42,12,13.59s1.33,7.8,0,13.9q-1.47,6.65-3.77,9.44c-1.52,1.87-4,3.18-7.3,3.95a25.75,25.75,0,0,1-11-.11A25.08,25.08,0,0,1,690.58,88c-2.8-2.27-4.46-4.77-4.94-7.51s-.28-6.45.62-11.14l.79-4.1q7.83,1.51,15.64,3.1l-1.56,7.6c-.47,2.34-.56,3.89-.27,4.64A2.61,2.61,0,0,0,703,82.05a2.79,2.79,0,0,0,2.74-.76,7.2,7.2,0,0,0,1.6-3.6q1.16-5.5,0-7.53c-.83-1.35-3.06-3.78-6.72-7.28a83,83,0,0,1-7.2-7.49,13.88,13.88,0,0,1-2.44-5.69,21.59,21.59,0,0,1,.21-8.45q1.38-7.2,4-10.14a13,13,0,0,1,7.33-4,26.68,26.68,0,0,1,10.91.26,29.08,29.08,0,0,1,11.07,4.46c2.87,2,4.58,4.21,5.15,6.5s.31,5.9-.79,10.84Z"/><path class="cls-1" d="M781,84.33Q770.61,81.57,760.22,79q-1.37,5.48-2.74,11a12.12,12.12,0,0,0-.59,4.56A2,2,0,0,0,758.6,96a2.45,2.45,0,0,0,2.74-.71,14.37,14.37,0,0,0,1.91-4.93c.56-2.23,1.13-4.45,1.69-6.68q7.59,1.93,15.15,3.95l-1,3.72a33.6,33.6,0,0,1-2.53,7,15.2,15.2,0,0,1-4.25,4.61,14.36,14.36,0,0,1-6.75,2.81,23.29,23.29,0,0,1-8.92-.75,26.86,26.86,0,0,1-8.46-3.6,14.74,14.74,0,0,1-5-5.33,14.45,14.45,0,0,1-1.67-6.15,35.55,35.55,0,0,1,1.22-8.83l3.51-14.82q1.57-6.66,4.39-10.06a12.93,12.93,0,0,1,7.65-4.39,26.72,26.72,0,0,1,21.19,5.78A14.16,14.16,0,0,1,784,65.77q.71,4.53-1.25,11.86C782.15,79.86,781.56,82.1,781,84.33ZM767,71.91c.32-1.23.63-2.47.94-3.7a18.22,18.22,0,0,0,.85-5.19,1.82,1.82,0,0,0-1.53-1.6c-1.12-.28-1.9-.13-2.33.45A20.1,20.1,0,0,0,763.2,67c-.3,1.24-.61,2.47-.92,3.7Z"/><path class="cls-1" d="M793.54,100.41q-1.75,6.25-3.5,12.5-5.91-1.65-11.83-3.25,1.68-6.27,3.38-12.54Q787.56,98.74,793.54,100.41Z"/><path class="cls-1" d="M852.61,65.09q-13.93,29-27.48,58.16-12.32-3.81-24.7-7.38,4.13-32,7.78-64,9,2.52,18,5.18Q821.9,83.2,818,101q6.54-17.27,12.13-30.5,2.29-5.49,4.6-11Q843.67,62.26,852.61,65.09Z"/><path class="cls-1" d="M847,116.56q-2,6.18-4,12.35-5.85-1.91-11.73-3.75l3.9-12.39Q841.09,114.65,847,116.56Z"/></g></g></svg>