<svg xmlns="http://www.w3.org/2000/svg" viewBox="0 0 35 31.3"><defs><style>.cls-1{fill:#fff;}</style></defs><title>united-cheer-sports-mobile-menu-home</title><g id="Ebene_2" data-name="Ebene 2"><g id="Ebene_1-2" data-name="Ebene 1"><path class="cls-1" d="M27.46,17.1a2,2,0,0,0-2,2v8.2H9.55V19.1a2,2,0,0,0-4,0V29.3a2,2,0,0,0,2,2H27.46a2,2,0,0,0,2-2V19.1A2,2,0,0,0,27.46,17.1Z"/><path class="cls-1" d="M34.41,16l-5.65-5.62v-6a2,2,0,0,0-4,0v2L18.92.59a2,2,0,0,0-2.84,0L.59,16a2,2,0,0,0,0,2.82,2,2,0,0,0,2.84,0l14.07-14,14.07,14a2,2,0,0,0,2.84,0A2,2,0,0,0,34.41,16Z"/></g></g></svg>